<svg width="25" height="24" viewBox="0 0 25 24" fill="none" xmlns="http://www.w3.org/2000/svg">
<g id="S&#195;&#169;curit&#195;&#169;">
<path id="Vector" d="M23.5 2.52647V9.2355C23.5 19.4652 14.8123 22.8591 13.0729 23.4356C12.7014 23.5614 12.2986 23.5614 11.9271 23.4356C10.1854 22.8591 1.5 19.4652 1.5 9.2355V2.52647C1.5 2.04205 1.69315 1.57747 2.03697 1.23493C2.38079 0.892387 2.8471 0.699951 3.33333 0.699951H21.6667C22.1529 0.699951 22.6192 0.892387 22.963 1.23493C23.3068 1.57747 23.5 2.04205 23.5 2.52647Z" fill="#364860"/>
<path id="Vector_2" d="M20.8333 1.59998H4.16667C3.72464 1.59998 3.30072 1.77557 2.98816 2.08813C2.67559 2.40069 2.5 2.82461 2.5 3.26664V9.38852C2.5 18.7229 10.3979 21.8198 11.9792 22.3458C12.3169 22.4607 12.6831 22.4607 13.0208 22.3458C14.6042 21.8198 22.5 18.7229 22.5 9.38852V3.26664C22.5 2.82461 22.3244 2.40069 22.0118 2.08813C21.6993 1.77557 21.2754 1.59998 20.8333 1.59998ZM17.2563 8.85623L11.4229 14.6896C11.3455 14.767 11.2536 14.8285 11.1525 14.8704C11.0513 14.9124 10.9428 14.934 10.8333 14.934C10.7238 14.934 10.6154 14.9124 10.5142 14.8704C10.4131 14.8285 10.3211 14.767 10.2438 14.6896L7.74375 12.1896C7.58738 12.0332 7.49954 11.8211 7.49954 11.6C7.49954 11.3788 7.58738 11.1668 7.74375 11.0104C7.90012 10.854 8.1122 10.7662 8.33333 10.7662C8.55447 10.7662 8.76655 10.854 8.92292 11.0104L10.8333 12.9208L16.0771 7.67706C16.1545 7.59963 16.2464 7.53822 16.3476 7.49631C16.4487 7.45441 16.5572 7.43285 16.6667 7.43285C16.7762 7.43285 16.8846 7.45441 16.9857 7.49631C17.0869 7.53822 17.1788 7.59963 17.2563 7.67706C17.3337 7.75448 17.3951 7.8464 17.437 7.94756C17.4789 8.04872 17.5005 8.15715 17.5005 8.26664C17.5005 8.37614 17.4789 8.48456 17.437 8.58572C17.3951 8.68688 17.3337 8.7788 17.2563 8.85623Z" fill="#4AA8FF"/>
</g>
</svg>
