<svg width="28" height="28" viewBox="0 0 28 28" fill="none" xmlns="http://www.w3.org/2000/svg">
<g id="R&#195;&#169;pondre" transform="translate(0, 28) scale(1, -1)">
<path id="Vector" d="M2.57775 14.19L10.9109 22.5231C11.0274 22.6398 11.176 22.7193 11.3377 22.7515C11.4994 22.7837 11.6671 22.7672 11.8194 22.7041C11.9718 22.6409 12.102 22.534 12.1935 22.3969C12.2851 22.2597 12.3339 22.0985 12.3338 21.9336V17.791C18.2815 18.1285 22.3595 21.9856 23.5043 23.2075C23.6841 23.3995 23.9198 23.5298 24.1779 23.5801C24.4361 23.6303 24.7035 23.5979 24.9421 23.4873C25.1808 23.3768 25.3784 23.1938 25.507 22.9644C25.6356 22.735 25.6886 22.4708 25.6584 22.2096C25.272 18.8493 23.4314 15.6171 20.4752 13.1088C18.0201 11.0255 15.0358 9.70366 12.3338 9.47242V5.26732C12.3339 5.10241 12.2851 4.94117 12.1935 4.80401C12.102 4.66685 11.9718 4.55994 11.8194 4.49682C11.6671 4.43369 11.4994 4.41719 11.3377 4.4494C11.176 4.48161 11.0274 4.56108 10.9109 4.67775L2.57775 13.0109C2.50027 13.0883 2.43881 13.1802 2.39688 13.2813C2.35494 13.3825 2.33335 13.4909 2.33335 13.6004C2.33335 13.71 2.35494 13.8184 2.39688 13.9195C2.43881 14.0207 2.50027 14.1126 2.57775 14.19Z" fill="#6C7A87"/>
</g>
</svg>
