<svg width="24" height="24" viewBox="0 0 24 24" fill="none" xmlns="http://www.w3.org/2000/svg">
<path d="M15.74 11.25C15.74 11.4489 15.6641 11.6397 15.5291 11.7803C15.3941 11.921 15.211 12 15.02 12H9.26C9.06904 12 8.88591 11.921 8.75088 11.7803C8.61586 11.6397 8.54 11.4489 8.54 11.25C8.54 11.0511 8.61586 10.8603 8.75088 10.7197C8.88591 10.579 9.06904 10.5 9.26 10.5H15.02C15.211 10.5 15.3941 10.579 15.5291 10.7197C15.6641 10.8603 15.74 11.0511 15.74 11.25ZM15.02 13.5H9.26C9.06904 13.5 8.88591 13.579 8.75088 13.7197C8.61586 13.8603 8.54 14.0511 8.54 14.25C8.54 14.4489 8.61586 14.6397 8.75088 14.7803C8.88591 14.921 9.06904 15 9.26 15H15.02C15.211 15 15.3941 14.921 15.5291 14.7803C15.6641 14.6397 15.74 14.4489 15.74 14.25C15.74 14.0511 15.6641 13.8603 15.5291 13.7197C15.3941 13.579 15.211 13.5 15.02 13.5ZM21.5 12.375C21.4974 14.8606 20.5483 17.2435 18.8611 19.0011C17.1738 20.7587 14.8861 21.7473 12.5 21.75H4.9103C4.53641 21.7495 4.17797 21.5946 3.91359 21.3192C3.64921 21.0438 3.50048 20.6704 3.5 20.2809V12.375C3.5 9.8886 4.44821 7.50403 6.13604 5.74587C7.82387 3.98772 10.1131 3 12.5 3C14.8869 3 17.1761 3.98772 18.864 5.74587C20.5518 7.50403 21.5 9.8886 21.5 12.375ZM20.06 12.375C20.06 10.2864 19.2635 8.28338 17.8457 6.80653C16.428 5.32969 14.505 4.5 12.5 4.5C10.495 4.5 8.57205 5.32969 7.15427 6.80653C5.7365 8.28338 4.94 10.2864 4.94 12.375V20.25H12.5C14.5044 20.2478 16.426 19.4174 17.8434 17.941C19.2607 16.4646 20.0579 14.4629 20.06 12.375Z" fill="#6C7A87"/>
<line x1="2.91379" y1="1.96552" x2="22.4655" y2="20.5862" stroke="#6C7A87" stroke-width="2" stroke-linecap="round"/>
</svg>
