<svg width="24" height="24" viewBox="0 0 24 24" fill="none" xmlns="http://www.w3.org/2000/svg">
<g id="Status=post quantique">
<path id="Vector" d="M23 2.52647V9.2355C23 19.4652 14.3123 22.8591 12.5729 23.4356C12.2014 23.5614 11.7986 23.5614 11.4271 23.4356C9.68542 22.8591 1 19.4652 1 9.2355V2.52647C1 2.04205 1.19315 1.57747 1.53697 1.23493C1.88079 0.892387 2.3471 0.699951 2.83333 0.699951H21.1667C21.6529 0.699951 22.1192 0.892387 22.463 1.23493C22.8068 1.57747 23 2.04205 23 2.52647Z" fill="#364860"/>
<path id="Exclude" fill-rule="evenodd" clip-rule="evenodd" d="M22 9.38864V3.26676C22 2.82474 21.8244 2.40081 21.5118 2.08825C21.1993 1.77569 20.7754 1.6001 20.3333 1.6001H3.66667C3.22464 1.6001 2.80072 1.77569 2.48816 2.08825C2.17559 2.40081 2 2.82474 2 3.26676V9.38864C2 18.723 9.89583 21.8199 11.4792 22.3459C11.8169 22.4608 12.1831 22.4608 12.5208 22.3459C14.1021 21.8199 22 18.723 22 9.38864ZM15.8855 10.6612C16.2638 11.1968 16.5922 11.766 16.8665 12.3616C17.5118 13.7955 17.5036 14.9493 16.8409 15.6098C16.5068 15.9439 16.0463 16.1112 15.4871 16.1112C14.941 16.1112 14.3012 15.9521 13.5927 15.6332C12.9971 15.359 12.4279 15.0306 11.8923 14.6523C11.3567 15.0306 10.7875 15.359 10.1919 15.6332C9.48396 15.9521 8.8425 16.1112 8.2975 16.1112C7.74052 16.1112 7.28 15.9439 6.94591 15.6098C6.28538 14.9493 6.2772 13.7955 6.92248 12.3616C7.19677 11.766 7.52515 11.1968 7.90347 10.6612C7.52515 10.1257 7.19677 9.55647 6.92248 8.96086C6.2772 7.52697 6.28538 6.37321 6.94591 5.71268C7.60645 5.05214 8.76021 5.04397 10.1941 5.68924C10.7897 5.96354 11.3589 6.29191 11.8945 6.67024C12.4301 6.29191 12.9993 5.96354 13.5949 5.68924C15.0288 5.04397 16.1825 5.05214 16.843 5.71268C17.5036 6.37321 17.5118 7.52697 16.8665 8.96086C16.5922 9.55647 16.2638 10.1257 15.8855 10.6612ZM15.0456 9.57016C16.0152 8.05616 16.2038 6.92584 15.9176 6.63917V6.63808C15.631 6.35196 14.5007 6.54053 12.9845 7.51226C13.3496 7.818 13.711 8.14827 14.0608 8.49815C14.4107 8.84804 14.7399 9.20719 15.0456 9.57016ZM13.1333 11.9C13.5275 11.5072 13.9006 11.0937 14.251 10.6612C13.9008 10.2287 13.5276 9.8152 13.1333 9.42247C12.7405 9.02808 12.327 8.65496 11.8945 8.30468C11.0304 9.00747 10.2407 9.79713 9.53792 10.6612C9.88833 11.0937 10.2615 11.5072 10.6557 11.9C11.0486 12.2943 11.4621 12.6674 11.8945 13.0178C12.3269 12.6674 12.7404 12.2943 13.1333 11.9ZM8.29369 6.516C8.09477 6.516 7.95089 6.55906 7.87132 6.63808C7.58519 6.92475 7.77376 8.05507 8.74549 9.57125C9.05123 9.2061 9.37878 8.84695 9.72866 8.49706C10.0786 8.14718 10.4377 7.818 10.8007 7.51226C9.70741 6.80976 8.81307 6.516 8.29369 6.516ZM8.74331 11.7534C7.77376 13.2674 7.58519 14.3977 7.87132 14.6844C8.15798 14.9705 9.28831 14.782 10.8001 13.8102C10.4366 13.5045 10.078 13.1753 9.72812 12.8254C9.37823 12.4755 9.04905 12.1164 8.74331 11.7534ZM12.9867 13.8124C14.5007 14.782 15.631 14.9705 15.9176 14.6844C16.2038 14.3977 16.0152 13.2674 15.0435 11.7556C14.7377 12.1191 14.4085 12.4777 14.0587 12.8276C13.7088 13.1775 13.3496 13.5067 12.9867 13.8124ZM12.6195 11.1457C12.7153 11.0023 12.7665 10.8337 12.7665 10.6612C12.7665 10.43 12.6746 10.2082 12.5111 10.0447C12.3475 9.88112 12.1257 9.78925 11.8945 9.78925C11.722 9.78925 11.5534 9.84039 11.41 9.93621C11.2666 10.032 11.1549 10.1682 11.0889 10.3275C11.0229 10.4869 11.0056 10.6622 11.0392 10.8314C11.0729 11.0005 11.1559 11.1559 11.2779 11.2778C11.3998 11.3998 11.5552 11.4828 11.7244 11.5165C11.8935 11.5501 12.0688 11.5329 12.2282 11.4669C12.3875 11.4009 12.5237 11.2891 12.6195 11.1457Z" fill="#4AA8FF"/>
</g>
</svg>
