<svg width="24" height="24" viewBox="0 0 24 24" fill="none" xmlns="http://www.w3.org/2000/svg">
<path d="M12 2C10.0222 2 8.08879 2.58649 6.4443 3.6853C4.79981 4.78412 3.51809 6.3459 2.76121 8.17316C2.00433 10.0004 1.8063 12.0111 2.19215 13.9509C2.578 15.8907 3.53041 17.6725 4.92894 19.0711C6.32746 20.4696 8.10929 21.422 10.0491 21.8078C11.9889 22.1937 13.9996 21.9957 15.8268 21.2388C17.6541 20.4819 19.2159 19.2002 20.3147 17.5557C21.4135 15.9112 22 13.9778 22 12C21.9972 9.34869 20.9427 6.80678 19.068 4.93202C17.1932 3.05727 14.6513 2.0028 12 2ZM12 20.4615C10.3265 20.4615 8.69052 19.9653 7.29902 19.0355C5.90753 18.1057 4.823 16.7842 4.18256 15.2381C3.54213 13.6919 3.37456 11.9906 3.70105 10.3492C4.02754 8.70786 4.83343 7.20016 6.01679 6.01679C7.20016 4.83342 8.70786 4.02754 10.3492 3.70105C11.9906 3.37456 13.6919 3.54212 15.2381 4.18256C16.7842 4.82299 18.1057 5.90753 19.0355 7.29902C19.9653 8.69051 20.4615 10.3265 20.4615 12C20.459 14.2434 19.5667 16.3941 17.9804 17.9804C16.3941 19.5667 14.2434 20.459 12 20.4615ZM7.38462 10.0769C7.38462 9.84871 7.45229 9.62563 7.57908 9.43588C7.70586 9.24613 7.88607 9.09824 8.09691 9.01091C8.30774 8.92357 8.53974 8.90072 8.76357 8.94525C8.98739 8.98977 9.19299 9.09966 9.35436 9.26103C9.51573 9.4224 9.62562 9.62799 9.67014 9.85182C9.71466 10.0756 9.69181 10.3076 9.60448 10.5185C9.51715 10.7293 9.36926 10.9095 9.17951 11.0363C8.98976 11.1631 8.76667 11.2308 8.53846 11.2308C8.23245 11.2308 7.93896 11.1092 7.72257 10.8928C7.50618 10.6764 7.38462 10.3829 7.38462 10.0769ZM16.6154 10.0769C16.6154 10.3051 16.5477 10.5282 16.4209 10.718C16.2941 10.9077 16.1139 11.0556 15.9031 11.1429C15.6923 11.2303 15.4603 11.2531 15.2364 11.2086C15.0126 11.1641 14.807 11.0542 14.6456 10.8928C14.4843 10.7314 14.3744 10.5259 14.3299 10.302C14.2853 10.0782 14.3082 9.8462 14.3955 9.63536C14.4829 9.42453 14.6307 9.24432 14.8205 9.11753C15.0102 8.99075 15.2333 8.92308 15.4615 8.92308C15.7676 8.92308 16.061 9.04464 16.2774 9.26103C16.4938 9.47742 16.6154 9.7709 16.6154 10.0769ZM16.5125 14.6923C15.5231 16.4029 13.8779 17.3846 12 17.3846C10.1221 17.3846 8.47789 16.4038 7.48846 14.6923C7.43281 14.6048 7.39544 14.5068 7.3786 14.4045C7.36176 14.3021 7.36581 14.1974 7.39049 14.0966C7.41517 13.9959 7.45998 13.9011 7.52222 13.8181C7.58447 13.7351 7.66285 13.6656 7.75267 13.6137C7.84249 13.5617 7.94189 13.5285 8.04487 13.516C8.14786 13.5035 8.25232 13.512 8.35195 13.5409C8.45159 13.5698 8.54435 13.6185 8.62466 13.6842C8.70496 13.7499 8.77114 13.8311 8.81923 13.9231C9.5375 15.1644 10.6663 15.8462 12 15.8462C13.3337 15.8462 14.4625 15.1635 15.1798 13.9231C15.2818 13.7463 15.4498 13.6174 15.6469 13.5645C15.844 13.5117 16.054 13.5393 16.2308 13.6413C16.4075 13.7434 16.5365 13.9114 16.5893 14.1085C16.6421 14.3056 16.6145 14.5156 16.5125 14.6923Z" fill="#4FAE80"/>
</svg>
