<svg width="32" height="32" viewBox="0 0 32 32" fill="none" xmlns="http://www.w3.org/2000/svg">
<path d="M27.9999 8.88753C27.7645 9.00943 27.4904 9.03287 27.2377 8.95271C26.985 8.87255 26.7745 8.69534 26.6524 8.46003C25.6979 6.57439 24.2532 4.98065 22.4699 3.84628C22.3588 3.77619 22.2626 3.68489 22.1867 3.57761C22.1109 3.47032 22.0569 3.34915 22.0279 3.221C21.9989 3.09286 21.9954 2.96025 22.0176 2.83075C22.0398 2.70126 22.0873 2.57741 22.1574 2.46628C22.2275 2.35515 22.3188 2.25891 22.4261 2.18306C22.5334 2.10721 22.6546 2.05324 22.7827 2.02422C22.9109 1.9952 23.0435 1.99171 23.173 2.01394C23.3025 2.03617 23.4263 2.08369 23.5374 2.15378C25.6157 3.48445 27.3032 5.34323 28.4274 7.54003C28.5493 7.77543 28.5728 8.04959 28.4926 8.30227C28.4125 8.55495 28.2353 8.76546 27.9999 8.88753ZM4.46369 9.00003C4.6469 8.99995 4.82656 8.94955 4.98307 8.85432C5.13958 8.75909 5.26692 8.6227 5.35119 8.46003C6.3057 6.57439 7.75047 4.98065 9.53369 3.84628C9.75813 3.70472 9.91714 3.4798 9.97575 3.221C10.0344 2.9622 9.98775 2.69072 9.84619 2.46628C9.70463 2.24184 9.47971 2.08283 9.22091 2.02422C8.96211 1.96562 8.69063 2.01222 8.46619 2.15378C6.38795 3.48445 4.70042 5.34323 3.57619 7.54003C3.49724 7.69243 3.45884 7.86258 3.46469 8.03412C3.47054 8.20566 3.52045 8.3728 3.6096 8.51946C3.69876 8.66613 3.82416 8.78738 3.97374 8.87154C4.12333 8.95571 4.29206 8.99996 4.46369 9.00003ZM27.7262 21.9925C27.9034 22.2963 27.9973 22.6415 27.9985 22.9932C27.9997 23.3448 27.9081 23.6906 27.7331 23.9956C27.558 24.3007 27.3056 24.5541 27.0013 24.7304C26.697 24.9068 26.3516 24.9998 25.9999 25H20.8999C20.6704 26.1303 20.0572 27.1465 19.1642 27.8764C18.2712 28.6063 17.1533 29.005 15.9999 29.005C14.8466 29.005 13.7287 28.6063 12.8357 27.8764C11.9427 27.1465 11.3295 26.1303 11.0999 25H5.99994C5.64847 24.9993 5.30339 24.906 4.99945 24.7295C4.69552 24.553 4.44347 24.2995 4.26869 23.9946C4.09392 23.6896 4.00259 23.344 4.0039 22.9925C4.00522 22.6411 4.09914 22.2962 4.27619 21.9925C5.40244 20.0488 5.99994 17.285 5.99994 14C5.99994 11.3479 7.05351 8.80433 8.92887 6.92896C10.8042 5.0536 13.3478 4.00003 15.9999 4.00003C18.6521 4.00003 21.1956 5.0536 23.071 6.92896C24.9464 8.80433 25.9999 11.3479 25.9999 14C25.9999 17.2838 26.5974 20.0475 27.7262 21.9925ZM18.8274 25H13.1724C13.3796 25.5843 13.7627 26.09 14.269 26.4477C14.7753 26.8054 15.38 26.9974 15.9999 26.9974C16.6199 26.9974 17.2245 26.8054 17.7309 26.4477C18.2372 26.09 18.6203 25.5843 18.8274 25ZM25.9999 23C24.6699 20.7163 23.9999 17.6888 23.9999 14C23.9999 11.8783 23.1571 9.84347 21.6568 8.34317C20.1565 6.84288 18.1217 6.00003 15.9999 6.00003C13.8782 6.00003 11.8434 6.84288 10.3431 8.34317C8.8428 9.84347 7.99994 11.8783 7.99994 14C7.99994 17.69 7.32744 20.7175 5.99994 23H25.9999Z" fill="#22334D"/>
</svg>
