<svg width="24" height="25" viewBox="0 0 24 25" fill="none" xmlns="http://www.w3.org/2000/svg">
<path d="M13.8 12.5C13.8 12.856 13.6944 13.204 13.4966 13.5C13.2988 13.796 13.0177 14.0267 12.6888 14.163C12.3599 14.2992 11.998 14.3349 11.6488 14.2654C11.2996 14.196 10.9789 14.0245 10.7272 13.7728C10.4754 13.5211 10.304 13.2003 10.2345 12.8512C10.1651 12.502 10.2007 12.1401 10.337 11.8112C10.4732 11.4823 10.7039 11.2011 10.9999 11.0034C11.2959 10.8056 11.6439 10.7 12 10.7C12.4773 10.7 12.9352 10.8896 13.2727 11.2272C13.6103 11.5648 13.8 12.0226 13.8 12.5ZM12 7.1C12.356 7.1 12.704 6.99443 13 6.79665C13.296 6.59886 13.5267 6.31774 13.6629 5.98883C13.7992 5.65992 13.8348 5.298 13.7654 4.94884C13.6959 4.59967 13.5245 4.27894 13.2727 4.02721C13.021 3.77547 12.7003 3.60404 12.3511 3.53459C12.0019 3.46513 11.64 3.50078 11.3111 3.63702C10.9822 3.77326 10.7011 4.00397 10.5033 4.29997C10.3055 4.59598 10.2 4.94399 10.2 5.3C10.2 5.77739 10.3896 6.23523 10.7272 6.57279C11.0647 6.91036 11.5226 7.1 12 7.1ZM12 17.9C11.6439 17.9 11.2959 18.0056 10.9999 18.2034C10.7039 18.4011 10.4732 18.6823 10.337 19.0112C10.2007 19.3401 10.1651 19.702 10.2345 20.0512C10.304 20.4003 10.4754 20.7211 10.7272 20.9728C10.9789 21.2245 11.2996 21.396 11.6488 21.4654C11.998 21.5349 12.3599 21.4992 12.6888 21.363C13.0177 21.2267 13.2988 20.996 13.4966 20.7C13.6944 20.404 13.8 20.056 13.8 19.7C13.8 19.2226 13.6103 18.7648 13.2727 18.4272C12.9352 18.0896 12.4773 17.9 12 17.9Z" fill="white"/>
</svg>
