/* XPM */
static char * linphone2_xpm[] = {
"50 45 835 2",
"  	c None",
". 	c #211F1D",
"+ 	c #53514E",
"@ 	c #5F5D59",
"# 	c #7D7C78",
"$ 	c #605F5C",
"% 	c #94928C",
"& 	c #95938D",
"* 	c #7B7A77",
"= 	c #605E5C",
"- 	c #353432",
"; 	c #585754",
"> 	c #84827D",
", 	c #B9B6B0",
"' 	c #D9D5CE",
") 	c #DFDBD3",
"! 	c #EAE6DE",
"~ 	c #EFEBE2",
"{ 	c #EEEAE1",
"] 	c #EFEBE3",
"^ 	c #EEEAE2",
"/ 	c #75726D",
"( 	c #5E5C58",
"_ 	c #7D7B77",
": 	c #BAB6AF",
"< 	c #E5E1D8",
"[ 	c #DAD7CF",
"} 	c #C8C4BD",
"| 	c #898782",
"1 	c #949089",
"2 	c #938F88",
"3 	c #5B5854",
"4 	c #45433F",
"5 	c #4D4943",
"6 	c #5F5C56",
"7 	c #A5A199",
"8 	c #DCD5C5",
"9 	c #6F6B63",
"0 	c #42413F",
"a 	c #A19E97",
"b 	c #DAD6CE",
"c 	c #EDE9E1",
"d 	c #D4D0C9",
"e 	c #96928C",
"f 	c #63605B",
"g 	c #827C73",
"h 	c #6F6961",
"i 	c #90877A",
"j 	c #8E8578",
"k 	c #B4A999",
"l 	c #B9AD9D",
"m 	c #C0B5A3",
"n 	c #BCB1A0",
"o 	c #858075",
"p 	c #C3BCAE",
"q 	c #EAE5DB",
"r 	c #E0D9C9",
"s 	c #C5BDAE",
"t 	c #20201E",
"u 	c #8D8B86",
"v 	c #CAC7C1",
"w 	c #D2CEC6",
"x 	c #918F89",
"y 	c #5D5A56",
"z 	c #A0998F",
"A 	c #827B6F",
"B 	c #C0B4A2",
"C 	c #C2B7A5",
"D 	c #C1B6A4",
"E 	c #8A8174",
"F 	c #94918B",
"G 	c #C7C3BB",
"H 	c #AFAAA1",
"I 	c #938B7E",
"J 	c #646058",
"K 	c #D8D1C3",
"L 	c #ECE7DE",
"M 	c #EBE7DD",
"N 	c #E4DED0",
"O 	c #DED6C5",
"P 	c #57544D",
"Q 	c #202020",
"R 	c #7E7C77",
"S 	c #DFDCD4",
"T 	c #F0ECE4",
"U 	c #EDE9E0",
"V 	c #ECE8E1",
"W 	c #B6B2AB",
"X 	c #77736E",
"Y 	c #767067",
"Z 	c #A3998B",
"` 	c #BCB09F",
" .	c #C3B7A6",
"..	c #BFB3A1",
"+.	c #C3B8A7",
"@.	c #BFB4A2",
"#.	c #BDB2A1",
"$.	c #3E3B35",
"%.	c #BBB4A6",
"&.	c #A7A39C",
"*.	c #ECE9E1",
"=.	c #77736A",
"-.	c #E7E1D5",
";.	c #E3DDCE",
">.	c #8F897F",
",.	c #22201E",
"'.	c #91908C",
").	c #EFECE3",
"!.	c #EBE7DE",
"~.	c #878581",
"{.	c #5B574F",
"].	c #7F786C",
"^.	c #8D867A",
"/.	c #9C9994",
"(.	c #98958F",
"_.	c #837B6E",
":.	c #C4B9A7",
"<.	c #958B7E",
"[.	c #736D62",
"}.	c #4E4942",
"|.	c #4C4842",
"1.	c #383632",
"2.	c #99968F",
"3.	c #ECE8DE",
"4.	c #7C7972",
"5.	c #CCC6BB",
"6.	c #E9E4D9",
"7.	c #EDE8DF",
"8.	c #E1D9C9",
"9.	c #BFB8A9",
"0.	c #1A1A1A",
"a.	c #C3BFB8",
"b.	c #CFCCC4",
"c.	c #85827C",
"d.	c #56514A",
"e.	c #A69C8D",
"f.	c #BFB3A2",
"g.	c #C2B7A6",
"h.	c #B4AA9A",
"i.	c #757168",
"j.	c #706D68",
"k.	c #918E88",
"l.	c #464441",
"m.	c #97948E",
"n.	c #C9C6BF",
"o.	c #8C8A85",
"p.	c #8E897F",
"q.	c #999488",
"r.	c #817E77",
"s.	c #C1BEB7",
"t.	c #807D75",
"u.	c #8A8377",
"v.	c #6E6A63",
"w.	c #A8A49C",
"x.	c #EAE4D9",
"y.	c #E4DDCF",
"z.	c #D8D0C0",
"A.	c #AFA99C",
"B.	c #848076",
"C.	c #BFBBB4",
"D.	c #B1AEA8",
"E.	c #47443F",
"F.	c #5C5851",
"G.	c #686259",
"H.	c #B0A595",
"I.	c #B7AC9B",
"J.	c #817A6F",
"K.	c #7E7A70",
"L.	c #AEA99D",
"M.	c #9A9791",
"N.	c #EEE9E1",
"O.	c #E6E2DA",
"P.	c #CCC8BF",
"Q.	c #E3DCCE",
"R.	c #86827A",
"S.	c #C6C3BC",
"T.	c #7C7974",
"U.	c #4A4642",
"V.	c #6E685F",
"W.	c #89837A",
"X.	c #7B7873",
"Y.	c #9A9892",
"Z.	c #827D73",
"`.	c #56534C",
" +	c #6A675E",
".+	c #E2DBCC",
"++	c #EDE9DF",
"@+	c #DED8CC",
"#+	c #DDD5C4",
"$+	c #C4BDAE",
"%+	c #6F6B62",
"&+	c #312F2B",
"*+	c #6D6960",
"=+	c #A19B8F",
"-+	c #E5E1DA",
";+	c #7F7D79",
">+	c #CFCBC3",
",+	c #ACA9A2",
"'+	c #B6B1A8",
")+	c #B4B0AA",
"!+	c #827F7A",
"~+	c #444340",
"{+	c #262524",
"]+	c #C1BEB8",
"^+	c #9A968D",
"/+	c #242322",
"(+	c #CEC7B7",
"_+	c #DFD8C7",
":+	c #E6E0D3",
"<+	c #747067",
"[+	c #D3CCBC",
"}+	c #857F74",
"|+	c #595856",
"1+	c #CCC8C2",
"2+	c #D4D1C9",
"3+	c #ECE8DF",
"4+	c #CFCBC4",
"5+	c #93918C",
"6+	c #2F2E2C",
"7+	c #312F2C",
"8+	c #969185",
"9+	c #BAB3A5",
"0+	c #B1AB9D",
"a+	c #363532",
"b+	c #E2DED5",
"c+	c #676360",
"d+	c #4C4B4A",
"e+	c #767471",
"f+	c #75736D",
"g+	c #5B5956",
"h+	c #928D81",
"i+	c #E5DFD2",
"j+	c #EEE9E0",
"k+	c #EBE6DB",
"l+	c #C0B9AB",
"m+	c #A7A195",
"n+	c #8D887E",
"o+	c #C4BCAD",
"p+	c #BCB8B1",
"q+	c #D5D1C9",
"r+	c #7A746D",
"s+	c #AEABA4",
"t+	c #B2AFA8",
"u+	c #98948D",
"v+	c #7D7A76",
"w+	c #69655D",
"x+	c #9B9589",
"y+	c #A9A396",
"z+	c #A7A49F",
"A+	c #D8D2C9",
"B+	c #948F83",
"C+	c #454340",
"D+	c #D7D3CC",
"E+	c #63615E",
"F+	c #141414",
"G+	c #000000",
"H+	c #53504A",
"I+	c #EBE7DC",
"J+	c #E4DDD0",
"K+	c #898479",
"L+	c #ADA79A",
"M+	c #CBC3B4",
"N+	c #89847A",
"O+	c #CDC6B6",
"P+	c #AAA59C",
"Q+	c #9F9D98",
"R+	c #E6E2D9",
"S+	c #AFACA7",
"T+	c #615F5C",
"U+	c #201F1D",
"V+	c #66625B",
"W+	c #AEA89A",
"X+	c #AEA89B",
"Y+	c #B7B0A2",
"Z+	c #070707",
"`+	c #E0DED9",
" @	c #CFC7B8",
".@	c #6B6863",
"+@	c #63625E",
"@@	c #DBD3C3",
"#@	c #534D46",
"$@	c #807E7B",
"%@	c #DDD9D1",
"&@	c #36322E",
"*@	c #4B4A49",
"=@	c #6E6C67",
"-@	c #E5DED1",
";@	c #E9E4D8",
">@	c #EFEAE2",
",@	c #E2DCD0",
"'@	c #8F8A7F",
")@	c #999387",
"!@	c #4E4B45",
"~@	c #6B665E",
"{@	c #47433D",
"]@	c #D4CDC0",
"^@	c #E8E3DA",
"/@	c #1F1E1E",
"(@	c #65615A",
"_@	c #ADA699",
":@	c #949494",
"<@	c #BEBEBC",
"[@	c #DAD2C2",
"}@	c #7F7B74",
"|@	c #4D4D4D",
"1@	c #959084",
"2@	c #DAD5C9",
"3@	c #B9B1A2",
"4@	c #3C3934",
"5@	c #989693",
"6@	c #B1ADA5",
"7@	c #76746F",
"8@	c #4C4A44",
"9@	c #DCD4C3",
"0@	c #E9E3D8",
"a@	c #DCD8CE",
"b@	c #A6A49E",
"c@	c #9C9890",
"d@	c #7B776D",
"e@	c #55534E",
"f@	c #B5B3AD",
"g@	c #474440",
"h@	c #D0C9B9",
"i@	c #E7E2D7",
"j@	c #65635D",
"k@	c #4F4E4C",
"l@	c #B7B1A3",
"m@	c #B7B3A9",
"n@	c #96948E",
"o@	c #BCBBBB",
"p@	c #BCB6A9",
"q@	c #ABA6A1",
"r@	c #8E8C87",
"s@	c #161514",
"t@	c #545350",
"u@	c #B9B1A1",
"v@	c #958F84",
"w@	c #8C867B",
"x@	c #81796E",
"y@	c #BFB4A3",
"z@	c #C6BBAA",
"A@	c #5E5B53",
"B@	c #96938D",
"C@	c #696762",
"D@	c #DFD7C7",
"E@	c #C6C2B9",
"F@	c #817C72",
"G@	c #B3AC9F",
"H@	c #B5AFA4",
"I@	c #6C6964",
"J@	c #DFD8C9",
"K@	c #9C9C9B",
"L@	c #716E6A",
"M@	c #B8B1A3",
"N@	c #2A2926",
"O@	c #625F58",
"P@	c #E0D8C9",
"Q@	c #C1BAAB",
"R@	c #252321",
"S@	c #E1DDD5",
"T@	c #7B7977",
"U@	c #625E57",
"V@	c #322F2A",
"W@	c #C4B9A8",
"X@	c #D1C7B6",
"Y@	c #C1B5A4",
"Z@	c #C8BEAC",
"`@	c #9A9387",
" #	c #2D2C28",
".#	c #595752",
"+#	c #A29D94",
"@#	c #D5CEBD",
"##	c #CBC4B4",
"$#	c #DBD3C2",
"%#	c #A09C94",
"&#	c #C1C1C1",
"*#	c #95938E",
"=#	c #7F7A70",
"-#	c #8B867C",
";#	c #D6D0C4",
">#	c #C9C2B3",
",#	c #7C7B78",
"'#	c #BEBBB5",
")#	c #D1CABA",
"!#	c #44423F",
"~#	c #D6D2CA",
"{#	c #3A3835",
"]#	c #262421",
"^#	c #33302C",
"/#	c #69645B",
"(#	c #8B8478",
"_#	c #5F5951",
":#	c #605C53",
"<#	c #67635B",
"[#	c #BFB8AA",
"}#	c #928D82",
"|#	c #B8B2A4",
"1#	c #938F85",
"2#	c #989287",
"3#	c #89857C",
"4#	c #706E6A",
"5#	c #DED7C6",
"6#	c #928F88",
"7#	c #979797",
"8#	c #B4AEA2",
"9#	c #918C81",
"0#	c #68645C",
"a#	c #979286",
"b#	c #4A4741",
"c#	c #5E5D5A",
"d#	c #B2AFAA",
"e#	c #47453F",
"f#	c #C2BBAC",
"g#	c #B5AEA0",
"h#	c #D4CDBC",
"i#	c #CAC7C0",
"j#	c #B5AEA1",
"k#	c #CCC4B5",
"l#	c #ACABA7",
"m#	c #797979",
"n#	c #757169",
"o#	c #BDB6A7",
"p#	c #68655D",
"q#	c #A09B92",
"r#	c #D1CABB",
"s#	c #8D887D",
"t#	c #80807F",
"u#	c #C5BEAF",
"v#	c #1E1D1B",
"w#	c #A3A099",
"x#	c #888681",
"y#	c #6A6864",
"z#	c #B3AEA3",
"A#	c #4D4A44",
"B#	c #D6CFBE",
"C#	c #A29E95",
"D#	c #C1BAAC",
"E#	c #918C82",
"F#	c #6D6961",
"G#	c #B9B3A5",
"H#	c #979084",
"I#	c #3A3836",
"J#	c #BDBBB7",
"K#	c #C7C0B1",
"L#	c #6C6860",
"M#	c #D2CBBB",
"N#	c #393836",
"O#	c #66635D",
"P#	c #A19D94",
"Q#	c #656461",
"R#	c #32302C",
"S#	c #CCC5B5",
"T#	c #DEDAD1",
"U#	c #B1ACA3",
"V#	c #7C7C7C",
"W#	c #B5B4B1",
"X#	c #5A5853",
"Y#	c #4F4C46",
"Z#	c #A09A8E",
"`#	c #76726A",
" $	c #88857F",
".$	c #4B4843",
"+$	c #DAD2C1",
"@$	c #B4ADA0",
"#$	c #B7B4AF",
"$$	c #CCC9C2",
"%$	c #282623",
"&$	c #888378",
"*$	c #262522",
"=$	c #A8A194",
"-$	c #9A9388",
";$	c #BEB7A8",
">$	c #E3DCCD",
",$	c #D1CEC6",
"'$	c #ACA699",
")$	c #AFA99B",
"!$	c #B2ADA2",
"~$	c #A09D97",
"{$	c #C0BCB5",
"]$	c #B0A99C",
"^$	c #7A776F",
"/$	c #99958E",
"($	c #8A8681",
"_$	c #777068",
":$	c #B3AB9D",
"<$	c #131211",
"[$	c #5D5A53",
"}$	c #090908",
"|$	c #8C877C",
"1$	c #C7C1B4",
"2$	c #D3CEC5",
"3$	c #EAE5DA",
"4$	c #83817D",
"5$	c #C7C0B0",
"6$	c #484743",
"7$	c #C3BFB7",
"8$	c #C7C1B3",
"9$	c #9E998F",
"0$	c #CCC9C1",
"a$	c #C3C0B8",
"b$	c #817E78",
"c$	c #7F786E",
"d$	c #AFA494",
"e$	c #ABA396",
"f$	c #474645",
"g$	c #BCB9B3",
"h$	c #9B9893",
"i$	c #2B2926",
"j$	c #070706",
"k$	c #74716D",
"l$	c #B7B4AD",
"m$	c #484641",
"n$	c #504D47",
"o$	c #DBD6CC",
"p$	c #65615B",
"q$	c #DCD5C6",
"r$	c #B3ADA1",
"s$	c #A8A296",
"t$	c #949086",
"u$	c #999690",
"v$	c #AAA6A0",
"w$	c #6D675F",
"x$	c #A09789",
"y$	c #C2B6A5",
"z$	c #6C6259",
"A$	c #66645F",
"B$	c #2D2D2D",
"C$	c #64615B",
"D$	c #2F2D2A",
"E$	c #8B8781",
"F$	c #64625D",
"G$	c #0A0908",
"H$	c #393733",
"I$	c #C2BAAB",
"J$	c #D9D5CD",
"K$	c #9C978C",
"L$	c #CFC8B8",
"M$	c #9C968A",
"N$	c #928D83",
"O$	c #98958E",
"P$	c #CBC8C0",
"Q$	c #B1ADA7",
"R$	c #8D8A84",
"S$	c #878177",
"T$	c #B4AA9B",
"U$	c #B3A898",
"V$	c #7A7368",
"W$	c #706E6B",
"X$	c #292826",
"Y$	c #A9A499",
"Z$	c #3F3E3C",
"`$	c #1B1A18",
" %	c #9F9C96",
".%	c #2D2A27",
"+%	c #C8C1B1",
"@%	c #E6DFD2",
"#%	c #C0BDB7",
"$%	c #8C8982",
"%%	c #C7C3BC",
"&%	c #8E8B84",
"*%	c #958E86",
"=%	c #837B6F",
"-%	c #AFA595",
";%	c #80796E",
">%	c #31302D",
",%	c #8F8C87",
"'%	c #74726E",
")%	c #5E5C57",
"!%	c #393430",
"~%	c #413F3B",
"{%	c #413C37",
"]%	c #605E5A",
"^%	c #22201D",
"/%	c #0C0B0A",
"(%	c #E9E4DA",
"_%	c #D6CFC2",
":%	c #7E766A",
"<%	c #C0B4A3",
"[%	c #C1B6A5",
"}%	c #605B52",
"|%	c #97938B",
"1%	c #181817",
"2%	c #0A0A0A",
"3%	c #8D8981",
"4%	c #787369",
"5%	c #D4CFC6",
"6%	c #DCD6C9",
"7%	c #CAC6BC",
"8%	c #A5A096",
"9%	c #78756E",
"0%	c #726E65",
"a%	c #4A4742",
"b%	c #605E59",
"c%	c #363433",
"d%	c #0B0A0A",
"e%	c #BFB5A5",
"f%	c #C3B8A6",
"g%	c #6C6359",
"h%	c #7C786E",
"i%	c #46433D",
"j%	c #55534F",
"k%	c #BAB5AB",
"l%	c #E1DACA",
"m%	c #B1AA9C",
"n%	c #928B80",
"o%	c #ACA598",
"p%	c #CCC5B8",
"q%	c #E1DACB",
"r%	c #CFC9BE",
"s%	c #44413C",
"t%	c #23221F",
"u%	c #AFA89B",
"v%	c #D5CCBB",
"w%	c #BEB2A1",
"x%	c #A59A8B",
"y%	c #5C564D",
"z%	c #0F0F0E",
"A%	c #65625C",
"B%	c #B8B4AE",
"C%	c #AAA498",
"D%	c #55514B",
"E%	c #332F2A",
"F%	c #47443E",
"G%	c #252320",
"H%	c #3A3833",
"I%	c #6B665C",
"J%	c #857D71",
"K%	c #90887B",
"L%	c #CBC1B0",
"M%	c #CBC1AF",
"N%	c #DED7CA",
"O%	c #9B968A",
"P%	c #59554E",
"Q%	c #B5AB9C",
"R%	c #7B7469",
"S%	c #57524A",
"T%	c #040303",
"U%	c #2F2D29",
"V%	c #BEBBB4",
"W%	c #D2CEC3",
"X%	c #1D1C1A",
"Y%	c #292827",
"Z%	c #1C1A18",
"`%	c #090807",
" &	c #181613",
".&	c #807A6E",
"+&	c #DCD5C7",
"@&	c #B8B2A5",
"#&	c #191815",
"$&	c #B8B0A2",
"%&	c #C9C1B2",
"&&	c #6A6259",
"*&	c #AEA393",
"=&	c #625D54",
"-&	c #010100",
";&	c #353431",
">&	c #76736C",
",&	c #C8C5BD",
"'&	c #979287",
")&	c #3A3733",
"!&	c #413E39",
"~&	c #8A8680",
"{&	c #BFB8AB",
"]&	c #3A3631",
"^&	c #494440",
"/&	c #3C3731",
"(&	c #28231F",
"_&	c #181715",
":&	c #040404",
"<&	c #3D3933",
"[&	c #B9B1A3",
"}&	c #85827B",
"|&	c #080807",
"1&	c #645F57",
"2&	c #8F897E",
"3&	c #71675D",
"4&	c #B5AB9A",
"5&	c #766E63",
"6&	c #38342F",
"7&	c #0D0C0B",
"8&	c #0D0B0A",
"9&	c #33312D",
"0&	c #D5CFC4",
"a&	c #DBD4C5",
"b&	c #534E48",
"c&	c #030303",
"d&	c #5E5D5E",
"e&	c #535153",
"f&	c #666460",
"g&	c #3D3B39",
"h&	c #79756B",
"i&	c #43413B",
"j&	c #B9B4A9",
"k&	c #D5D0C6",
"l&	c #CEC8BC",
"m&	c #BDB6A9",
"n&	c #97948F",
"o&	c #D5CEC0",
"p&	c #B2AC9E",
"q&	c #ADA293",
"r&	c #797166",
"s&	c #151412",
"t&	c #76736D",
"u&	c #DBD4C8",
"v&	c #D9D2C1",
"w&	c #2E2B28",
"x&	c #171615",
"y&	c #454243",
"z&	c #2C2B2A",
"A&	c #68655E",
"B&	c #807C75",
"C&	c #BAB5AA",
"D&	c #D0CABD",
"E&	c #D9D1C0",
"F&	c #E1DACD",
"G&	c #DCD3C3",
"H&	c #D0C7B7",
"I&	c #D6CEBE",
"J&	c #A8A299",
"K&	c #54524D",
"L&	c #0B0A09",
"M&	c #5E5A53",
"N&	c #9C9486",
"O&	c #948C7E",
"P&	c #544F47",
"Q&	c #0D0C0A",
"R&	c #DDD7CC",
"S&	c #E4DFD3",
"T&	c #AFAA9F",
"U&	c #847F76",
"V&	c #BFB7AB",
"W&	c #E5DFD1",
"X&	c #E8E3D7",
"Y&	c #C6BBA9",
"Z&	c #C8BDAC",
"`&	c #B8AE9F",
" *	c #756F65",
".*	c #46413B",
"+*	c #6A665D",
"@*	c #B0AA9C",
"#*	c #D7CFBF",
"$*	c #E0D8C8",
"%*	c #B8B2A7",
"&*	c #5B5851",
"**	c #272623",
"=*	c #191513",
"-*	c #413F3A",
";*	c #4B4842",
">*	c #87837B",
",*	c #B7B2A9",
"'*	c #A6A199",
")*	c #E7E1D4",
"!*	c #D7CEBD",
"~*	c #D9D1C2",
"{*	c #CDC4B3",
"]*	c #B1A89A",
"^*	c #837D73",
"/*	c #534F48",
"(*	c #373531",
"_*	c #22211F",
":*	c #C7BFB0",
"<*	c #3F3D38",
"[*	c #A8A295",
"}*	c #BAB5A9",
"|*	c #3B3935",
"1*	c #706C63",
"2*	c #91887C",
"3*	c #C1B7A7",
"4*	c #B7AD9D",
"5*	c #69645C",
"6*	c #74716B",
"7*	c #A19D95",
"8*	c #918B82",
"9*	c #484640",
"0*	c #636058",
"a*	c #68635B",
"b*	c #38332F",
"c*	c #0E0C0B",
"d*	c #837E73",
"e*	c #34322E",
"f*	c #050505",
"g*	c #060606",
"h*	c #060505",
"i*	c #12100E",
"j*	c #78746C",
"k*	c #C5C0B5",
"l*	c #AFABA1",
"m*	c #44433F",
"n*	c #100E0C",
"o*	c #21201D",
"p*	c #6C6963",
"q*	c #D0CBBF",
"r*	c #53504B",
"s*	c #4E4B44",
"t*	c #CCC5B6",
"u*	c #72716C",
"v*	c #6E6C66",
"w*	c #43403B",
"x*	c #B0AA9F",
"y*	c #85817A",
"z*	c #D5CFC3",
"A*	c #8C887E",
"B*	c #2D2C2A",
"C*	c #2A2723",
"D*	c #65635E",
"E*	c #BCB7AC",
"F*	c #66625A",
"G*	c #7F796F",
"H*	c #96928A",
"I*	c #CCC7BE",
"J*	c #B5B1A9",
"K*	c #938F86",
"L*	c #CCC8BE",
"M*	c #1E1C1A",
"N*	c #817D73",
"O*	c #191715",
"P*	c #726D64",
"Q*	c #747069",
"R*	c #E8E2D6",
"S*	c #99958B",
"T*	c #E5E0D3",
"U*	c #7F7C73",
"V*	c #666159",
"W*	c #1A1917",
"X*	c #131110",
"Y*	c #726E66",
"Z*	c #45433E",
"`*	c #D9D1C1",
" =	c #1E1B19",
".=	c #CDC5B5",
"+=	c #A7A194",
"@=	c #242220",
"#=	c #42403B",
"$=	c #060605",
"%=	c #484540",
"                                                                                                    ",
"                                                        . + @ # $ % & % * =                         ",
"                                              - ; > , ' ) ! ~ { ] { ] { ~ ^ /                       ",
"                                        ( _ : < ~ ^ ~ ^ [ } | 1 2 3 4 5 6 7 8 9                     ",
"                                  0 a b ^ ^ ~ c d e f g h i j k l m n o p q r s                     ",
"                            t u v { ] { w x y z A B C m D E F G H I J K L M N O P                   ",
"                        Q R S T U V W X Y Z `  ...+.@.C #.$.%.&.*.=.O -.{ ;.O O >.                  ",
"                    ,.'.^ { ).!.~.{.].#.^./.(._.:.<.[.}.|.1.O 2.3.4.5.6.] 7.-.8.9.                  ",
"                  0.a.{ ^ b.c.d.e.f.g.h.i.j.c k.l.m.n.o.p.q.O r.s.t.u.v.w.x.y.O z.                  ",
"                  A.B.C.D.9 E.F.G.H.I.J.K.L.] M.).N.] { O.P.Q.R.S.T.U.V.W.X.Y.R.Z.`.                ",
"                 +O .+++@+O O #+$+%+&+*+=+p.-+;+{ ] ^ ~ ^ ^ ^ U >+,+'+)+!+~+{+]+^+                  ",
"                /+(+_+U N.:+O O O O <+[+O }+|+1+^ ~ [ 2+^ ^ 3+4+5+@ 6+7+8+9+0+a+b+c+                ",
"          d+e+f+g+h+i+j+k+j+:+O O l+m+n+O o+p+q+M.r+s+t+u+v+y w+x+y+8+z+A+O O B+C+D+E+              ",
"        d+u F+G+H+#+;.I+^ ] J+O K+L+M+N+O O+P+Q+R+S+T+U+V+W+X+Y+Z+`+ @.@+@O O @@#@$@%@&@            ",
"      *@=@G+    B+-@;@] >@{ ,@'@)@O M+!@~@{@]@^@/@(@_@O y.:@<@[@}@|@[@Y+1@2@O O 3@4@5@6@            ",
"      7@        8@9@0@a@b@c@d@O O O e@f@g@h@O i@j@O O O h@_ k@l@O m@n@Q.H o@p@O O O &+q@r@          ",
"    s@t@        G+u@v@w@x@y@z@O O A@B@C@(+O O D@E@F@O O O G@H@I@r J@K@L@M@N@O@P@O O Q@R@S@T@        ",
"    U@<+          V@W@X@Y@Z@:.`@ #.#+#@#O O O O Q.1 ##O O $#%#&#*#$+=#-#;#>#,#'#)#O O K+!#~#{#      ",
"      w+i.]#        ^#/#(#_#:#<#[#}#|#O O O O O O q 1#O O O $#2#3#4#5#6#7#8#9#0#a#O O O b#c#d#      ",
"        e#f#          e#>#g#h#O O O O O O O O O O y.i#j#O O O k#l#m#n#o#p#q#r#s#t#5.O O u#v#w#x#    ",
"        y#z#          A#B#O O O O O O O O O O O O O y.C#O+O O O D#E#F#G#H#I#J#K#T+L#M#O O Y+N#4+O#  ",
"      P#Q#              R#S#O O O O O O O O O O O O O T#/ #+O O O U#V#W#9+X#Y#Z#`# $.$+$#+@$.@#$$$  ",
"      %$&$                *$=$O O -$8+;$O O O O O O O >$,$'$O O O O 8@i.)$!$~${$L i+]$^$/$: ($_$:$G+",
"      <$[$U@                }$|$1$s+2$=.O O O O O O O O 3$4$Q@O O O 5$6$7${ 3$8$9$u+0$a$b$c$d$@.e$G+",
"    f$g$h$i$                j$k$l$m$n$9#O O O O O O O O 5#o$p$)#O O O q$r$s$t$u$b+v$w$x$n Y@Y@y$z$A$",
"    B$C$D$                  E$F$G$H$I$9#O O O O O O O O O N J$K$L$M$N$O$P$Q$R$S$T$U$m D Y@D D Y@V$W$",
"      X$Y$Z$              `$ %    .%+%w+O O O O O O O O O O @%#%$%%%0$&%*%=%-%D Y@D Y@D Y@D D Y@;%4#",
"    >%,%'%)%      !%~%{%  R@]%      ^%/%S$[@O O O O O O O O D@(%_%&$:%d$Y@D D m y$<%C m D Y@Y@[%}%F$",
"    |%1%  2%`$3%4%5%;@N 6%7%8%9%0%a%b%c%d%H+K#O O O O O O O O e% .f. .<%y$D m C @.f%@.C m D D U$g%  ",
"    [$h%i%j%k%l%O m%k#n%o%p%-@++q%0@:+r%h%s%t%u%O O O O O O O v%..:.f.g.m D y$B f%w%+.@.C x%y%z%    ",
"      A%B%C%l%$+D%E%F%G%H%H%I%J%K%L%M%N%;.y.O%<$P%5$O O O O +$Q%+.w%f%B y$D m g.f.:...R%S%T%G+      ",
"    U%V%W%z.s#X%Y%Z%G+G+G+G+G+G+j$`% &.&+&3$N @&#&v#$&O O O %&&&@.f%@.C m D y$<%*&=&}$-&            ",
"  ;&>&,&'&)&!&Q ~&{&]&G+      ^&/&(&_&:&<&[&:+D@}&G+|&1&z.O 2&3&C <%y$m D 4&5&6&7&8&                ",
"  9&0&a&b&c&d&e&f&g&h&Z%i&a+j&k&l&>+m&n&>%P%L%O o&G+  G+^#p&h%{.Y@D q&r&6&s&G+                      ",
"  t&u&v&w&x&y&z&A&B&C&D&E&8 F&G&H&I&y.-.3$J&b#O K&G+      L&M&N&O&P&Q&G+                            ",
"n$R&S&T&U&u#V&]@W&X&;.+$Y&Z&`& *.*+*@*#*$*%*&*=#**G+        =*G+G+                                  ",
"-*;*>*,*'*)*!*-@~*{*]*^*/*(*_*H%M$:*<*U@[*#+}***G+                                                  ",
"  |*1*=$2*3*4*5*.$G+6*7*8*8&v#9*0*a*H+b*c*M@+$d*e*                                                  ",
"      f*g*h*i*    U+-#E#N j*G+G+            k*l*m*n*                                                ",
"                    o*u%p*q*r*G+          s*t*u*v*G+                                                ",
"                      w*x*y*z*A*B*C*      D*E*[*}$G+                                                ",
"                        L#F*G*H*I*J*p@K*L*M#M*N*O*                                                  ",
"                          b#P*(+Q*R*S*T*U*l+1.V*W*                                                  ",
"                            X*Y*Z*`* =.=X%+=@=G+                                                    ",
"                                  #=$=%=G+                                                          "};
