<?xml version="1.0" encoding="utf-8"?>
<!-- Generator: Adobe Illustrator 14.0.0, SVG Export Plug-In . SVG Version: 6.00 Build 43363)  -->
<!DOCTYPE svg PUBLIC "-//W3C//DTD SVG 1.1//EN" "http://www.w3.org/Graphics/SVG/1.1/DTD/svg11.dtd">
<svg version="1.1" id="Calque_1" xmlns="http://www.w3.org/2000/svg" xmlns:xlink="http://www.w3.org/1999/xlink" x="0px" y="0px"
	 width="595.28px" height="841.89px" viewBox="0 0 595.28 841.89" enable-background="new 0 0 595.28 841.89" xml:space="preserve">
<path fill="#969696" d="M395.103,419.955c0-2.225-13.979-6.076-14.99-6.887c-1.013-0.809-3.041-3.442-3.041-4.05
	c0-0.609,2.436-6.077,2.436-7.291c0-1.214,0.605-1.825,0.605-7.696c0-5.875-5.669-9.115-9.111-9.116l0,0h-0.003l0,0
	c-3.441,0.001-9.112,3.242-9.112,9.116c0,5.872,0.607,6.481,0.607,7.696c0,1.215,2.433,6.683,2.433,7.291
	c0,0.606-2.027,3.241-3.04,4.05c-1.014,0.812-14.989,4.662-14.989,6.887c0,2.229-0.404,7.091-0.404,7.091h49.02
	C395.511,427.045,395.103,422.183,395.103,419.955z"/>
<path fill="#FFFFFF" d="M394.122,417.014c0-2.226-13.979-6.076-14.99-6.887c-1.013-0.809-3.041-3.442-3.041-4.05
	c0-0.609,2.436-6.077,2.436-7.292c0-1.214,0.605-1.825,0.605-7.696c0-5.875-5.668-9.115-9.111-9.117l0,0h-0.003l0,0
	c-3.441,0.001-9.112,3.242-9.112,9.117c0,5.871,0.607,6.481,0.607,7.696c0,1.216,2.433,6.684,2.433,7.292
	c0,0.606-2.027,3.241-3.04,4.05c-1.014,0.812-14.989,4.662-14.989,6.887c0,2.228-0.404,7.09-0.404,7.09h49.02
	C394.531,424.104,394.122,419.242,394.122,417.014z"/>
</svg>
