<?xml version="1.0" encoding="utf-8"?>
<!-- Generator: Adobe Illustrator 14.0.0, SVG Export Plug-In . SVG Version: 6.00 Build 43363)  -->
<!DOCTYPE svg PUBLIC "-//W3C//DTD SVG 1.1//EN" "http://www.w3.org/Graphics/SVG/1.1/DTD/svg11.dtd">
<svg version="1.1" id="Calque_1" xmlns="http://www.w3.org/2000/svg" xmlns:xlink="http://www.w3.org/1999/xlink" x="0px" y="0px"
	 width="595.28px" height="841.89px" viewBox="0 0 595.28 841.89" enable-background="new 0 0 595.28 841.89" xml:space="preserve">
<g>
	<path fill="#969696" d="M286.498,434.42c4.559,3.653,9.804,6.589,14.792,7.49c9.402,1.716,13.399,0.105,16.132-7.211
		c0,0,1.682-3.361-5.614-6.452c-1.62-0.686-6.091-1.651-7.458-0.151c-1.361,1.503-1.277,3.678-1.616,4.564
		c-0.337,0.882-3.245,0.99-4.293,0.643c-1.357-0.451-4.558-2.122-7.51-4.416l-0.13-0.102c-2.877-2.393-5.192-5.152-5.925-6.384
		c-0.565-0.948-1.092-3.814-0.303-4.332c0.793-0.521,2.939-0.906,4.112-2.56c1.178-1.657-0.738-5.82-1.753-7.251
		c-4.588-6.462-7.51-4.09-7.51-4.09c-6.554,4.239-7.27,8.487-3.574,17.304c1.961,4.678,5.95,9.17,10.502,12.829L286.498,434.42z"/>
	<g>
		<path fill="#969696" d="M320.779,413.026c-0.12,1.753,0.417,2.49,1.237,1.128c0.691-1.223,0.919-3.176,0.103-5.597
			c-1.512-5.152-8.312-10.048-14.974-9.817c-3.53,0.197-2.936,0.61,0.522,0.972c6.191,0.844,11.23,5.292,12.592,9.775
			C320.682,410.765,320.826,411.971,320.779,413.026z"/>
		<path fill="#969696" d="M314.836,412.663c0.271,1.751,0.419,3.086,1.102,3.218c0.657,0.119,1.937-0.814,2.1-2.613
			c0.096-1.174-0.081-2.533-0.672-3.977c-1.681-4.528-7.676-8.517-14.134-8.04c-3.33,0.159-6.052,1.718-6.255,2.069
			c-0.245,0.373,2.155-0.401,5.133-0.345c3.972,0.021,7.9,1.818,10.237,4.55C313.846,409.232,314.602,411.068,314.836,412.663z"/>
		<path fill="#969696" d="M300.954,405.212c-2.627-0.119-5,1.161-4.875,1.609c0.098,0.449,1.605,0.432,3.1,0.466
			c0.889,0.008,1.748,0.121,2.565,0.328c2.638,0.676,4.356,2.175,5.243,3.652c0.848,1.323,1.616,2.738,2.504,3.001
			c0.868,0.265,1.9-0.68,1.501-2.231c-0.463-1.619-1.626-3.437-3.732-4.851C305.516,406.021,303.299,405.291,300.954,405.212z"/>
	</g>
</g>
<g>
	<path fill="#FFFFFF" d="M285.517,431.291c4.559,3.652,9.805,6.588,14.792,7.49c9.402,1.715,13.399,0.104,16.132-7.21
		c0,0,1.682-3.361-5.614-6.454c-1.62-0.686-6.091-1.65-7.458-0.15c-1.361,1.502-1.277,3.678-1.616,4.564
		c-0.337,0.882-3.245,0.99-4.292,0.643c-1.357-0.451-4.558-2.122-7.511-4.417l-0.13-0.102c-2.877-2.392-5.193-5.151-5.925-6.384
		c-0.565-0.948-1.091-3.812-0.303-4.33c0.793-0.521,2.939-0.906,4.112-2.56c1.177-1.658-0.738-5.82-1.753-7.251
		c-4.589-6.462-7.511-4.09-7.511-4.09c-6.554,4.239-7.27,8.487-3.574,17.303c1.96,4.678,5.95,9.17,10.502,12.83L285.517,431.291z"/>
	<g>
		<path fill="#FFFFFF" d="M319.798,409.896c-0.12,1.753,0.417,2.49,1.238,1.129c0.69-1.224,0.918-3.177,0.102-5.597
			c-1.512-5.153-8.312-10.049-14.974-9.817c-3.53,0.197-2.936,0.61,0.522,0.972c6.191,0.843,11.23,5.291,12.593,9.774
			C319.701,407.636,319.846,408.841,319.798,409.896z"/>
		<path fill="#FFFFFF" d="M313.856,409.533c0.271,1.751,0.419,3.086,1.102,3.219c0.657,0.119,1.937-0.815,2.1-2.615
			c0.096-1.173-0.081-2.532-0.672-3.976c-1.681-4.528-7.675-8.517-14.134-8.04c-3.33,0.158-6.051,1.717-6.255,2.068
			c-0.245,0.372,2.155-0.401,5.133-0.345c3.972,0.02,7.9,1.817,10.237,4.549C312.865,406.103,313.621,407.938,313.856,409.533z"/>
		<path fill="#FFFFFF" d="M299.974,402.083c-2.627-0.119-5,1.16-4.875,1.609c0.098,0.449,1.605,0.431,3.1,0.467
			c0.889,0.006,1.748,0.121,2.565,0.326c2.638,0.677,4.356,2.176,5.243,3.653c0.849,1.323,1.616,2.738,2.505,3.001
			c0.867,0.266,1.9-0.679,1.5-2.23c-0.463-1.619-1.626-3.436-3.732-4.851C304.535,402.891,302.319,402.161,299.974,402.083z"/>
	</g>
</g>
</svg>
