<?xml version="1.0" encoding="utf-8"?>
<!-- Generator: Adobe Illustrator 14.0.0, SVG Export Plug-In . SVG Version: 6.00 Build 43363)  -->
<!DOCTYPE svg PUBLIC "-//W3C//DTD SVG 1.1//EN" "http://www.w3.org/Graphics/SVG/1.1/DTD/svg11.dtd">
<svg version="1.1" id="Calque_1" xmlns="http://www.w3.org/2000/svg" xmlns:xlink="http://www.w3.org/1999/xlink" x="0px" y="0px"
	 width="595.28px" height="841.89px" viewBox="0 0 595.28 841.89" enable-background="new 0 0 595.28 841.89" xml:space="preserve">
<g>
	<g>
		<path fill="#969696" d="M80.256,431.196c-11.801,0-21.397-9.601-21.397-21.399c0-3.965,1.095-7.839,3.169-11.209
			c1.337-2.169,3.03-4.066,5.033-5.642l2.175,2.766c-1.676,1.318-3.094,2.907-4.213,4.721c-1.73,2.812-2.646,6.052-2.646,9.364
			c0,9.861,8.022,17.884,17.881,17.884c9.865,0,17.887-8.021,17.887-17.884c0-9.862-8.025-17.884-17.888-17.884v-3.518
			c11.803,0,21.405,9.6,21.405,21.401C101.662,421.595,92.059,431.196,80.256,431.196L80.256,431.196z"/>
	</g>
	<g>
		<polygon fill="#969696" points="66.492,403.217 67.496,394.839 59.115,393.838 63.095,390.709 71.473,391.712 70.47,400.087 		"/>
	</g>
</g>
<g>
	<g>
		<path fill="#FFFFFF" d="M79.06,428.085c-11.801,0-21.397-9.6-21.397-21.399c0-3.965,1.095-7.84,3.169-11.209
			c1.337-2.169,3.03-4.067,5.033-5.642l2.175,2.766c-1.676,1.318-3.094,2.907-4.213,4.721c-1.73,2.812-2.646,6.052-2.646,9.364
			c0,9.861,8.022,17.884,17.881,17.884c9.865,0,17.887-8.021,17.887-17.884s-8.025-17.884-17.888-17.884v-3.518
			c11.803,0,21.405,9.6,21.405,21.401S90.863,428.085,79.06,428.085L79.06,428.085z"/>
	</g>
	<g>
		<polygon fill="#FFFFFF" points="65.296,400.106 66.3,391.729 57.919,390.728 61.899,387.598 70.277,388.601 69.274,396.977 		"/>
	</g>
</g>
</svg>
