<?xml version="1.0" encoding="UTF-8" standalone="no"?>
<svg
   xmlns:sketch="http://www.bohemiancoding.com/sketch/ns"
   xmlns:dc="http://purl.org/dc/elements/1.1/"
   xmlns:cc="http://creativecommons.org/ns#"
   xmlns:rdf="http://www.w3.org/1999/02/22-rdf-syntax-ns#"
   xmlns:svg="http://www.w3.org/2000/svg"
   xmlns="http://www.w3.org/2000/svg"
   xmlns:sodipodi="http://sodipodi.sourceforge.net/DTD/sodipodi-0.dtd"
   xmlns:inkscape="http://www.inkscape.org/namespaces/inkscape"
   width="54"
   height="54"
   viewBox="0 0 54 54"
   version="1.1"
   id="svg4362"
   inkscape:version="0.91 r13725"
   sodipodi:docname="linphone-security-pending.svg"
   inkscape:export-filename="/home/ghislain/code/linphone-desktop/submodules/linphone/pixmaps/security_pending.png"
   inkscape:export-xdpi="33.23"
   inkscape:export-ydpi="33.23">
  <metadata
     id="metadata4379">
    <rdf:RDF>
      <cc:Work
         rdf:about="">
        <dc:format>image/svg+xml</dc:format>
        <dc:type
           rdf:resource="http://purl.org/dc/dcmitype/StillImage" />
        <dc:title>security_pending</dc:title>
      </cc:Work>
    </rdf:RDF>
  </metadata>
  <sodipodi:namedview
     pagecolor="#ffffff"
     bordercolor="#666666"
     borderopacity="1"
     objecttolerance="10"
     gridtolerance="10"
     guidetolerance="10"
     inkscape:pageopacity="0"
     inkscape:pageshadow="2"
     inkscape:window-width="1920"
     inkscape:window-height="1141"
     id="namedview4377"
     showgrid="false"
     inkscape:zoom="8.9907407"
     inkscape:cx="23.5"
     inkscape:cy="26.972194"
     inkscape:window-x="0"
     inkscape:window-y="0"
     inkscape:window-maximized="1"
     inkscape:current-layer="svg4362" />
  <!-- Generator: Sketch 3.3.3 (12081) - http://www.bohemiancoding.com/sketch -->
  <title
     id="title4364">security_pending</title>
  <desc
     id="desc4366">Created with Sketch.</desc>
  <defs
     id="defs4368" />
  <g
     style="fill:none;fill-rule:evenodd;stroke:#444444;stroke-width:1;stroke-opacity:1"
     sketch:type="MSShapeGroup"
     transform="translate(6,2)"
     id="security_pending-copy">
    <path
       inkscape:connector-curvature="0"
       style="stroke:#444444;stroke-width:4;stroke-linecap:round;stroke-linejoin:round;stroke-opacity:1"
       id="Imported-Layers"
       d="m 0,17.576054 42.222222,0 0,32.423946 L 0,50 0,17.576054 Z m 35.905033,-0.06371 0,-3.959135 C 35.905033,6.0672598 29.281111,0 21.108627,0 12.941111,0 6.3159477,6.0672598 6.3159477,13.553209 l 0,3.959135 29.5890853,0 z" />
    <path
       inkscape:connector-curvature="0"
       style="fill:#ffffff;stroke:#444444;stroke-opacity:1"
       id="?"
       d="m 28.111928,28.930556 c 0,1.240746 -0.17075,2.185182 -0.512255,2.833333 -0.341505,0.648151 -1.040027,1.342589 -2.095588,2.083333 -1.055561,0.740745 -1.754083,1.328702 -2.095588,1.763889 -0.341505,0.435187 -0.512255,0.902775 -0.512255,1.402778 l 0,0.916667 -2.732026,0 c -0.496735,-0.574077 -0.745098,-1.296292 -0.745098,-2.166667 0,-0.462965 0.196621,-0.925924 0.589869,-1.388889 0.393248,-0.462965 1.096945,-1.069441 2.111111,-1.819444 1.014166,-0.750004 1.686818,-1.333332 2.017974,-1.75 0.331156,-0.416669 0.496732,-0.96759 0.496732,-1.652778 0,-1.351859 -1.096939,-2.027778 -3.29085,-2.027778 -1.241836,0 -2.545745,0.129628 -3.911765,0.388889 l -0.714052,0.138889 -0.186274,-2.305556 c 1.924846,-0.611114 3.673739,-0.916666 5.246732,-0.916666 2.173213,0 3.772053,0.356477 4.796568,1.069444 1.024515,0.712966 1.536765,1.856474 1.536765,3.430556 l 0,0 z m -8.47549,14.833333 0,-3.888889 3.601307,0 0,3.888889 -3.601307,0 z" />
  </g>
</svg>
