<?xml version="1.0" encoding="utf-8"?>
<!-- Generator: Adobe Illustrator 14.0.0, SVG Export Plug-In . SVG Version: 6.00 Build 43363)  -->
<!DOCTYPE svg PUBLIC "-//W3C//DTD SVG 1.1//EN" "http://www.w3.org/Graphics/SVG/1.1/DTD/svg11.dtd">
<svg version="1.1" id="Calque_2" xmlns="http://www.w3.org/2000/svg" xmlns:xlink="http://www.w3.org/1999/xlink" x="0px" y="0px"
	 width="512px" height="512px" viewBox="0 0 512 512" enable-background="new 0 0 512 512" xml:space="preserve">
<g>
	<g>
		<path fill="#C95328" d="M512,433.229C512,476.562,476.557,512,433.228,512H78.768C35.452,512,0,476.562,0,433.229V78.763
			C0,35.43,35.452,0,78.768,0h354.46C476.557,0,512,35.43,512,78.763V433.229z"/>
		<linearGradient id="SVGID_1_" gradientUnits="userSpaceOnUse" x1="256.0044" y1="498.877" x2="256.0044" y2="13.1323">
			<stop  offset="0" style="stop-color:#E6B043"/>
			<stop  offset="0.5" style="stop-color:#C95328"/>
		</linearGradient>
		<path fill="url(#SVGID_1_)" d="M78.768,498.877c-36.188,0-65.632-29.438-65.632-65.648V78.763
			c0-36.21,29.443-65.631,65.632-65.631h354.46c36.202,0,65.645,29.421,65.645,65.631v354.465c0,36.21-29.443,65.648-65.645,65.648
			H78.768z"/>
	</g>
	<g>
		<g>
			<g>
				<path fill="#C95328" d="M473.412,129.19c4.022,16.057,11.006,21.111,14.433,6.539c2.626-12.988-0.907-31.173-15.294-50.564
					c-28.484-41.915-103.78-66.186-162.935-44.793c-31.137,11.984-24.661,13.922,7.499,7.175
					c58.118-10.362,116.214,15.009,141.418,51.351C466.034,109.169,470.832,119.557,473.412,129.19z"/>
				<path fill="#C95328" d="M419.015,143.098c7.494,14.941,12.717,26.531,19.203,25.729c6.259-0.803,15.077-12.937,11.313-29.547
					c-2.509-10.809-8.09-22.524-17.543-33.749c-28.203-35.815-93.65-54.292-150.259-31.286
					c-29.453,11.077-49.386,32.979-50.211,36.716c-1.109,4.036,18.227-9.882,45.146-18.015
					c35.711-11.303,76.217-6.516,105.15,11.224C400.18,115.171,412.271,129.452,419.015,143.098z"/>
				<path fill="#C95328" d="M272.768,116.451c-23.938,6.501-41.564,24.912-39.126,28.578c2.162,3.725,15.671-0.811,29.184-4.844
					c8.038-2.487,16.081-3.953,23.938-4.465c25.749-1.574,45.468,6.943,57.738,17.625c11.416,9.433,22.448,19.878,31.148,19.694
					c8.566-0.117,15.136-11.611,7.022-24.39c-8.806-13.192-24.526-26.198-47.588-32.772
					C316.077,110.415,294.023,110.359,272.768,116.451z"/>
			</g>
		</g>
		<g>
			<g>
				<path fill="#FFFFFF" d="M471.9,135.938c4.029,16.063,11.007,21.124,14.451,6.533c2.614-12.977-0.917-31.161-15.322-50.563
					c-28.482-41.924-103.761-66.172-162.917-44.792c-31.146,11.995-24.653,13.946,7.502,7.184
					c58.08-10.377,116.211,14.988,141.407,51.347C464.529,115.924,469.323,126.286,471.9,135.938z"/>
				<path fill="#FFFFFF" d="M417.504,149.867c7.505,14.928,12.724,26.518,19.188,25.708c6.278-0.797,15.089-12.928,11.332-29.564
					c-2.513-10.809-8.095-22.504-17.548-33.728C402.261,76.469,336.838,58,280.209,81.002
					c-29.433,11.073-49.345,32.962-50.192,36.706c-1.089,4.03,18.224-9.864,45.125-17.983c35.73-11.315,76.235-6.557,105.167,11.199
					C398.668,121.933,410.762,136.223,417.504,149.867z"/>
				<path fill="#FFFFFF" d="M271.267,123.201c-23.948,6.485-41.572,24.917-39.134,28.582c2.168,3.729,15.69-0.8,29.175-4.826
					c8.052-2.511,16.09-3.969,23.948-4.463c25.726-1.586,45.473,6.911,57.743,17.604c11.416,9.432,22.457,19.879,31.142,19.694
					c8.571-0.115,15.134-11.604,7.032-24.405c-8.817-13.18-24.553-26.163-47.588-32.739
					C314.582,117.183,292.515,117.094,271.267,123.201z"/>
			</g>
		</g>
	</g>
	<path fill="none" d="M78.768,499.246c-36.188,0-65.632-29.439-65.632-65.649V79.132c0-36.211,29.443-65.632,65.632-65.632h354.46
		c36.202,0,65.645,29.421,65.645,65.632v354.465c0,36.21-29.443,65.649-65.645,65.649H78.768z"/>
	<g>
		<path fill="#C95328" d="M137.141,473.474c29.627,7.798,61.013,10.667,86.881,4.377c48.737-11.859,64.443-28.113,61.93-68.991
			c0,0,0.908-19.719-40.68-18.982c-9.21,0.167-32.732,5.088-36.07,15.193c-3.342,10.114,1.719,20.368,1.991,25.324
			s-13.443,11.676-19.206,12.246c-7.496,0.736-26.381-0.456-45.438-5.158l-0.82-0.211c-18.89-5.324-35.903-13.613-42.053-17.955
			c-4.732-3.343-13.342-15.948-10.658-20.132c2.684-4.176,12.149-10.597,14.237-21.035c2.088-10.438-15.934-26.333-23.864-31.026
			c-35.798-21.185-44.75-3.579-44.75-3.579c-22.373,34.308-16.737,56.193,19.789,90.57c19.386,18.245,48.101,31.245,77.711,39.097
			L137.141,473.474z"/>
		<path fill="#FFFFFF" d="M135.768,478.956c29.632,7.799,61.018,10.667,86.882,4.368c48.741-11.851,64.447-28.104,61.93-68.982
			c0,0,0.912-19.728-40.676-18.982c-9.215,0.167-32.732,5.079-36.074,15.193c-3.338,10.114,1.719,20.368,1.996,25.324
			c0.272,4.956-13.443,11.676-19.21,12.246c-7.491,0.736-26.382-0.456-45.435-5.158l-0.82-0.21
			c-18.891-5.325-35.904-13.614-42.057-17.956c-4.728-3.343-13.342-15.957-10.658-20.132c2.689-4.176,12.149-10.597,14.241-21.035
			c2.088-10.447-15.938-26.333-23.868-31.026c-35.794-21.185-44.746-3.588-44.746-3.588c-22.373,34.307-16.737,56.193,19.79,90.579
			c19.386,18.236,48.097,31.245,77.71,39.097L135.768,478.956z"/>
	</g>
	<path fill="#C95328" d="M301.623,271.947l29.996-80.491l-103.663,42.298c-2.732-0.666-5.474-1.368-7.509-2.052
		c-26.605-8.176-51.837-11.605-76.395-12.264c-32.062,0.658-61.403,5.438-87.325,15c-16.438,6.843-30.881,15.378-43.658,25.491
		v45.518c2.197-2.176,4.412-4.324,6.815-6.201c12.97-10.264,26.605-17.729,40.943-23.211c14.329-4.771,27.969-8.167,40.921-10.229
		c12.29-1.351,21.838-2.719,27.978-2.719c22.513,0,45.026,3.412,66.833,9.544c22.513,6.149,43.675,15.685,62.754,27.947
		c18.443,12.982,34.127,28.667,45.724,47.745c6.833,11.614,11.596,21.869,15,32.79c3.408,10.22,5.447,20.456,5.447,30
		c-0.667,19.097-6.811,37.526-19.096,53.877c-9.505,14.026-23.207,25.22-40.601,34.447h51.587
		c7.053-5.859,14.189-12.649,21.759-20.78c8.189-9.535,15.698-21.132,21.163-34.816c6.123-13.631,9.54-28.64,9.54-44.99
		c-0.697-28.658-7.509-54.605-21.847-77.088C335.719,302.632,320.04,285.605,301.623,271.947z"/>
	<path fill="#FFFFFF" d="M299.688,280.614l30.004-80.518l-103.662,42.289c-2.732-0.675-5.474-1.351-7.509-2.044
		c-26.605-8.184-51.833-11.604-76.399-12.254c-32.066,0.649-61.399,5.438-87.32,14.982c-15.759,6.579-29.645,14.729-42.035,24.281
		v45.245c1.71-1.605,3.36-3.298,5.188-4.72c12.974-10.254,26.605-17.71,40.938-23.184c14.338-4.781,27.974-8.185,40.926-10.255
		c12.29-1.333,21.838-2.719,27.978-2.719c22.518,0,45.026,3.43,66.829,9.544c22.513,6.157,43.684,15.701,62.763,27.982
		c18.438,12.947,34.127,28.648,45.715,47.728c6.824,11.614,11.605,21.833,15.009,32.78c3.408,10.211,5.447,20.457,5.447,29.992
		c-0.667,19.113-6.816,37.535-19.097,53.912c-6.623,9.754-15.324,18.131-25.842,25.456h46.868
		c3.825-3.632,7.702-7.509,11.719-11.825c8.189-9.518,15.693-21.131,21.158-34.78c6.118-13.649,9.543-28.658,9.543-45.009
		c-0.697-28.693-7.509-54.605-21.851-77.088C333.794,311.281,318.114,294.237,299.688,280.614z"/>
</g>
</svg>
