<?xml version="1.0" encoding="UTF-8" standalone="no"?>
<!-- Generator: Adobe Illustrator 14.0.0, SVG Export Plug-In . SVG Version: 6.00 Build 43363)  -->

<svg
   xmlns:dc="http://purl.org/dc/elements/1.1/"
   xmlns:cc="http://creativecommons.org/ns#"
   xmlns:rdf="http://www.w3.org/1999/02/22-rdf-syntax-ns#"
   xmlns:svg="http://www.w3.org/2000/svg"
   xmlns="http://www.w3.org/2000/svg"
   xmlns:sodipodi="http://sodipodi.sourceforge.net/DTD/sodipodi-0.dtd"
   xmlns:inkscape="http://www.inkscape.org/namespaces/inkscape"
   version="1.1"
   id="Calque_1"
   x="0px"
   y="0px"
   width="128"
   height="128"
   viewBox="0 0 127.99999 128"
   enable-background="new 0 0 595.28 841.89"
   xml:space="preserve"
   inkscape:version="0.91 r13725"
   sodipodi:docname="linphone-status-offline.svg"
   inkscape:export-filename="/home/francois/projects/linphone/linphone/pixmaps/linphone-status-offline.png"
   inkscape:export-xdpi="33.75"
   inkscape:export-ydpi="33.75"><metadata
     id="metadata32"><rdf:RDF><cc:Work
         rdf:about=""><dc:format>image/svg+xml</dc:format><dc:type
           rdf:resource="http://purl.org/dc/dcmitype/StillImage" /><dc:title></dc:title></cc:Work></rdf:RDF></metadata><defs
     id="defs30" /><sodipodi:namedview
     pagecolor="#ffffff"
     bordercolor="#666666"
     borderopacity="1"
     objecttolerance="10"
     gridtolerance="10"
     guidetolerance="10"
     inkscape:pageopacity="0"
     inkscape:pageshadow="2"
     inkscape:window-width="1366"
     inkscape:window-height="709"
     id="namedview28"
     showgrid="false"
     inkscape:zoom="3.1714775"
     inkscape:cx="79.203285"
     inkscape:cy="64.65177"
     inkscape:window-x="-4"
     inkscape:window-y="0"
     inkscape:window-maximized="1"
     inkscape:current-layer="Calque_1" /><g
     id="g3"
     transform="matrix(5.040476,0,0,5.0235384,-1659.1028,-2084.4341)"><g
       id="g5"><g
         id="g7"><g
           id="g9"><path
             d="m 335.215,428.953 c 0,-0.83 0.577,-1.451 1.385,-1.451 0.809,0 1.361,0.598 1.361,1.451 0,0.832 -0.552,1.455 -1.407,1.455 -0.784,0 -1.339,-0.623 -1.339,-1.455 z"
             id="path11"
             inkscape:connector-curvature="0"
             style="fill:#9b9c9e" /><path
             d="m 339.993,428.953 c 0,-0.83 0.577,-1.451 1.384,-1.451 0.808,0 1.362,0.598 1.362,1.451 0,0.832 -0.554,1.455 -1.408,1.455 -0.784,0 -1.338,-0.623 -1.338,-1.455 z"
             id="path13"
             inkscape:connector-curvature="0"
             style="fill:#9b9c9e" /><path
             d="m 344.772,428.953 c 0,-0.83 0.576,-1.451 1.385,-1.451 0.808,0 1.36,0.598 1.36,1.451 0,0.832 -0.552,1.455 -1.406,1.455 -0.786,0 -1.339,-0.623 -1.339,-1.455 z"
             id="path15"
             inkscape:connector-curvature="0"
             style="fill:#9b9c9e" /></g></g></g><g
       id="g17"><linearGradient
         id="SVGID_1_"
         gradientUnits="userSpaceOnUse"
         x1="330.14771"
         y1="418.40039"
         x2="354.26331"
         y2="411.9386"
         gradientTransform="matrix(1,0,0,-1,0.1401,841.835)"><stop
           offset="0.15"
           style="stop-color:#9B9C9E"
           id="stop20" /><stop
           offset="0.35"
           style="stop-color:#F4F7EE"
           id="stop22" /><stop
           offset="0.55"
           style="stop-color:#9B9C9E"
           id="stop24" /></linearGradient><path
         d="m 335.287,437.025 c 0.779,0.367 1.694,0.773 3.041,1.102 1.43,0.311 2.856,0.531 4.409,0.49 1.632,-0.082 2.448,-0.246 3.755,-0.572 1.184,-0.367 1.755,-0.572 2.693,-1.061 0.409,-0.205 0.734,-0.408 1.552,-0.98 0.532,-0.41 1.143,-0.898 1.729,-1.725 0.493,-0.574 0.985,-1.559 1.313,-2.381 0.369,-0.818 0.573,-1.721 0.573,-2.703 -0.042,-1.725 -0.451,-3.285 -1.312,-4.637 -0.741,-1.148 -1.686,-2.174 -2.791,-2.994 l 1.805,-4.839 -6.231,2.542 c -0.165,-0.041 -0.328,-0.082 -0.452,-0.124 -1.602,-0.491 -3.118,-0.696 -4.594,-0.738 -1.93,0.042 -3.691,0.329 -5.25,0.902 -1.479,0.616 -2.707,1.437 -3.692,2.501 -0.983,1.107 -2,2.816 -2.245,4.336 -0.364,1.896 -0.266,3.164 0.021,4.311 0.329,1.15 0.689,2.059 1.491,3.221 0.872,1.002 1.264,1.426 1.999,2 0.9,0.654 1.489,0.978 2.186,1.349 z m 3.317,-0.942 c -1.146,-0.328 -2.051,-0.656 -2.705,-1.027 -0.576,-0.328 -1.233,-0.777 -1.89,-1.312 -0.614,-0.531 -1.188,-1.146 -1.682,-1.926 -0.532,-0.738 -0.86,-1.602 -1.024,-2.584 -0.205,-1.438 -0.123,-2.666 0.286,-3.652 0.409,-0.984 0.983,-1.807 1.724,-2.381 0.778,-0.615 1.599,-1.064 2.463,-1.395 0.859,-0.287 1.681,-0.489 2.46,-0.614 0.737,-0.082 1.312,-0.164 1.682,-0.164 1.354,0 2.706,0.205 4.019,0.571 1.354,0.369 2.629,0.943 3.775,1.684 1.107,0.777 2.051,1.723 2.748,2.871 0.41,0.697 0.698,1.314 0.901,1.973 0.205,0.615 0.328,1.229 0.328,1.803 -0.041,1.148 -0.409,2.256 -1.147,3.24 -0.696,1.027 -1.764,1.807 -3.157,2.42 -1.354,0.658 -2.953,0.945 -4.799,0.945 -1.52,0.002 -2.833,-0.164 -3.982,-0.452 z"
         id="path26"
         inkscape:connector-curvature="0"
         style="fill:url(#SVGID_1_)" /></g></g></svg>