<?xml version="1.0" encoding="UTF-8" standalone="no"?>
<!-- Generator: Adobe Illustrator 14.0.0, SVG Export Plug-In . SVG Version: 6.00 Build 43363)  -->

<svg
   xmlns:dc="http://purl.org/dc/elements/1.1/"
   xmlns:cc="http://creativecommons.org/ns#"
   xmlns:rdf="http://www.w3.org/1999/02/22-rdf-syntax-ns#"
   xmlns:svg="http://www.w3.org/2000/svg"
   xmlns="http://www.w3.org/2000/svg"
   xmlns:sodipodi="http://sodipodi.sourceforge.net/DTD/sodipodi-0.dtd"
   xmlns:inkscape="http://www.inkscape.org/namespaces/inkscape"
   version="1.1"
   id="Calque_1"
   x="0px"
   y="0px"
   width="128"
   height="128"
   viewBox="0 0 127.99999 128"
   enable-background="new 0 0 595.28 841.89"
   xml:space="preserve"
   inkscape:version="0.91 r13725"
   sodipodi:docname="linphone-status-donotdisturb.svg"
   inkscape:export-filename="/home/francois/projects/linphone/linphone/pixmaps/linphone-status-donotdisturb.png"
   inkscape:export-xdpi="33.75"
   inkscape:export-ydpi="33.75"><metadata
     id="metadata32"><rdf:RDF><cc:Work
         rdf:about=""><dc:format>image/svg+xml</dc:format><dc:type
           rdf:resource="http://purl.org/dc/dcmitype/StillImage" /><dc:title></dc:title></cc:Work></rdf:RDF></metadata><defs
     id="defs30" /><sodipodi:namedview
     pagecolor="#ffffff"
     bordercolor="#666666"
     borderopacity="1"
     objecttolerance="10"
     gridtolerance="10"
     guidetolerance="10"
     inkscape:pageopacity="0"
     inkscape:pageshadow="2"
     inkscape:window-width="1366"
     inkscape:window-height="709"
     id="namedview28"
     showgrid="false"
     inkscape:zoom="2.2425732"
     inkscape:cx="41.637912"
     inkscape:cy="36.440083"
     inkscape:window-x="-4"
     inkscape:window-y="0"
     inkscape:window-maximized="1"
     inkscape:current-layer="Calque_1" /><g
     id="g3"
     transform="matrix(5.039991,0,0,5.0235343,-1358.2148,-2084.4323)"><g
       id="g5"><g
         id="g7"><g
           id="g9"><linearGradient
             id="SVGID_1_"
             gradientUnits="userSpaceOnUse"
             x1="270.4812"
             y1="418.40189"
             x2="294.59821"
             y2="411.93979"
             gradientTransform="matrix(1,0,0,-1,0.1401,841.835)"><stop
               offset="0.15"
               style="stop-color:#C1001F"
               id="stop12" /><stop
               offset="0.35"
               style="stop-color:#F4F7EE"
               id="stop14" /><stop
               offset="0.55"
               style="stop-color:#C1001F"
               id="stop16" /></linearGradient><path
             d="m 275.621,437.025 c 0.779,0.367 1.693,0.773 3.042,1.102 1.429,0.312 2.856,0.531 4.407,0.49 1.634,-0.082 2.449,-0.246 3.756,-0.572 1.184,-0.367 1.755,-0.572 2.693,-1.061 0.41,-0.205 0.735,-0.408 1.551,-0.98 0.533,-0.41 1.144,-0.898 1.729,-1.725 0.494,-0.574 0.986,-1.559 1.313,-2.379 0.369,-0.82 0.574,-1.723 0.574,-2.705 -0.042,-1.725 -0.452,-3.285 -1.312,-4.637 -0.74,-1.148 -1.685,-2.174 -2.791,-2.994 l 1.804,-4.839 -6.231,2.542 c -0.165,-0.041 -0.328,-0.082 -0.453,-0.124 -1.602,-0.491 -3.118,-0.696 -4.594,-0.737 -1.929,0.041 -3.691,0.328 -5.25,0.902 -1.478,0.616 -2.707,1.437 -3.691,2.502 -0.984,1.107 -2,2.816 -2.246,4.336 -0.365,1.896 -0.266,3.164 0.021,4.311 0.328,1.148 0.69,2.059 1.492,3.221 0.872,1.002 1.263,1.426 2,2 0.9,0.652 1.488,0.978 2.186,1.347 z m 3.317,-0.942 c -1.147,-0.326 -2.051,-0.656 -2.707,-1.027 -0.576,-0.328 -1.232,-0.777 -1.889,-1.312 -0.614,-0.531 -1.189,-1.146 -1.682,-1.926 -0.532,-0.738 -0.86,-1.602 -1.025,-2.584 -0.205,-1.438 -0.123,-2.666 0.286,-3.652 0.41,-0.984 0.982,-1.807 1.723,-2.381 0.78,-0.615 1.6,-1.064 2.462,-1.395 0.861,-0.287 1.682,-0.489 2.461,-0.614 0.737,-0.081 1.312,-0.164 1.682,-0.164 1.354,0 2.707,0.205 4.019,0.571 1.355,0.371 2.628,0.943 3.775,1.684 1.107,0.777 2.051,1.723 2.749,2.871 0.41,0.697 0.696,1.314 0.9,1.973 0.205,0.615 0.328,1.229 0.328,1.803 -0.041,1.148 -0.41,2.256 -1.147,3.24 -0.697,1.027 -1.764,1.807 -3.157,2.42 -1.354,0.658 -2.954,0.945 -4.799,0.945 -1.519,0.002 -2.83,-0.162 -3.979,-0.452 z"
             id="path18"
             inkscape:connector-curvature="0"
             style="fill:url(#SVGID_1_)" /></g></g></g><g
       id="g20"><g
         id="g22"><g
           id="g24"><path
             d="m 278.634,424.73 1.763,1.768 c 0.483,0.463 0.867,0.867 1.274,1.326 l 0.051,0 c 0.407,-0.473 0.816,-0.898 1.25,-1.34 l 1.709,-1.75 2.449,0 -4.21,3.979 4.312,4.252 -2.525,0 -1.836,-1.854 c -0.486,-0.479 -0.895,-0.938 -1.326,-1.428 l -0.054,0 c -0.408,0.49 -0.816,0.936 -1.3,1.428 l -1.784,1.854 -2.477,0 4.388,-4.201 -4.185,-4.027 2.502,0 -10e-4,-0.007 0,0 z"
             id="path26"
             inkscape:connector-curvature="0"
             style="fill:#c1001f" /></g></g></g></g></svg>