<?xml version="1.0" encoding="UTF-8" standalone="no"?>
<svg width="100px" height="86px" viewBox="0 0 100 86" version="1.1" xmlns="http://www.w3.org/2000/svg" xmlns:xlink="http://www.w3.org/1999/xlink" xmlns:sketch="http://www.bohemiancoding.com/sketch/ns">
    <!-- Generator: Sketch 3.3.3 (12081) - http://www.bohemiancoding.com/sketch -->
    <title>contact_add</title>
    <desc>Created with Sketch.</desc>
    <defs></defs>
    <g id="OUTILS" stroke="none" stroke-width="1" fill="none" fill-rule="evenodd" sketch:type="MSPage">
        <g id="linphone_v2.0_icones_buttons" sketch:type="MSArtboardGroup" transform="translate(-1436.000000, -8040.000000)">
            <g id="contact_add" sketch:type="MSLayerGroup" transform="translate(1426.000000, 8023.000000)">
                <g id="add_contact" transform="translate(12.000000, 19.000000)" stroke="#444444" stroke-width="5" sketch:type="MSShapeGroup" stroke-linecap="round" stroke-linejoin="round">
                    <path d="M64.4082749,62.4977661 C71.4592749,69.5867661 82.8872749,69.5827661 89.9382749,62.4977661 C96.9902749,55.4087661 96.9902749,43.9247661 89.9382749,36.8367661 C82.8872749,29.7527661 71.4592749,29.7487661 64.4082749,36.8367661 C57.3582749,43.9217661 57.3582749,55.4127661 64.4082749,62.4977661 L64.4082749,62.4977661 Z M77.1442749,57.5577661 L77.1442749,41.7397661 L77.1442749,57.5577661 Z M85.0032749,49.6527661 L69.2772749,49.6497661 L85.0032749,49.6527661 Z M81.1602749,67.5947661 C81.3382749,72.2657661 80.2402749,75.4137661 80.2402749,75.4137661 C59.7252749,81.9487661 41.2112749,80.9447661 41.2112749,80.9447661 L40.7402749,80.9447661 C40.7402749,80.9447661 22.2272749,81.9487661 1.71127485,75.4137661 C1.71127485,75.4137661 -6.45672515,51.9927661 25.3992749,38.0597661 L26.2762749,37.4667661 C25.7292749,36.9887661 25.9242749,37.0817661 25.4302749,36.5507661 C21.9122749,32.7737661 19.7562749,27.6987661 19.7562749,22.1177661 C19.7562749,10.4547661 29.1662749,0.99976614 40.7742749,0.99976614 L41.1782749,0.99976614 C52.7852749,0.99976614 62.1952749,10.4547661 62.1952749,22.1177661 C62.1952749,27.6987661 60.0412749,32.7737661 56.5222749,36.5507661 C56.0282749,37.0817661 56.2212749,36.9887661 55.6762749,37.4667661 L56.5532749,38.0597661 C57.187901,38.3379988 61.6047564,40.9939068 61.6047564,40.9939068" id="Add-contact-ICON"></path>
                </g>
                <rect id="Rectangle-232-Copy-31" opacity="0" fill-opacity="0.7" fill="#FFFFFF" sketch:type="MSShapeGroup" x="0" y="0" width="120" height="120"></rect>
            </g>
        </g>
    </g>
</svg>