<?xml version="1.0" encoding="utf-8"?>
<!-- Generator: Adobe Illustrator 14.0.0, SVG Export Plug-In . SVG Version: 6.00 Build 43363)  -->
<!DOCTYPE svg PUBLIC "-//W3C//DTD SVG 1.1//EN" "http://www.w3.org/Graphics/SVG/1.1/DTD/svg11.dtd">
<svg version="1.1" id="Calque_1" xmlns="http://www.w3.org/2000/svg" xmlns:xlink="http://www.w3.org/1999/xlink" x="0px" y="0px"
	 width="595.28px" height="841.89px" viewBox="0 0 595.28 841.89" enable-background="new 0 0 595.28 841.89" xml:space="preserve">
<g>
	<g>
		<path fill="#C9542A" d="M367.616,405.361c0.387,1.542,1.054,2.026,1.384,0.628c0.251-1.245-0.089-2.991-1.47-4.851
			c-2.733-4.02-9.952-6.346-15.627-4.295c-2.988,1.151-2.362,1.339,0.721,0.69c5.571-0.995,11.144,1.438,13.562,4.923
			C366.908,403.443,367.366,404.438,367.616,405.361z"/>
		<path fill="#C9542A" d="M362.396,406.698c0.721,1.433,1.22,2.546,1.843,2.468c0.6-0.077,1.444-1.24,1.085-2.836
			c-0.241-1.035-0.777-2.158-1.683-3.237c-2.708-3.433-8.981-5.205-14.412-3c-2.827,1.063-4.735,3.162-4.816,3.522
			c-0.106,0.385,1.749-0.947,4.329-1.726c3.426-1.087,7.312-0.629,10.086,1.075C360.59,404.02,361.75,405.39,362.396,406.698z"/>
		<path fill="#C9542A" d="M348.369,404.139c-2.296,0.625-3.986,2.391-3.754,2.742c0.209,0.36,1.506-0.075,2.8-0.462
			c0.771-0.241,1.542-0.381,2.297-0.429c2.468-0.151,4.362,0.665,5.538,1.69c1.096,0.905,2.154,1.908,2.987,1.889
			c0.822-0.012,1.452-1.112,0.673-2.339c-0.844-1.265-2.354-2.51-4.562-3.142C352.524,403.564,350.409,403.554,348.369,404.139z"/>
	</g>
</g>
<g>
	<path fill="#C9542A" d="M192.024,433.35v-15.645h-3.129v15.645c0,0.945,0.289,1.889,0.773,2.747
		c0.965-0.255,1.97-0.506,3.014-0.753C192.03,434.448,192.024,433.35,192.024,433.35z"/>
	<rect x="224.093" y="411.447" fill="#C9542A" width="3.129" height="3.129"/>
	<path fill="#C9542A" d="M227.222,417.705h-9.387v3.129h6.258v9.487c1.032-0.112,2.073-0.223,3.129-0.331V417.705z"/>
	<path fill="#C9542A" d="M243.646,420.834h12.516c0.538,0,3.129,0,3.129,3.129v3.699c1.037-0.049,2.08-0.096,3.129-0.141v-3.559
		c0-3.129-3.129-6.258-6.258-6.258h-15.645v11.105c1.034-0.079,2.078-0.155,3.129-0.229V420.834z"/>
	<path fill="#407CB9" d="M269.457,420.834h12.516c3.129,0,3.129,3.129,3.129,3.129v2.937c1.039-0.014,2.082-0.024,3.129-0.034
		v-2.902c0-3.129-3.129-6.258-6.258-6.258h-15.645v9.662c1.038-0.038,2.081-0.075,3.129-0.109V420.834z"/>
	<path fill="#407CB9" d="M295.269,420.834h12.516c3.129,0,3.129,3.129,3.129,3.129v3.006c1.047,0.02,2.09,0.041,3.129,0.064v-3.119
		c0-3.031-3.031-6.209-6.16-6.209h-12.613v-6.258h-3.129v15.391c1.04-0.005,2.083-0.007,3.129-0.008V420.834z"/>
	<path fill="#407CB9" d="M363.207,420.834h12.516c0.537,0,3.129,0,3.129,3.129v7.766c1.059,0.147,2.105,0.298,3.129,0.45v-8.216
		c0-3.129-3.129-6.258-6.258-6.258h-15.645v11.87c1.054,0.099,2.097,0.199,3.129,0.302V420.834z"/>
	<path fill="#407CB9" d="M389.018,430.221h12.516c3.129,0,6.258-3.129,6.258-6.258s-3.08-6.258-6.209-6.258h-9.436
		c-3.178,0-6.258,3.129-6.258,6.258v8.83c1.067,0.175,2.107,0.354,3.129,0.535V430.221z M389.018,423.963
		c0-3.08,3.129-3.129,3.129-3.129h9.387c0,0,3.178,0.049,3.178,3.129c0,2.982-3.324,3.129-3.324,3.129h-12.369V423.963z"/>
	<path fill="#407CB9" d="M407.791,433.398h-3.08c0,0-0.078,2.261-2.042,2.906c1.232,0.335,2.396,0.677,3.488,1.024
		C407.147,436.215,407.791,434.813,407.791,433.398z"/>
	<path fill="#C9542A" d="M195.153,439.607h15.645v-3.129h-15.645c-1.273,0-2.023-0.52-2.471-1.135
		c-1.043,0.247-2.048,0.498-3.014,0.753C190.789,438.081,192.969,439.607,195.153,439.607z"/>
	<path opacity="0.3" fill="#FFFFFF" d="M195.153,439.607h15.645v-3.129h-15.645c-1.273,0-2.023-0.52-2.471-1.135
		c-1.043,0.247-2.048,0.498-3.014,0.753C190.789,438.081,192.969,439.607,195.153,439.607z"/>
	<path fill="#C9542A" d="M214.707,436.479v3.129h21.902v-3.129h-9.387v-6.488c-1.056,0.108-2.097,0.219-3.129,0.331v6.157H214.707z"
		/>
	<path opacity="0.3" fill="#FFFFFF" d="M214.707,436.479v3.129h21.902v-3.129h-9.387v-6.488c-1.056,0.108-2.097,0.219-3.129,0.331
		v6.157H214.707z"/>
	<path fill="#C9542A" d="M259.291,439.607h3.129v-12.086c-1.049,0.045-2.092,0.092-3.129,0.141V439.607z"/>
	<path opacity="0.3" fill="#FFFFFF" d="M259.291,439.607h3.129v-12.086c-1.049,0.045-2.092,0.092-3.129,0.141V439.607z"/>
	<path fill="#C9542A" d="M243.646,439.607v-11.026c-1.051,0.074-2.095,0.15-3.129,0.229v10.797H243.646z"/>
	<path opacity="0.3" fill="#FFFFFF" d="M243.646,439.607v-11.026c-1.051,0.074-2.095,0.15-3.129,0.229v10.797H243.646z"/>
	<path fill="#407CB9" d="M269.457,445.865v-6.258h12.516c3.129,0,6.258-3.129,6.258-6.258v-6.484
		c-1.047,0.01-2.09,0.021-3.129,0.034v6.45c0,0,0.049,3.129-3.129,3.129h-12.516v-9.221c-1.048,0.034-2.091,0.071-3.129,0.109
		v18.498H269.457z"/>
	<path opacity="0.3" fill="#FFFFFF" d="M269.457,445.865v-6.258h12.516c3.129,0,6.258-3.129,6.258-6.258v-6.484
		c-1.047,0.01-2.09,0.021-3.129,0.034v6.45c0,0,0.049,3.129-3.129,3.129h-12.516v-9.221c-1.048,0.034-2.091,0.071-3.129,0.109
		v18.498H269.457z"/>
	<path fill="#407CB9" d="M295.269,439.607V426.83c-1.046,0.001-2.089,0.003-3.129,0.008v12.77H295.269z"/>
	<path opacity="0.3" fill="#FFFFFF" d="M295.269,439.607V426.83c-1.046,0.001-2.089,0.003-3.129,0.008v12.77H295.269z"/>
	<path fill="#407CB9" d="M310.913,439.607h3.129v-12.574c-1.039-0.023-2.082-0.045-3.129-0.064V439.607z"/>
	<path opacity="0.3" fill="#FFFFFF" d="M310.913,439.607h3.129v-12.574c-1.039-0.023-2.082-0.045-3.129-0.064V439.607z"/>
	<path fill="#407CB9" d="M363.207,439.607v-9.73c-1.032-0.103-2.075-0.203-3.129-0.302v10.032H363.207z"/>
	<path opacity="0.3" fill="#FFFFFF" d="M363.207,439.607v-9.73c-1.032-0.103-2.075-0.203-3.129-0.302v10.032H363.207z"/>
	<path fill="#407CB9" d="M378.852,439.607h3.129v-7.429c-1.023-0.152-2.07-0.303-3.129-0.45V439.607z"/>
	<path opacity="0.3" fill="#FFFFFF" d="M378.852,439.607h3.129v-7.429c-1.023-0.152-2.07-0.303-3.129-0.45V439.607z"/>
	<path fill="#407CB9" d="M392.049,439.607h9.484c1.714,0,3.425-0.928,4.624-2.278c-1.093-0.348-2.256-0.689-3.488-1.024
		c-0.326,0.106-0.697,0.174-1.136,0.174h-9.484c0,0-3.031,0-3.031-3.129v-0.021c-1.021-0.181-2.062-0.36-3.129-0.535v0.557
		C385.889,436.479,388.969,439.607,392.049,439.607z"/>
	<path opacity="0.3" fill="#FFFFFF" d="M392.049,439.607h9.484c1.714,0,3.425-0.928,4.624-2.278
		c-1.093-0.348-2.256-0.689-3.488-1.024c-0.326,0.106-0.697,0.174-1.136,0.174h-9.484c0,0-3.031,0-3.031-3.129v-0.021
		c-1.021-0.181-2.062-0.36-3.129-0.535v0.557C385.889,436.479,388.969,439.607,392.049,439.607z"/>
</g>
<g>
	<g>
		<g>
			<path fill="#407CB9" d="M326.689,441.036c1.181,0.559,2.732,1.057,4.657,1.552c1.984,0.435,4.283,0.685,6.767,0.745
				c1.736,0,3.413-0.125,4.966-0.496c1.613-0.311,2.978-0.808,4.282-1.49c0.62-0.311,1.365-0.745,2.234-1.365
				c0.807-0.621,1.613-1.365,2.482-2.296c0.745-0.869,1.428-1.925,1.925-3.167c0.559-1.242,0.869-2.607,0.869-4.096
				c-0.063-2.608-0.684-4.967-1.986-7.016c-1.118-1.738-2.546-3.289-4.222-4.53l2.731-7.324l-9.434,3.847
				c-0.249-0.062-0.497-0.123-0.685-0.187c-2.42-0.743-4.717-1.055-6.95-1.116c-2.919,0.062-5.588,0.496-7.946,1.365
				c-2.235,0.932-4.097,2.174-5.588,3.787c-1.489,1.676-2.42,3.6-2.792,5.896c-0.311,2.172-0.249,4.16,0.185,5.896
				c0.497,1.738,1.181,3.229,2.174,4.531c0.869,1.367,1.925,2.484,3.041,3.354C324.518,439.794,325.635,440.478,326.689,441.036z
				 M331.036,440.851c-1.738-0.496-3.104-0.993-4.097-1.553c-0.869-0.496-1.863-1.179-2.855-1.986
				c-0.931-0.807-1.8-1.738-2.546-2.917c-0.806-1.118-1.303-2.421-1.551-3.909c-0.311-2.174-0.187-4.035,0.434-5.525
				s1.489-2.732,2.607-3.602c1.181-0.932,2.42-1.612,3.725-2.109c1.304-0.436,2.545-0.744,3.725-0.932
				c1.117-0.123,1.985-0.248,2.545-0.248c2.049,0,4.097,0.311,6.082,0.869c2.048,0.559,3.975,1.427,5.711,2.545
				c1.677,1.18,3.104,2.606,4.16,4.344c0.62,1.057,1.056,1.987,1.364,2.981c0.311,0.931,0.497,1.861,0.497,2.73
				c-0.062,1.737-0.62,3.413-1.738,4.903c-1.054,1.553-2.669,2.73-4.778,3.662c-2.05,0.994-4.471,1.43-7.263,1.43
				C334.76,441.534,332.774,441.285,331.036,440.851z"/>
		</g>
	</g>
</g>
<path fill="#407CB9" d="M332.414,438.671c2.678,0.704,5.513,0.964,7.848,0.394c4.402-1.069,5.821-2.537,5.595-6.23
	c0,0,0.081-1.78-3.674-1.713c-0.833,0.015-2.956,0.458-3.259,1.372c-0.302,0.913,0.155,1.839,0.18,2.287
	c0.024,0.447-1.214,1.055-1.735,1.105c-0.676,0.067-2.383-0.041-4.104-0.465l-0.074-0.02c-1.706-0.481-3.242-1.229-3.797-1.622
	c-0.428-0.302-1.207-1.441-0.964-1.817c0.242-0.378,1.097-0.958,1.287-1.9c0.188-0.944-1.441-2.378-2.157-2.803
	c-3.232-1.913-4.041-0.323-4.041-0.323c-2.021,3.099-1.512,5.075,1.787,8.181c1.752,1.647,4.344,2.823,7.02,3.531L332.414,438.671z"
	/>
</svg>
