<?xml version="1.0" encoding="UTF-8" standalone="no"?>
<svg
   xmlns:sketch="http://www.bohemiancoding.com/sketch/ns"
   xmlns:dc="http://purl.org/dc/elements/1.1/"
   xmlns:cc="http://creativecommons.org/ns#"
   xmlns:rdf="http://www.w3.org/1999/02/22-rdf-syntax-ns#"
   xmlns:svg="http://www.w3.org/2000/svg"
   xmlns="http://www.w3.org/2000/svg"
   xmlns:sodipodi="http://sodipodi.sourceforge.net/DTD/sodipodi-0.dtd"
   xmlns:inkscape="http://www.inkscape.org/namespaces/inkscape"
   width="38"
   height="38"
   viewBox="0 0 38 38"
   version="1.1"
   id="svg4345"
   inkscape:version="0.91 r13725"
   sodipodi:docname="linphone-inprogress.svg"
   inkscape:export-filename="/home/ghislain/code/linphone-desktop/submodules/linphone/pixmaps/linphone-inprogress.png"
   inkscape:export-xdpi="113.68"
   inkscape:export-ydpi="113.68">
  <metadata
     id="metadata4360">
    <rdf:RDF>
      <cc:Work
         rdf:about="">
        <dc:format>image/svg+xml</dc:format>
        <dc:type
           rdf:resource="http://purl.org/dc/dcmitype/StillImage" />
        <dc:title>chat_message_inprogress</dc:title>
      </cc:Work>
    </rdf:RDF>
  </metadata>
  <sodipodi:namedview
     pagecolor="#ffffff"
     bordercolor="#666666"
     borderopacity="1"
     objecttolerance="10"
     gridtolerance="10"
     guidetolerance="10"
     inkscape:pageopacity="0"
     inkscape:pageshadow="2"
     inkscape:window-width="1920"
     inkscape:window-height="1141"
     id="namedview4358"
     showgrid="false"
     inkscape:zoom="19.072241"
     inkscape:cx="18.440059"
     inkscape:cy="21.038331"
     inkscape:window-x="0"
     inkscape:window-y="0"
     inkscape:window-maximized="1"
     inkscape:current-layer="svg4345" />
  <!-- Generator: Sketch 3.3.3 (12081) - http://www.bohemiancoding.com/sketch -->
  <title
     id="title4347">chat_message_inprogress</title>
  <desc
     id="desc4349">Created with Sketch.</desc>
  <defs
     id="defs4351" />
  <path
     style="fill:none;fill-rule:evenodd;stroke:#444444;stroke-width:1;stroke-opacity:1"
     inkscape:connector-curvature="0"
     sketch:type="MSShapeGroup"
     id="Imported-Layers-Copy-12"
     d="m 12.967496,29.603196 c 0,0.884475 -0.313251,1.636279 -0.939755,2.255412 -0.626503,0.619133 -1.374622,0.9287 -2.2443564,0.9287 -0.8844755,0 -1.6362797,-0.309567 -2.2554126,-0.9287 -0.6191328,-0.619133 -0.9286993,-1.370937 -0.9286993,-2.255412 0,-0.884476 0.3095665,-1.63628 0.9286993,-2.255413 0.6191329,-0.619133 1.3709371,-0.928699 2.2554126,-0.928699 0.8697344,0 1.6178534,0.309566 2.2443564,0.928699 0.626504,0.619133 0.939755,1.370937 0.939755,2.255413 l 0,0 z m 9.552336,4.245482 c 0,0.781287 -0.276398,1.448329 -0.829196,2.001126 -0.552797,0.552837 -1.219839,0.829196 -2.001126,0.829196 -0.781286,0 -1.448328,-0.276399 -2.001125,-0.829196 -0.552798,-0.552797 -0.829196,-1.219839 -0.829196,-2.001126 0,-0.781326 0.276398,-1.448328 0.829196,-2.001126 0.552797,-0.552797 1.219839,-0.829195 2.001125,-0.829195 0.781287,0 1.448329,0.276398 2.001126,0.829195 0.552798,0.552837 0.829196,1.2198 0.829196,2.001126 l 0,0 z M 9.0758042,19.69707 c 0,0.972923 -0.3464196,1.805804 -1.0392587,2.498643 -0.6928392,0.692839 -1.5257203,1.039299 -2.4986434,1.039299 -0.9729231,0 -1.8058042,-0.34646 -2.4986434,-1.039299 C 2.3464196,21.502874 2,20.669993 2,19.69707 c 0,-0.972923 0.3464196,-1.805804 1.0392587,-2.498643 0.6928392,-0.69284 1.5257203,-1.039259 2.4986434,-1.039259 0.9729231,0 1.8058042,0.346419 2.4986434,1.039259 0.6928391,0.692839 1.0392587,1.52572 1.0392587,2.498643 l 0,0 z m 22.9963638,9.906126 c 0,0.678098 -0.243231,1.260377 -0.729693,1.746839 -0.486461,0.486461 -1.068741,0.729692 -1.746839,0.729692 -0.678058,0 -1.260377,-0.243231 -1.746839,-0.729692 -0.486461,-0.486462 -0.729692,-1.068741 -0.729692,-1.746839 0,-0.678098 0.243231,-1.260378 0.729692,-1.746839 0.486462,-0.486462 1.068741,-0.729693 1.746839,-0.729693 0.678098,0 1.260378,0.243231 1.746839,0.729693 0.486462,0.486461 0.729693,1.068741 0.729693,1.746839 l 0,0 z M 13.675077,9.790944 c 0,1.076112 -0.379587,1.993755 -1.138762,2.75293 -0.759175,0.759175 -1.676818,1.138762 -2.7529304,1.138762 -1.0761119,0 -1.9937552,-0.379587 -2.7529301,-1.138762 -0.7591748,-0.759175 -1.1387622,-1.676818 -1.1387622,-2.75293 0,-1.0761118 0.3795874,-1.9937552 1.1387622,-2.75293 0.7591749,-0.7591749 1.6768182,-1.1387623 2.7529301,-1.1387623 1.0761124,0 1.9937554,0.3795874 2.7529304,1.1387623 0.759175,0.7591748 1.138762,1.6768182 1.138762,2.75293 l 0,0 z M 23.934993,5.5454615 c 0,1.1793007 -0.412755,2.1817063 -1.238266,3.0072168 -0.82551,0.8255107 -1.827916,1.2382657 -3.007217,1.2382657 -1.1793,0 -2.181706,-0.412755 -3.007216,-1.2382657 -0.825511,-0.8255105 -1.238266,-1.8279161 -1.238266,-3.0072168 0,-1.1793007 0.412755,-2.1817063 1.238266,-3.0072168 0.82551,-0.8255105 1.827916,-1.2382657 3.007216,-1.2382657 1.179301,0 2.181707,0.4127552 3.007217,1.2382657 0.825511,0.8255105 1.238266,1.8279161 1.238266,3.0072168 l 0,0 z M 35.96386,19.69707 c 0,0.58965 -0.206377,1.090853 -0.619133,1.503608 -0.412755,0.412755 -0.913958,0.619133 -1.503608,0.619133 -0.58965,0 -1.090853,-0.206378 -1.503609,-0.619133 -0.412755,-0.412755 -0.619132,-0.913958 -0.619132,-1.503608 0,-0.58965 0.206377,-1.090853 0.619132,-1.503609 0.412756,-0.412755 0.913959,-0.619132 1.503609,-0.619132 0.58965,0 1.090853,0.206377 1.503608,0.619132 0.412756,0.412756 0.619133,0.913959 0.619133,1.503609 l 0,0 z M 31.364587,9.790944 c 0,0.486462 -0.173209,0.902902 -0.519629,1.249322 -0.34642,0.346419 -0.76286,0.519629 -1.249322,0.519629 -0.486461,0 -0.902902,-0.17321 -1.249321,-0.519629 -0.34642,-0.34642 -0.51963,-0.76286 -0.51963,-1.249322 0,-0.486462 0.17321,-0.9029021 0.51963,-1.2493216 0.346419,-0.3464196 0.76286,-0.5196294 1.249321,-0.5196294 0.486462,0 0.902902,0.1732098 1.249322,0.5196294 0.34642,0.3464195 0.519629,0.7628596 0.519629,1.2493216 l 0,0 z" />
</svg>
