<?xml version="1.0" encoding="utf-8"?>
<!-- Generator: Adobe Illustrator 14.0.0, SVG Export Plug-In . SVG Version: 6.00 Build 43363)  -->
<!DOCTYPE svg PUBLIC "-//W3C//DTD SVG 1.1//EN" "http://www.w3.org/Graphics/SVG/1.1/DTD/svg11.dtd">
<svg version="1.1" id="Calque_1" xmlns="http://www.w3.org/2000/svg" xmlns:xlink="http://www.w3.org/1999/xlink" x="0px" y="0px"
	 width="595.28px" height="841.89px" viewBox="0 0 595.28 841.89" enable-background="new 0 0 595.28 841.89" xml:space="preserve">
<g>
	<g>
		<g>
			<g>
				
					<linearGradient id="SVGID_1_" gradientUnits="userSpaceOnUse" x1="190.6316" y1="411.1187" x2="247.7873" y2="426.4333" gradientTransform="matrix(1 0 0 1 0.5605 -0.2207)">
					<stop  offset="0.15" style="stop-color:#3BCB09"/>
					<stop  offset="0.35" style="stop-color:#F4F7EE"/>
					<stop  offset="0.55" style="stop-color:#3BCB09"/>
				</linearGradient>
				<path fill="url(#SVGID_1_)" d="M203.045,443.109c1.845,0.869,4.011,1.834,7.209,2.609c3.387,0.74,6.767,1.26,10.441,1.162
					c3.874-0.195,5.806-0.584,8.905-1.355c2.808-0.871,4.157-1.355,6.379-2.516c0.974-0.482,1.745-0.967,3.675-2.322
					c1.266-0.973,2.714-2.131,4.103-4.088c1.171-1.359,2.338-3.693,3.111-5.639c0.875-1.943,1.359-4.082,1.359-6.41
					c-0.102-4.088-1.074-7.787-3.109-10.99c-1.756-2.722-3.995-5.152-6.615-7.096l4.275-11.469l-14.771,6.025
					c-0.389-0.097-0.773-0.195-1.069-0.294c-3.8-1.165-7.391-1.65-10.891-1.747c-4.571,0.097-8.747,0.777-12.443,2.138
					c-3.501,1.459-6.416,3.406-8.747,5.93c-2.333,2.625-4.738,6.675-5.321,10.277c-0.865,4.496-0.634,7.5,0.048,10.216
					c0.776,2.721,1.637,4.873,3.537,7.633c2.064,2.369,2.995,3.383,4.738,4.74C199.997,441.462,201.393,442.228,203.045,443.109z
					 M210.904,440.878c-2.717-0.773-4.858-1.557-6.416-2.436c-1.363-0.777-2.918-1.846-4.476-3.111
					c-1.456-1.258-2.819-2.717-3.986-4.562c-1.261-1.75-2.039-3.797-2.43-6.125c-0.486-3.408-0.292-6.319,0.677-8.657
					c0.975-2.333,2.327-4.282,4.083-5.643c1.851-1.458,3.793-2.522,5.835-3.306c2.041-0.68,3.988-1.159,5.83-1.455
					c1.75-0.193,3.111-0.389,3.988-0.389c3.208,0,6.416,0.486,9.522,1.353c3.213,0.88,6.229,2.237,8.946,3.991
					c2.625,1.842,4.861,4.083,6.52,6.804c0.973,1.653,1.646,3.116,2.13,4.675c0.486,1.459,0.775,2.912,0.775,4.273
					c-0.097,2.721-0.973,5.346-2.717,7.68c-1.646,2.438-4.18,4.281-7.479,5.734c-3.213,1.561-7.003,2.242-11.375,2.242
					C216.737,441.953,213.629,441.558,210.904,440.878z"/>
			</g>
		</g>
	</g>
	<path fill="#3BCB09" d="M214.437,435.634c4.198,1.105,8.646,1.508,12.292,0.615c6.897-1.672,9.124-3.973,8.765-9.754
		c0,0,0.129-2.787-5.756-2.689c-1.305,0.023-4.629,0.732-5.101,2.148c-0.472,1.434,0.24,2.885,0.282,3.582
		c0.042,0.709-1.902,1.664-2.717,1.736c-1.062,0.102-3.732-0.061-6.431-0.727l-0.121-0.031c-2.673-0.75-5.081-1.922-5.949-2.547
		c-0.667-0.467-1.889-2.254-1.506-2.844c0.382-0.596,1.722-1.502,2.018-2.98c0.296-1.479-2.261-3.723-3.376-4.386
		c-5.064-2.999-6.333-0.514-6.333-0.514c-3.16,4.855-2.368,7.949,2.798,12.808c2.75,2.588,6.807,4.422,10.998,5.527L214.437,435.634
		z"/>
</g>
</svg>
