<?xml version="1.0" encoding="utf-8"?>
<!-- Generator: Adobe Illustrator 14.0.0, SVG Export Plug-In . SVG Version: 6.00 Build 43363)  -->
<!DOCTYPE svg PUBLIC "-//W3C//DTD SVG 1.1//EN" "http://www.w3.org/Graphics/SVG/1.1/DTD/svg11.dtd">
<svg version="1.1" id="Calque_1" xmlns="http://www.w3.org/2000/svg" xmlns:xlink="http://www.w3.org/1999/xlink" x="0px" y="0px"
	 width="595.28px" height="841.89px" viewBox="0 0 595.28 841.89" enable-background="new 0 0 595.28 841.89" xml:space="preserve">
<g>
	<g>
		<g>
			<g>
				
					<linearGradient id="SVGID_1_" gradientUnits="userSpaceOnUse" x1="148.6731" y1="423.5444" x2="172.7882" y2="430.006" gradientTransform="matrix(1 0 0 1 0.2803 -0.1104)">
					<stop  offset="0.15" style="stop-color:#3BCB09"/>
					<stop  offset="0.35" style="stop-color:#F4F7EE"/>
					<stop  offset="0.55" style="stop-color:#3BCB09"/>
				</linearGradient>
				<path fill="url(#SVGID_1_)" d="M153.954,437.025c0.778,0.367,1.692,0.773,3.042,1.102c1.429,0.312,2.855,0.531,4.406,0.49
					c1.635-0.082,2.449-0.246,3.757-0.572c1.184-0.367,1.755-0.572,2.692-1.061c0.41-0.205,0.735-0.408,1.551-0.98
					c0.533-0.41,1.145-0.898,1.729-1.725c0.494-0.574,0.986-1.559,1.312-2.379c0.369-0.82,0.574-1.723,0.574-2.705
					c-0.042-1.725-0.452-3.285-1.312-4.637c-0.74-1.148-1.686-2.174-2.791-2.994l1.804-4.839l-6.231,2.542
					c-0.164-0.041-0.327-0.082-0.452-0.124c-1.603-0.491-3.118-0.696-4.595-0.737c-1.929,0.041-3.69,0.328-5.25,0.902
					c-1.478,0.616-2.707,1.437-3.69,2.502c-0.984,1.107-2,2.816-2.246,4.336c-0.365,1.896-0.267,3.164,0.021,4.311
					c0.328,1.148,0.69,2.057,1.492,3.221c0.872,1,1.264,1.428,2,2C152.668,436.33,153.257,436.654,153.954,437.025z
					 M157.271,436.083c-1.146-0.326-2.051-0.656-2.707-1.027c-0.576-0.328-1.231-0.777-1.889-1.312
					c-0.614-0.531-1.189-1.146-1.682-1.926c-0.532-0.738-0.86-1.602-1.025-2.584c-0.205-1.438-0.123-2.666,0.286-3.652
					c0.41-0.984,0.981-1.807,1.723-2.381c0.78-0.615,1.601-1.064,2.462-1.395c0.861-0.287,1.683-0.489,2.46-0.614
					c0.738-0.081,1.312-0.164,1.683-0.164c1.354,0,2.707,0.205,4.019,0.571c1.355,0.371,2.628,0.943,3.775,1.684
					c1.106,0.777,2.051,1.723,2.749,2.871c0.41,0.697,0.695,1.314,0.899,1.973c0.205,0.615,0.328,1.229,0.328,1.803
					c-0.042,1.148-0.41,2.256-1.146,3.24c-0.696,1.027-1.765,1.807-3.157,2.42c-1.354,0.658-2.954,0.945-4.799,0.945
					C159.732,436.537,158.42,436.371,157.271,436.083z"/>
			</g>
		</g>
	</g>
	<path fill="#3BCB09" d="M158.761,433.871c1.771,0.467,3.646,0.637,5.186,0.26c2.91-0.705,3.85-1.676,3.697-4.115
		c0,0,0.056-1.176-2.427-1.133c-0.551,0.01-1.954,0.309-2.153,0.906c-0.198,0.605,0.103,1.217,0.119,1.512
		c0.018,0.299-0.803,0.701-1.146,0.732c-0.447,0.043-1.575-0.025-2.713-0.307l-0.051-0.014c-1.128-0.316-2.144-0.811-2.511-1.074
		c-0.281-0.197-0.796-0.951-0.635-1.199c0.16-0.252,0.726-0.635,0.851-1.258s-0.954-1.57-1.425-1.85
		c-2.137-1.266-2.672-0.217-2.672-0.217c-1.333,2.049-0.999,3.354,1.181,5.404c1.16,1.092,2.872,1.865,4.641,2.332L158.761,433.871z
		"/>
</g>
</svg>
