<?xml version="1.0" encoding="utf-8"?>
<!-- Generator: Adobe Illustrator 14.0.0, SVG Export Plug-In . SVG Version: 6.00 Build 43363)  -->
<!DOCTYPE svg PUBLIC "-//W3C//DTD SVG 1.1//EN" "http://www.w3.org/Graphics/SVG/1.1/DTD/svg11.dtd">
<svg version="1.1" id="Calque_1" xmlns="http://www.w3.org/2000/svg" xmlns:xlink="http://www.w3.org/1999/xlink" x="0px" y="0px"
	 width="595.28px" height="841.89px" viewBox="0 0 595.28 841.89" enable-background="new 0 0 595.28 841.89" xml:space="preserve">
<g>
	<g>
		<g>
			<g>
				
					<linearGradient id="SVGID_1_" gradientUnits="userSpaceOnUse" x1="270.4812" y1="418.4019" x2="294.5982" y2="411.9398" gradientTransform="matrix(1 0 0 -1 0.1401 841.835)">
					<stop  offset="0.15" style="stop-color:#C1001F"/>
					<stop  offset="0.35" style="stop-color:#F4F7EE"/>
					<stop  offset="0.55" style="stop-color:#C1001F"/>
				</linearGradient>
				<path fill="url(#SVGID_1_)" d="M275.621,437.025c0.779,0.367,1.693,0.773,3.042,1.102c1.429,0.312,2.856,0.531,4.407,0.49
					c1.634-0.082,2.449-0.246,3.756-0.572c1.184-0.367,1.755-0.572,2.693-1.061c0.41-0.205,0.735-0.408,1.551-0.98
					c0.533-0.41,1.144-0.898,1.729-1.725c0.494-0.574,0.986-1.559,1.313-2.379c0.369-0.82,0.574-1.723,0.574-2.705
					c-0.042-1.725-0.452-3.285-1.312-4.637c-0.74-1.148-1.685-2.174-2.791-2.994l1.804-4.839l-6.231,2.542
					c-0.165-0.041-0.328-0.082-0.453-0.124c-1.602-0.491-3.118-0.696-4.594-0.737c-1.929,0.041-3.691,0.328-5.25,0.902
					c-1.478,0.616-2.707,1.437-3.691,2.502c-0.984,1.107-2,2.816-2.246,4.336c-0.365,1.896-0.266,3.164,0.021,4.311
					c0.328,1.148,0.69,2.059,1.492,3.221c0.872,1.002,1.263,1.426,2,2C274.335,436.33,274.923,436.656,275.621,437.025z
					 M278.938,436.083c-1.147-0.326-2.051-0.656-2.707-1.027c-0.576-0.328-1.232-0.777-1.889-1.312
					c-0.614-0.531-1.189-1.146-1.682-1.926c-0.532-0.738-0.86-1.602-1.025-2.584c-0.205-1.438-0.123-2.666,0.286-3.652
					c0.41-0.984,0.982-1.807,1.723-2.381c0.78-0.615,1.6-1.064,2.462-1.395c0.861-0.287,1.682-0.489,2.461-0.614
					c0.737-0.081,1.312-0.164,1.682-0.164c1.354,0,2.707,0.205,4.019,0.571c1.355,0.371,2.628,0.943,3.775,1.684
					c1.107,0.777,2.051,1.723,2.749,2.871c0.41,0.697,0.696,1.314,0.9,1.973c0.205,0.615,0.328,1.229,0.328,1.803
					c-0.041,1.148-0.41,2.256-1.147,3.24c-0.697,1.027-1.764,1.807-3.157,2.42c-1.354,0.658-2.954,0.945-4.799,0.945
					C281.398,436.537,280.087,436.373,278.938,436.083z"/>
			</g>
		</g>
	</g>
	<g>
		<g>
			<g>
				<path fill="#C1001F" d="M278.634,424.73l1.763,1.768c0.483,0.463,0.867,0.867,1.274,1.326h0.051
					c0.407-0.473,0.816-0.898,1.25-1.34l1.709-1.75h2.449l-4.21,3.979l4.312,4.252h-2.525l-1.836-1.854
					c-0.486-0.479-0.895-0.938-1.326-1.428h-0.054c-0.408,0.49-0.816,0.936-1.3,1.428l-1.784,1.854h-2.477l4.388-4.201l-4.185-4.027
					h2.502L278.634,424.73L278.634,424.73z"/>
			</g>
		</g>
	</g>
</g>
</svg>
