<?xml version="1.0" encoding="utf-8"?>
<!-- Generator: Adobe Illustrator 14.0.0, SVG Export Plug-In . SVG Version: 6.00 Build 43363)  -->
<!DOCTYPE svg PUBLIC "-//W3C//DTD SVG 1.1//EN" "http://www.w3.org/Graphics/SVG/1.1/DTD/svg11.dtd">
<svg version="1.1" id="Calque_1" xmlns="http://www.w3.org/2000/svg" xmlns:xlink="http://www.w3.org/1999/xlink" x="0px" y="0px"
	 width="595.28px" height="841.89px" viewBox="0 0 595.28 841.89" enable-background="new 0 0 595.28 841.89" xml:space="preserve">
<g>
	<g>
		<g>
			<g>
				<path fill="#9B9C9E" d="M335.215,428.953c0-0.83,0.577-1.451,1.385-1.451c0.809,0,1.361,0.598,1.361,1.451
					c0,0.832-0.552,1.455-1.407,1.455C335.77,430.408,335.215,429.785,335.215,428.953z"/>
				<path fill="#9B9C9E" d="M339.993,428.953c0-0.83,0.577-1.451,1.384-1.451c0.808,0,1.362,0.598,1.362,1.451
					c0,0.832-0.554,1.455-1.408,1.455C340.547,430.408,339.993,429.785,339.993,428.953z"/>
				<path fill="#9B9C9E" d="M344.772,428.953c0-0.83,0.576-1.451,1.385-1.451c0.808,0,1.36,0.598,1.36,1.451
					c0,0.832-0.552,1.455-1.406,1.455C345.325,430.408,344.772,429.785,344.772,428.953z"/>
			</g>
		</g>
	</g>
	<g>
		
			<linearGradient id="SVGID_1_" gradientUnits="userSpaceOnUse" x1="330.1477" y1="418.4004" x2="354.2633" y2="411.9386" gradientTransform="matrix(1 0 0 -1 0.1401 841.835)">
			<stop  offset="0.15" style="stop-color:#9B9C9E"/>
			<stop  offset="0.35" style="stop-color:#F4F7EE"/>
			<stop  offset="0.55" style="stop-color:#9B9C9E"/>
		</linearGradient>
		<path fill="url(#SVGID_1_)" d="M335.287,437.025c0.779,0.367,1.694,0.773,3.041,1.102c1.43,0.311,2.856,0.531,4.409,0.49
			c1.632-0.082,2.448-0.246,3.755-0.572c1.184-0.367,1.755-0.572,2.693-1.061c0.409-0.205,0.734-0.408,1.552-0.98
			c0.532-0.41,1.143-0.898,1.729-1.725c0.493-0.574,0.985-1.559,1.313-2.381c0.369-0.818,0.573-1.721,0.573-2.703
			c-0.042-1.725-0.451-3.285-1.312-4.637c-0.741-1.148-1.686-2.174-2.791-2.994l1.805-4.839l-6.231,2.542
			c-0.165-0.041-0.328-0.082-0.452-0.124c-1.602-0.491-3.118-0.696-4.594-0.738c-1.93,0.042-3.691,0.329-5.25,0.902
			c-1.479,0.616-2.707,1.437-3.692,2.501c-0.983,1.107-2,2.816-2.245,4.336c-0.364,1.896-0.266,3.164,0.021,4.311
			c0.329,1.15,0.689,2.059,1.491,3.221c0.872,1.002,1.264,1.426,1.999,2C334.001,436.33,334.59,436.654,335.287,437.025z
			 M338.604,436.083c-1.146-0.328-2.051-0.656-2.705-1.027c-0.576-0.328-1.233-0.777-1.89-1.312
			c-0.614-0.531-1.188-1.146-1.682-1.926c-0.532-0.738-0.86-1.602-1.024-2.584c-0.205-1.438-0.123-2.666,0.286-3.652
			c0.409-0.984,0.983-1.807,1.724-2.381c0.778-0.615,1.599-1.064,2.463-1.395c0.859-0.287,1.681-0.489,2.46-0.614
			c0.737-0.082,1.312-0.164,1.682-0.164c1.354,0,2.706,0.205,4.019,0.571c1.354,0.369,2.629,0.943,3.775,1.684
			c1.107,0.777,2.051,1.723,2.748,2.871c0.41,0.697,0.698,1.314,0.901,1.973c0.205,0.615,0.328,1.229,0.328,1.803
			c-0.041,1.148-0.409,2.256-1.147,3.24c-0.696,1.027-1.764,1.807-3.157,2.42c-1.354,0.658-2.953,0.945-4.799,0.945
			C341.066,436.537,339.753,436.371,338.604,436.083z"/>
	</g>
</g>
</svg>
