<?xml version="1.0" encoding="utf-8"?>
<!-- Generator: Adobe Illustrator 14.0.0, SVG Export Plug-In . SVG Version: 6.00 Build 43363)  -->
<!DOCTYPE svg PUBLIC "-//W3C//DTD SVG 1.1//EN" "http://www.w3.org/Graphics/SVG/1.1/DTD/svg11.dtd">
<svg version="1.1" id="Calque_1" xmlns="http://www.w3.org/2000/svg" xmlns:xlink="http://www.w3.org/1999/xlink" x="0px" y="0px"
	 width="595.28px" height="841.89px" viewBox="0 0 595.28 841.89" enable-background="new 0 0 595.28 841.89" xml:space="preserve">
<g>
	<path fill="#C1001F" d="M382.281,405.372c-4.424-1.164-9.108-1.593-12.965-0.649c-7.273,1.766-9.62,4.19-9.244,10.293
		c0,0-0.134,2.94,6.068,2.83c1.377-0.025,4.886-0.758,5.386-2.268c0.496-1.508-0.259-3.038-0.298-3.778
		c-0.04-0.739,2.005-1.743,2.865-1.827c1.115-0.11,3.937,0.068,6.78,0.769l0.122,0.032c2.82,0.796,5.355,2.032,6.271,2.681
		c0.706,0.498,1.995,2.381,1.596,3.001c-0.402,0.625-1.812,1.584-2.127,3.141c-0.312,1.561,2.381,3.928,3.562,4.629
		c5.34,3.162,6.675,0.535,6.675,0.535c3.341-5.12,2.498-8.385-2.95-13.515c-2.896-2.723-7.178-4.665-11.6-5.834L382.281,405.372z"/>
	<g>
		<g>
			<g>
				
					<linearGradient id="SVGID_1_" gradientUnits="userSpaceOnUse" x1="348.4768" y1="587.9087" x2="406.7347" y2="572.2986" gradientTransform="matrix(-1 0 0 1 753.3428 -156.7246)">
					<stop  offset="0.15" style="stop-color:#C1001F"/>
					<stop  offset="0.35" style="stop-color:#F4F7EE"/>
					<stop  offset="0.55" style="stop-color:#C1001F"/>
				</linearGradient>
				<path fill="url(#SVGID_1_)" d="M392.784,398.354c-1.882-0.887-4.09-1.869-7.353-2.662c-3.447-0.755-6.896-1.283-10.644-1.184
					c-3.949,0.198-5.917,0.594-9.073,1.383c-2.858,0.886-4.242,1.382-6.507,2.562c-0.99,0.496-1.774,0.986-3.745,2.368
					c-1.289,0.991-2.766,2.17-4.177,4.167c-1.193,1.387-2.382,3.765-3.171,5.747c-0.893,1.982-1.387,4.162-1.387,6.535
					c0.1,4.167,1.091,7.937,3.166,11.202c1.788,2.773,4.071,5.252,6.741,7.232l-4.354,11.689l15.052-6.143
					c0.396,0.1,0.792,0.199,1.095,0.301c3.868,1.188,7.529,1.682,11.098,1.781c4.661-0.1,8.918-0.793,12.683-2.18
					c3.571-1.488,6.539-3.473,8.917-6.045c2.379-2.676,4.832-6.805,5.427-10.475c0.882-4.582,0.643-7.644-0.052-10.414
					c-0.793-2.774-1.666-4.973-3.604-7.78c-2.105-2.421-3.055-3.449-4.832-4.832C395.89,400.034,394.469,399.245,392.784,398.354z
					 M384.774,400.628c2.77,0.788,4.953,1.585,6.54,2.481c1.391,0.793,2.972,1.878,4.562,3.171c1.482,1.283,2.873,2.77,4.062,4.653
					c1.283,1.783,2.075,3.869,2.477,6.242c0.496,3.473,0.298,6.44-0.693,8.825c-0.989,2.377-2.367,4.363-4.161,5.75
					c-1.883,1.486-3.863,2.572-5.943,3.369c-2.082,0.693-4.068,1.182-5.946,1.482c-1.782,0.197-3.171,0.396-4.066,0.396
					c-3.271,0-6.538-0.494-9.705-1.379c-3.274-0.898-6.351-2.279-9.12-4.068c-2.677-1.877-4.954-4.16-6.645-6.936
					c-0.991-1.686-1.679-3.176-2.17-4.766c-0.496-1.486-0.792-2.968-0.792-4.355c0.098-2.774,0.989-5.45,2.771-7.827
					c1.684-2.482,4.26-4.365,7.624-5.846c3.273-1.59,7.139-2.284,11.593-2.284C378.828,399.533,381.994,399.93,384.774,400.628z"/>
			</g>
		</g>
	</g>
</g>
</svg>
