<svg width="28" height="28" viewBox="0 0 28 28" fill="none" xmlns="http://www.w3.org/2000/svg">
<g id="R&#195;&#169;pondre">
<path id="Vector" d="M25.4222 14.19L17.0891 22.5231C16.9726 22.6398 16.824 22.7193 16.6623 22.7515C16.5006 22.7837 16.3329 22.7672 16.1806 22.7041C16.0282 22.6409 15.898 22.534 15.8065 22.3969C15.7149 22.2597 15.6661 22.0985 15.6662 21.9336V17.791C9.71848 18.1285 5.64046 21.9856 4.49569 23.2075C4.31594 23.3995 4.08022 23.5298 3.82207 23.5801C3.56392 23.6303 3.2965 23.5979 3.05787 23.4873C2.81924 23.3768 2.62156 23.1938 2.49296 22.9644C2.36435 22.735 2.31138 22.4708 2.34158 22.2096C2.72803 18.8493 4.56861 15.6171 7.52478 13.1088C9.97993 11.0255 12.9642 9.70366 15.6662 9.47242V5.26732C15.6661 5.10241 15.7149 4.94117 15.8065 4.80401C15.898 4.66685 16.0282 4.55994 16.1806 4.49682C16.3329 4.43369 16.5006 4.41719 16.6623 4.4494C16.824 4.48161 16.9726 4.56108 17.0891 4.67775L25.4222 13.0109C25.4997 13.0883 25.5612 13.1802 25.6031 13.2813C25.6451 13.3825 25.6666 13.4909 25.6666 13.6004C25.6666 13.71 25.6451 13.8184 25.6031 13.9195C25.5612 14.0207 25.4997 14.1126 25.4222 14.19Z" fill="#6C7A87"/>
</g>
</svg>
