<svg width="24" height="24" viewBox="0 0 24 24" fill="none" xmlns="http://www.w3.org/2000/svg">
<g id="S&#195;&#169;curit&#195;&#169;">
<path id="Vector" d="M23 2.52647V9.2355C23 19.4652 14.3123 22.8591 12.5729 23.4356C12.2014 23.5614 11.7986 23.5614 11.4271 23.4356C9.68542 22.8591 1 19.4652 1 9.2355V2.52647C1 2.04205 1.19315 1.57747 1.53697 1.23493C1.88079 0.892387 2.3471 0.699951 2.83333 0.699951H21.1667C21.6529 0.699951 22.1192 0.892387 22.463 1.23493C22.8068 1.57747 23 2.04205 23 2.52647Z" fill="#364860"/>
<path id="Vector_2" d="M20.3333 1.59998H3.66667C3.22464 1.59998 2.80072 1.77557 2.48816 2.08813C2.17559 2.40069 2 2.82461 2 3.26664V9.38852C2 18.7229 9.89792 21.8198 11.4792 22.3458C11.8169 22.4607 12.1831 22.4607 12.5208 22.3458C14.1042 21.8198 22 18.7229 22 9.38852V3.26664C22 2.82461 21.8244 2.40069 21.5118 2.08813C21.1993 1.77557 20.7754 1.59998 20.3333 1.59998ZM16.7563 8.85623L10.9229 14.6896C10.8455 14.767 10.7536 14.8285 10.6525 14.8704C10.5513 14.9124 10.4428 14.934 10.3333 14.934C10.2238 14.934 10.1154 14.9124 10.0142 14.8704C9.91305 14.8285 9.82114 14.767 9.74375 14.6896L7.24375 12.1896C7.08738 12.0332 6.99954 11.8211 6.99954 11.6C6.99954 11.3788 7.08738 11.1668 7.24375 11.0104C7.40012 10.854 7.6122 10.7662 7.83333 10.7662C8.05447 10.7662 8.26655 10.854 8.42292 11.0104L10.3333 12.9208L15.5771 7.67706C15.6545 7.59963 15.7464 7.53822 15.8476 7.49631C15.9487 7.45441 16.0572 7.43285 16.1667 7.43285C16.2762 7.43285 16.3846 7.45441 16.4857 7.49631C16.5869 7.53822 16.6788 7.59963 16.7563 7.67706C16.8337 7.75448 16.8951 7.8464 16.937 7.94756C16.9789 8.04872 17.0005 8.15715 17.0005 8.26664C17.0005 8.37614 16.9789 8.48456 16.937 8.58572C16.8951 8.68688 16.8337 8.7788 16.7563 8.85623Z" fill="white"/>
</g>
</svg>
