<svg width="25" height="24" viewBox="0 0 25 24" fill="none" xmlns="http://www.w3.org/2000/svg">
<path d="M20.75 3.75H4.25C3.85218 3.75 3.47064 3.90804 3.18934 4.18934C2.90804 4.47064 2.75 4.85218 2.75 5.25V18.75C2.75 19.1478 2.90804 19.5294 3.18934 19.8107C3.47064 20.092 3.85218 20.25 4.25 20.25H20.75C21.1478 20.25 21.5294 20.092 21.8107 19.8107C22.092 19.5294 22.25 19.1478 22.25 18.75V5.25C22.25 4.85218 22.092 4.47064 21.8107 4.18934C21.5294 3.90804 21.1478 3.75 20.75 3.75ZM20.75 11.25H16.25V5.25H20.75V11.25ZM4.25 5.25H14.75V18.75H4.25V5.25ZM20.75 18.75H16.25V12.75H20.75V18.75ZM17.375 8.25C17.375 8.0275 17.441 7.80999 17.5646 7.62498C17.6882 7.43998 17.8639 7.29578 18.0695 7.21064C18.275 7.12549 18.5012 7.10321 18.7195 7.14662C18.9377 7.19002 19.1382 7.29717 19.2955 7.4545C19.4528 7.61184 19.56 7.81229 19.6034 8.03052C19.6468 8.24875 19.6245 8.47495 19.5394 8.68052C19.4542 8.88609 19.31 9.06179 19.125 9.1854C18.94 9.30902 18.7225 9.375 18.5 9.375C18.2016 9.375 17.9155 9.25647 17.7045 9.0455C17.4935 8.83452 17.375 8.54837 17.375 8.25ZM19.625 15.75C19.625 15.9725 19.559 16.19 19.4354 16.375C19.3118 16.56 19.1361 16.7042 18.9305 16.7894C18.725 16.8745 18.4988 16.8968 18.2805 16.8534C18.0623 16.81 17.8618 16.7028 17.7045 16.5455C17.5472 16.3882 17.44 16.1877 17.3966 15.9695C17.3532 15.7512 17.3755 15.525 17.4606 15.3195C17.5458 15.1139 17.69 14.9382 17.875 14.8146C18.06 14.691 18.2775 14.625 18.5 14.625C18.7984 14.625 19.0845 14.7435 19.2955 14.9545C19.5065 15.1655 19.625 15.4516 19.625 15.75Z" fill="white"/>
<path d="M6.11079 11.5909C5.97576 11.7259 5.8999 11.9091 5.8999 12.1C5.8999 12.291 5.97576 12.4741 6.11079 12.6092C6.24581 12.7442 6.42895 12.82 6.61991 12.82H8.77993V14.9801C8.77993 15.171 8.85579 15.3542 8.99081 15.4892C9.12584 15.6242 9.30898 15.7001 9.49994 15.7001C9.69089 15.7001 9.87403 15.6242 10.0091 15.4892C10.1441 15.3542 10.2199 15.171 10.2199 14.9801V12.82H12.38C12.5709 12.82 12.7541 12.7442 12.8891 12.6092C13.0241 12.4741 13.1 12.291 13.1 12.1C13.1 11.9091 13.0241 11.7259 12.8891 11.5909C12.7541 11.4559 12.5709 11.38 12.38 11.38H10.2199V9.22001C10.2199 9.02905 10.1441 8.84591 10.0091 8.71089C9.87403 8.57586 9.69089 8.5 9.49994 8.5C9.30898 8.5 9.12584 8.57586 8.99081 8.71089C8.85579 8.84591 8.77993 9.02905 8.77993 9.22001V11.38H6.61991C6.42895 11.38 6.24581 11.4559 6.11079 11.5909Z" fill="white"/>
</svg>
