<svg width="24" height="24" viewBox="0 0 24 24" fill="none" xmlns="http://www.w3.org/2000/svg">
<path d="M5.87389 3.92007C5.8138 3.85155 5.74087 3.79578 5.65931 3.75599C5.57775 3.7162 5.4892 3.69317 5.39878 3.68825C5.30836 3.68333 5.21788 3.69661 5.13257 3.72733C5.04726 3.75804 4.96883 3.80557 4.90182 3.86717C4.83481 3.92877 4.78055 4.00321 4.74219 4.08617C4.70383 4.16914 4.68213 4.25898 4.67835 4.35049C4.67457 4.442 4.68879 4.53335 4.72017 4.61927C4.75155 4.70518 4.79948 4.78394 4.86118 4.85097L6.29301 6.44459C5.68492 7.50032 5.3655 8.70069 5.36754 9.92252C5.36754 12.98 4.66103 15.3194 4.18633 16.1465C4.0651 16.3567 4.00083 16.5956 4.00001 16.839C3.99918 17.0824 4.06183 17.3218 4.18162 17.5329C4.30142 17.744 4.47413 17.9194 4.68234 18.0414C4.89055 18.1635 5.12689 18.2279 5.36754 18.228H8.85729C9.01434 19.0103 9.43394 19.7137 10.045 20.2188C10.6561 20.724 11.421 21 12.2102 21C12.9994 21 13.7643 20.724 14.3754 20.2188C14.9864 19.7137 15.406 19.0103 15.5631 18.228H16.8837L18.5465 20.0777C18.6066 20.1462 18.6795 20.202 18.7611 20.2418C18.8426 20.2816 18.9312 20.3046 19.0216 20.3095C19.112 20.3145 19.2025 20.3012 19.2878 20.2705C19.3731 20.2398 19.4515 20.1922 19.5186 20.1306C19.5856 20.069 19.6398 19.9946 19.6782 19.9116C19.7165 19.8287 19.7382 19.7388 19.742 19.6473C19.7458 19.5558 19.7316 19.4644 19.7002 19.3785C19.6688 19.2926 19.6209 19.2139 19.5592 19.1468L5.87389 3.92007ZM12.2102 19.6123C11.7858 19.6121 11.3719 19.479 11.0254 19.2311C10.6789 18.9832 10.4169 18.6328 10.2754 18.228H14.1449C14.0035 18.6328 13.7415 18.9832 13.395 19.2311C13.0485 19.479 12.6346 19.6121 12.2102 19.6123ZM5.36754 16.8438C6.02614 15.6983 6.73607 13.044 6.73607 9.92252C6.73487 9.09544 6.91788 8.2787 7.27151 7.53296L15.6392 16.8438H5.36754ZM19.566 16.4346C19.4861 16.4659 19.4011 16.482 19.3154 16.4821C19.178 16.482 19.0438 16.44 18.9303 16.3616C18.8168 16.2832 18.7292 16.1721 18.6791 16.0426C18.0564 14.4378 17.6843 12.1503 17.6843 9.92252C17.6846 8.95407 17.4337 8.00249 16.9568 7.16275C16.4798 6.32301 15.7935 5.62449 14.9662 5.1369C14.139 4.64932 13.1998 4.38972 12.2424 4.38403C11.2849 4.37834 10.3428 4.62675 9.50991 5.10447C9.35242 5.19078 9.16776 5.21119 8.99557 5.16132C8.82337 5.11145 8.67738 4.99527 8.58892 4.83773C8.50046 4.6802 8.47661 4.49386 8.52246 4.31872C8.56832 4.14359 8.68024 3.99363 8.83419 3.90103C9.8752 3.30377 11.0529 2.99313 12.2497 3.00012C13.4465 3.0071 14.6205 3.33147 15.6546 3.94084C16.6888 4.55022 17.5468 5.42328 18.1431 6.4729C18.7394 7.52251 19.0531 8.71196 19.0528 9.92252C19.0528 12.9809 19.7414 14.9915 19.9526 15.5357C20.019 15.7065 20.0155 15.897 19.943 16.0652C19.8705 16.2335 19.7349 16.3657 19.566 16.4328V16.4346Z" fill="#4E6074"/>
</svg>
