<svg width="12" height="12" viewBox="0 0 12 12" fill="none" xmlns="http://www.w3.org/2000/svg">
<path id="Shape" d="M11 12C11.5523 12 12 11.5523 12 11C12 10.4477 11.5523 10 11 10L3.41421 10L11.7071 1.70711C12.0976 1.31658 12.0976 0.683418 11.7071 0.292894C11.3166 -0.0976296 10.6834 -0.0976297 10.2929 0.292894L2 8.58579L2 1C2 0.447715 1.55229 4.0306e-08 1 -7.97631e-09C0.447715 -5.62586e-08 -8.97416e-07 0.447715 -9.45698e-07 1L-1.81993e-06 11C-1.86821e-06 11.5523 0.447714 12 0.999999 12L11 12Z" fill="#DD5F5F"/>
</svg>
