<svg width="24" height="24" viewBox="0 0 24 24" fill="none" xmlns="http://www.w3.org/2000/svg">
<g id="Status=SRTP">
<path id="Vector" d="M23 2.52647V9.2355C23 19.4652 14.3123 22.8591 12.5729 23.4356C12.2014 23.5614 11.7986 23.5614 11.4271 23.4356C9.68542 22.8591 1 19.4652 1 9.2355V2.52647C1 2.04205 1.19315 1.57747 1.53697 1.23493C1.88079 0.892387 2.3471 0.699951 2.83333 0.699951H21.1667C21.6529 0.699951 22.1192 0.892387 22.463 1.23493C22.8068 1.57747 23 2.04205 23 2.52647Z" fill="#364860"/>
<path id="Vector_2" d="M22 3.26676V9.38864C22 18.723 14.1021 21.8199 12.5208 22.3459C12.1831 22.4608 11.8169 22.4608 11.4792 22.3459C9.89583 21.8199 2 18.723 2 9.38864V3.26676C2 2.82474 2.17559 2.40081 2.48816 2.08825C2.80072 1.77569 3.22464 1.6001 3.66667 1.6001H20.3333C20.7754 1.6001 21.1993 1.77569 21.5118 2.08825C21.8244 2.40081 22 2.82474 22 3.26676Z" fill="#4AA8FF"/>
</g>
</svg>
