<svg xmlns="http://www.w3.org/2000/svg" width="24" height="24" fill="#4e6074" viewBox="0 0 256 256"><path d="M216,48H40A16,16,0,0,0,24,64V224a15.85,15.85,0,0,0,9.24,14.5A16.13,16.13,0,0,0,40,240a15.89,15.89,0,0,0,10.25-3.78.69.69,0,0,0,.13-.11L82.5,208H216a16,16,0,0,0,16-16V64A16,16,0,0,0,216,48ZM40,224h0ZM216,192H82.5a16,16,0,0,0-10.3,3.75l-.12.11L40,224V64H216ZM116,128a12,12,0,1,1,12,12A12,12,0,0,1,116,128Zm-44,0a12,12,0,1,1,12,12A12,12,0,0,1,72,128Zm88,0a12,12,0,1,1,12,12A12,12,0,0,1,160,128Z"></path></svg>