<svg width="24" height="25" viewBox="0 0 24 25" fill="none" xmlns="http://www.w3.org/2000/svg">
<path d="M21.7748 21.1875L16.9656 16.3793C18.3595 14.7058 19.0546 12.5594 18.9062 10.3865C18.7579 8.2136 17.7775 6.18155 16.1691 4.71306C14.5607 3.24457 12.448 2.4527 10.2707 2.50219C8.09327 2.55167 6.01878 3.4387 4.47874 4.97874C2.9387 6.51878 2.05167 8.59327 2.00219 10.7707C1.9527 12.948 2.74457 15.0607 4.21306 16.6691C5.68155 18.2775 7.7136 19.2579 9.88649 19.4062C12.0594 19.5546 14.2058 18.8595 15.8793 17.4656L20.6875 22.2748C20.7589 22.3462 20.8437 22.4028 20.937 22.4415C21.0302 22.4801 21.1302 22.5 21.2312 22.5C21.3321 22.5 21.4321 22.4801 21.5254 22.4415C21.6187 22.4028 21.7034 22.3462 21.7748 22.2748C21.8462 22.2034 21.9028 22.1187 21.9415 22.0254C21.9801 21.9321 22 21.8321 22 21.7312C22 21.6302 21.9801 21.5302 21.9415 21.437C21.9028 21.3437 21.8462 21.2589 21.7748 21.1875ZM3.55803 10.9736C3.55803 9.60583 3.96362 8.26878 4.72351 7.13151C5.4834 5.99425 6.56347 5.10787 7.82713 4.58444C9.09078 4.06102 10.4813 3.92407 11.8228 4.19091C13.1643 4.45775 14.3965 5.11639 15.3637 6.08355C16.3308 7.05071 16.9895 8.28295 17.2563 9.62444C17.5231 10.9659 17.3862 12.3564 16.8628 13.6201C16.3393 14.8837 15.453 15.9638 14.3157 16.7237C13.1784 17.4836 11.8414 17.8892 10.4736 17.8892C8.6401 17.8872 6.88228 17.1579 5.5858 15.8614C4.28932 14.5649 3.56006 12.8071 3.55803 10.9736Z" fill="white"/>
</svg>
