<svg width="24" height="25" viewBox="0 0 24 25" fill="none" xmlns="http://www.w3.org/2000/svg">
<path d="M20.8783 5.02484C20.7717 4.77862 20.5951 4.56916 20.3704 4.42251C20.1458 4.27586 19.8829 4.1985 19.6146 4.20003H4.38205C4.11404 4.20056 3.85194 4.27885 3.62754 4.42541C3.40315 4.57197 3.22611 4.7805 3.11789 5.0257C3.00968 5.27089 2.97495 5.54223 3.01791 5.80678C3.06086 6.07133 3.17967 6.31772 3.35991 6.51608L3.36684 6.52387L9.22879 12.7831V19.4326C9.22873 19.6833 9.29669 19.9292 9.42542 20.1442C9.55415 20.3593 9.73883 20.5353 9.95977 20.6537C10.1807 20.772 10.4296 20.8282 10.6799 20.8161C10.9303 20.8041 11.1727 20.7244 11.3813 20.5855L14.1508 18.7385C14.3407 18.612 14.4964 18.4406 14.604 18.2395C14.7117 18.0384 14.768 17.8138 14.7679 17.5857V12.7831L20.6307 6.52387L20.6377 6.51608C20.8198 6.31863 20.9398 6.0719 20.9825 5.8067C21.0253 5.5415 20.9891 5.26956 20.8783 5.02484ZM13.7588 11.8406C13.5182 12.0955 13.3839 12.4326 13.3831 12.7831V17.5857L10.6136 19.4326V12.7831C10.6144 12.4313 10.4806 12.0926 10.2397 11.8362L4.38205 5.58482H19.6146L13.7588 11.8406Z" fill="white"/>
</svg>
