<svg width="24" height="24" viewBox="0 0 24 24" fill="none" xmlns="http://www.w3.org/2000/svg">
<path d="M19.3333 5.76923H4.66667C4.48986 5.76923 4.32029 5.84217 4.19526 5.972C4.07024 6.10184 4 6.27793 4 6.46154C4 6.64515 4.07024 6.82124 4.19526 6.95107C4.32029 7.08091 4.48986 7.15385 4.66667 7.15385H5.33333V19.6154C5.33333 19.9826 5.47381 20.3348 5.72386 20.5945C5.97391 20.8541 6.31304 21 6.66667 21H17.3333C17.687 21 18.0261 20.8541 18.2761 20.5945C18.5262 20.3348 18.6667 19.9826 18.6667 19.6154V7.15385H19.3333C19.5101 7.15385 19.6797 7.08091 19.8047 6.95107C19.9298 6.82124 20 6.64515 20 6.46154C20 6.27793 19.9298 6.10184 19.8047 5.972C19.6797 5.84217 19.5101 5.76923 19.3333 5.76923ZM17.3333 19.6154H6.66667V7.15385H17.3333V19.6154ZM8 3.69231C8 3.5087 8.07024 3.33261 8.19526 3.20277C8.32029 3.07294 8.48986 3 8.66667 3H15.3333C15.5101 3 15.6797 3.07294 15.8047 3.20277C15.9298 3.33261 16 3.5087 16 3.69231C16 3.87592 15.9298 4.05201 15.8047 4.18184C15.6797 4.31168 15.5101 4.38462 15.3333 4.38462H8.66667C8.48986 4.38462 8.32029 4.31168 8.19526 4.18184C8.07024 4.05201 8 3.87592 8 3.69231Z" fill="#DD5F5F"/>
</svg>
