<svg width="24" height="24" viewBox="0 0 24 24" fill="none" xmlns="http://www.w3.org/2000/svg">
<path d="M20.789 6.72975L9.26952 18.2492C9.20266 18.3162 9.12325 18.3693 9.03585 18.4055C8.94845 18.4417 8.85476 18.4604 8.76014 18.4604C8.66553 18.4604 8.57184 18.4417 8.48444 18.4055C8.39704 18.3693 8.31763 18.3162 8.25077 18.2492L3.21099 13.2095C3.0759 13.0744 3 12.8911 3 12.7001C3 12.509 3.0759 12.3258 3.21099 12.1907C3.34609 12.0556 3.52931 11.9797 3.72037 11.9797C3.91142 11.9797 4.09465 12.0556 4.22975 12.1907L8.76014 16.722L19.7703 5.71099C19.9053 5.5759 20.0886 5.5 20.2796 5.5C20.4707 5.5 20.6539 5.5759 20.789 5.71099C20.9241 5.84609 21 6.02931 21 6.22037C21 6.41142 20.9241 6.59465 20.789 6.72975Z" fill="#4FAE80"/>
</svg>
