<svg width="24" height="24" viewBox="0 0 24 24" fill="none" xmlns="http://www.w3.org/2000/svg">
<path d="M20.9888 17.1636C20.8216 18.4339 20.1977 19.6 19.2337 20.444C18.2696 21.288 17.0313 21.7522 15.75 21.7499C8.30626 21.7499 2.25001 15.6936 2.25001 8.24986C2.24771 6.96857 2.7119 5.73025 3.55588 4.7662C4.39986 3.80214 5.56592 3.17827 6.83626 3.01111C7.15739 2.97181 7.48261 3.03739 7.76342 3.19807C8.04422 3.35875 8.26555 3.60591 8.39438 3.90267L10.3744 8.32392V8.33517C10.4729 8.56247 10.5136 8.81063 10.4928 9.05749C10.472 9.30435 10.3904 9.54222 10.2553 9.74986C10.2384 9.77517 10.2206 9.79861 10.2019 9.82205L8.25001 12.1358C8.9522 13.5627 10.4447 15.042 11.8903 15.7461L14.1722 13.8045C14.1946 13.7857 14.2181 13.7682 14.2425 13.752C14.4497 13.6131 14.6885 13.5283 14.9369 13.5054C15.1853 13.4825 15.4355 13.5221 15.6647 13.6208L15.6769 13.6264L20.0934 15.6055C20.3909 15.7337 20.6389 15.9548 20.8003 16.2356C20.9616 16.5165 21.0278 16.842 20.9888 17.1636ZM19.5 16.9761C19.5 16.9761 19.4934 16.9761 19.4897 16.9761L15.0834 15.0017L12.8006 16.9442C12.7785 16.963 12.7553 16.9805 12.7313 16.9967C12.5154 17.1407 12.2659 17.2263 12.0071 17.245C11.7483 17.2638 11.489 17.215 11.2547 17.1036C9.49876 16.2552 7.74845 14.518 6.89907 12.7808C6.7866 12.5482 6.73613 12.2904 6.75255 12.0325C6.76898 11.7747 6.85174 11.5254 6.99282 11.3089C7.00872 11.2835 7.02659 11.2594 7.04626 11.2367L9.00001 8.92017L7.03126 4.51392C7.03089 4.51018 7.03089 4.50641 7.03126 4.50267C6.12212 4.62126 5.28739 5.0672 4.68339 5.75697C4.0794 6.44673 3.74755 7.33302 3.75001 8.24986C3.75348 11.4314 5.01888 14.4816 7.26856 16.7313C9.51825 18.981 12.5685 20.2464 15.75 20.2499C16.6663 20.253 17.5523 19.9223 18.2425 19.3196C18.9327 18.7169 19.3797 17.8835 19.5 16.9752V16.9761Z" fill="white"/>
<path d="M11.5076 5.75317C11.5075 5.6718 11.5235 5.59121 11.5546 5.51602C11.5858 5.44083 11.6314 5.37252 11.6889 5.31498C11.7465 5.25744 11.8148 5.2118 11.89 5.18068C11.9652 5.14956 12.0458 5.13357 12.1271 5.13361L15.8866 5.13416L14.7543 4.00176C14.6381 3.88563 14.5729 3.72813 14.5729 3.5639C14.5729 3.39968 14.6381 3.24218 14.7543 3.12605C14.8704 3.00993 15.0279 2.94469 15.1921 2.94469C15.3563 2.94469 15.5138 3.00993 15.63 3.12605L17.8192 5.31532C17.9354 5.43145 18.0006 5.58895 18.0006 5.75317C18.0006 5.9174 17.9354 6.0749 17.8192 6.19103L15.63 8.3803C15.5138 8.49642 15.3563 8.56166 15.1921 8.56166C15.0279 8.56166 14.8704 8.49642 14.7543 8.3803C14.6381 8.26417 14.5729 8.10667 14.5729 7.94244C14.5729 7.77822 14.6381 7.62071 14.7543 7.50459L15.8866 6.37219L12.1271 6.37274C12.0458 6.37278 11.9652 6.35679 11.89 6.32567C11.8148 6.29455 11.7465 6.24891 11.6889 6.19137C11.6314 6.13383 11.5858 6.06551 11.5546 5.99032C11.5235 5.91513 11.5075 5.83455 11.5076 5.75317Z" fill="white"/>
</svg>
