<svg width="100" height="102" viewBox="0 0 100 102" fill="none" xmlns="http://www.w3.org/2000/svg">
<g id="Group 2247">
<path id="Vector 3" d="M8.6875 20.0294C8.6875 20.0294 -1.40036 33.9437 0.165001 40.2052C0.110894 39.9626 6.77429 32.9001 6.77429 32.9001C7.12215 34.8134 23.2975 39.5095 23.2975 39.5095C25.445 40.8785 26.1852 41.8614 26.6021 44.0316V52.3802C32.1897 55.8567 37.3222 57.0103 49.7346 57.7719C62.9229 57.2098 68.3698 56.0419 73.215 52.3802C73.215 52.3802 72.6932 45.9448 73.215 43.6837C73.7368 41.4226 74.8948 40.1294 76.6936 39.5095C83.4046 37.9742 86.7174 36.2945 93.0429 33.0741L100 40.2052C98.9428 32.3646 97.1261 28.0247 91.6514 20.3773C87.3051 15.4109 84.5184 12.8059 78.7807 8.55017C72.5428 4.86457 69.0816 3.45721 62.9532 1.76695C52.3155 -0.411175 46.4515 -0.404504 36.1682 1.76695C29.8672 3.66662 26.7269 5.10003 22.08 8.55017C22.08 8.55017 4.51322 -1.53771 2.25214 0.20158C-0.00892752 1.94087 8.6875 20.0294 8.6875 20.0294Z" fill="#FF5E00"/>
<path id="Vector 4" d="M20.6976 73.9197C12.6175 70.3826 8.23958 67.7107 0.695801 61.7447C2.50969 69.2539 4.20076 73.2077 8.34866 79.8333C12.7684 85.8146 15.4841 88.4837 20.6976 92.1822C26.3355 96.0518 29.7168 97.7432 36.1772 99.835C41.9808 101.23 45.217 101.674 50.9612 101.748C56.818 101.455 59.8573 100.817 64.8754 99.6611C70.4104 97.4553 73.2303 96.0646 77.9201 93.3997C85.6964 97.7895 95.3129 102.792 96.7044 100.705C98.0958 98.6175 90.4429 81.7465 90.4429 81.7465C95.5469 74.4362 97.6349 69.5132 99.6612 61.2229C92.6739 66.7039 88.135 69.9023 79.4854 73.9197C68.7861 78.14 62.5545 79.495 50.9612 79.8333C37.455 79.5976 30.8636 78.2611 20.6976 73.9197Z" fill="#FF5E00"/>
</g>
</svg>
