<svg width="24" height="24" viewBox="0 0 24 24" fill="none" xmlns="http://www.w3.org/2000/svg">
<g id="Frame 2620">
<g id="Group 2624">
<rect id="Rectangle 2129" x="0.75" y="3.75" width="22.5" height="16.9615" rx="1.25" stroke="#FE5E00" stroke-width="1.5"/>
<path id="Vector" d="M19.2985 13.1985C19.246 13.2379 19.1862 13.2666 19.1226 13.2829C19.059 13.2992 18.9928 13.3028 18.9279 13.2935C18.8629 13.2842 18.8003 13.2622 18.7438 13.2288C18.6873 13.1953 18.638 13.1511 18.5986 13.0986C18.2973 12.6935 17.905 12.3649 17.4535 12.1391C17.002 11.9133 16.5037 11.7967 15.9989 11.7987C15.9006 11.7987 15.8045 11.7697 15.7225 11.7153C15.6406 11.661 15.5765 11.5837 15.5383 11.4931C15.5124 11.4316 15.499 11.3655 15.499 11.2988C15.499 11.232 15.5124 11.1659 15.5383 11.1044C15.5765 11.0138 15.6406 10.9365 15.7225 10.8822C15.8045 10.8278 15.9006 10.7988 15.9989 10.7988C16.2794 10.7988 16.5543 10.7201 16.7923 10.5717C17.0304 10.4233 17.222 10.2111 17.3455 9.95919C17.4689 9.70731 17.5193 9.42585 17.4909 9.14679C17.4624 8.86772 17.3562 8.60223 17.1844 8.38048C17.0127 8.15872 16.7821 7.98958 16.519 7.89228C16.2559 7.79497 15.9708 7.7734 15.6961 7.83001C15.4213 7.88663 15.168 8.01915 14.9648 8.21254C14.7616 8.40592 14.6167 8.65242 14.5466 8.92403C14.5301 8.98763 14.5014 9.04737 14.4619 9.09985C14.4224 9.15233 14.3729 9.19652 14.3163 9.22988C14.2597 9.26325 14.1971 9.28515 14.1321 9.29432C14.0671 9.3035 14.0009 9.29977 13.9372 9.28336C13.8736 9.26695 13.8139 9.23817 13.7614 9.19866C13.7089 9.15916 13.6648 9.10971 13.6314 9.05313C13.598 8.99655 13.5761 8.93395 13.567 8.86891C13.5578 8.80387 13.5615 8.73766 13.5779 8.67405C13.6753 8.29742 13.8591 7.9487 14.115 7.65564C14.3708 7.36258 14.6915 7.13327 15.0515 6.98596C15.4116 6.83865 15.801 6.77741 16.1889 6.8071C16.5768 6.83679 16.9524 6.95659 17.2858 7.15698C17.6192 7.35737 17.9013 7.63282 18.1095 7.9614C18.3178 8.28998 18.4464 8.66262 18.4853 9.04969C18.5242 9.43675 18.4722 9.82754 18.3335 10.191C18.1947 10.5544 17.9731 10.8804 17.6862 11.1432C18.366 11.4375 18.957 11.9046 19.4004 12.498C19.4398 12.5507 19.4684 12.6106 19.4846 12.6743C19.5008 12.738 19.5043 12.8043 19.4948 12.8694C19.4853 12.9345 19.4631 12.997 19.4294 13.0535C19.3958 13.11 19.3513 13.1593 19.2985 13.1985ZM15.9314 17.0481C15.9676 17.105 15.9919 17.1686 16.0028 17.2352C16.0137 17.3017 16.0111 17.3698 15.9951 17.4353C15.979 17.5008 15.9499 17.5623 15.9095 17.6163C15.869 17.6702 15.8181 17.7154 15.7597 17.7492C15.7013 17.7829 15.6367 17.8045 15.5698 17.8126C15.5028 17.8207 15.435 17.8153 15.3702 17.7965C15.3054 17.7777 15.2452 17.746 15.193 17.7033C15.1408 17.6606 15.0978 17.6078 15.0665 17.5481C14.7516 17.0148 14.303 16.5728 13.7652 16.2658C13.2273 15.9588 12.6187 15.7973 11.9993 15.7973C11.38 15.7973 10.7714 15.9588 10.2335 16.2658C9.69566 16.5728 9.24713 17.0148 8.93219 17.5481C8.90094 17.6078 8.85792 17.6606 8.80573 17.7033C8.75354 17.746 8.69325 17.7777 8.62849 17.7965C8.56374 17.8153 8.49585 17.8207 8.42891 17.8126C8.36198 17.8045 8.29738 17.7829 8.239 17.7492C8.18063 17.7154 8.12968 17.6702 8.08923 17.6163C8.04877 17.5623 8.01965 17.5008 8.00361 17.4353C7.98757 17.3698 7.98494 17.3017 7.99588 17.2352C8.00683 17.1686 8.03111 17.105 8.06729 17.0481C8.55198 16.2153 9.29102 15.5599 10.1758 15.1783C9.67794 14.7971 9.31204 14.2695 9.12954 13.6696C8.94705 13.0697 8.95712 12.4278 9.15836 11.8339C9.3596 11.24 9.74188 10.7242 10.2515 10.3588C10.761 9.99342 11.3723 9.79692 11.9993 9.79692C12.6264 9.79692 13.2376 9.99342 13.7472 10.3588C14.2568 10.7242 14.6391 11.24 14.8403 11.8339C15.0416 12.4278 15.0516 13.0697 14.8691 13.6696C14.6866 14.2695 14.3208 14.7971 13.8229 15.1783C14.7077 15.5599 15.4467 16.2153 15.9314 17.0481ZM11.9993 14.7984C12.3949 14.7984 12.7815 14.6811 13.1104 14.4613C13.4392 14.2416 13.6955 13.9293 13.8469 13.5639C13.9983 13.1985 14.0379 12.7964 13.9607 12.4085C13.8835 12.0205 13.6931 11.6642 13.4134 11.3845C13.1337 11.1049 12.7774 10.9144 12.3895 10.8372C12.0016 10.7601 11.5995 10.7997 11.2341 10.951C10.8687 11.1024 10.5563 11.3587 10.3366 11.6876C10.1169 12.0164 9.99957 12.4031 9.99957 12.7986C9.99957 13.329 10.2103 13.8376 10.5853 14.2126C10.9603 14.5877 11.469 14.7984 11.9993 14.7984ZM8.49974 11.2988C8.49974 11.1662 8.44707 11.039 8.35331 10.9452C8.25955 10.8515 8.13239 10.7988 7.99979 10.7988C7.71928 10.7988 7.4444 10.7201 7.20636 10.5717C6.96833 10.4233 6.77669 10.2111 6.65322 9.95919C6.52974 9.70731 6.47937 9.42585 6.50784 9.14679C6.5363 8.86772 6.64246 8.60223 6.81425 8.38048C6.98603 8.15872 7.21657 7.98958 7.47967 7.89228C7.74276 7.79497 8.02787 7.7734 8.30261 7.83001C8.57736 7.88663 8.83071 8.01915 9.03391 8.21254C9.23711 8.40592 9.382 8.65242 9.45213 8.92403C9.48528 9.05248 9.5681 9.1625 9.68236 9.22988C9.79663 9.29727 9.93299 9.31651 10.0614 9.28336C10.1899 9.25021 10.2999 9.16739 10.3673 9.05313C10.4347 8.93886 10.4539 8.8025 10.4208 8.67405C10.3234 8.29742 10.1395 7.9487 9.88371 7.65564C9.62789 7.36258 9.3072 7.13327 8.94716 6.98596C8.58712 6.83865 8.19767 6.77741 7.80979 6.8071C7.42191 6.83679 7.04632 6.95659 6.71289 7.15698C6.37947 7.35737 6.09741 7.63282 5.88917 7.9614C5.68093 8.28998 5.55225 8.66262 5.51337 9.04969C5.47449 9.43675 5.52648 9.82754 5.66521 10.191C5.80394 10.5544 6.02558 10.8804 6.31249 11.1432C5.63336 11.4378 5.04307 11.9048 4.60018 12.498C4.52054 12.6041 4.4863 12.7374 4.50499 12.8688C4.52369 13.0001 4.59378 13.1186 4.69985 13.1982C4.80593 13.2779 4.9393 13.3121 5.07061 13.2934C5.20193 13.2747 5.32045 13.2046 5.40009 13.0986C5.70142 12.6935 6.09364 12.3649 6.54518 12.1391C6.99672 11.9133 7.49496 11.7967 7.99979 11.7987C8.13239 11.7987 8.25955 11.746 8.35331 11.6523C8.44707 11.5585 8.49974 11.4314 8.49974 11.2988Z" fill="#FE5E00"/>
</g>
</g>
</svg>
