<svg width="29" height="28" viewBox="0 0 29 28" fill="none" xmlns="http://www.w3.org/2000/svg">
<path d="M27.3332 14.8022C27.3332 15.0149 27.2487 15.2189 27.0983 15.3693C26.9479 15.5198 26.7439 15.6043 26.5312 15.6043H24.927V17.2084C24.927 17.4212 24.8425 17.6252 24.6921 17.7756C24.5416 17.926 24.3376 18.0105 24.1249 18.0105C23.9122 18.0105 23.7082 17.926 23.5577 17.7756C23.4073 17.6252 23.3228 17.4212 23.3228 17.2084V15.6043H21.7187C21.5059 15.6043 21.3019 15.5198 21.1515 15.3693C21.0011 15.2189 20.9166 15.0149 20.9166 14.8022C20.9166 14.5895 21.0011 14.3854 21.1515 14.235C21.3019 14.0846 21.5059 14.0001 21.7187 14.0001H23.3228V12.3959C23.3228 12.1832 23.4073 11.9792 23.5577 11.8288C23.7082 11.6784 23.9122 11.5939 24.1249 11.5939C24.3376 11.5939 24.5416 11.6784 24.6921 11.8288C24.8425 11.9792 24.927 12.1832 24.927 12.3959V14.0001H26.5312C26.7439 14.0001 26.9479 14.0846 27.0983 14.235C27.2487 14.3854 27.3332 14.5895 27.3332 14.8022ZM21.5312 20.7025C21.6681 20.8655 21.7347 21.0762 21.7163 21.2883C21.6978 21.5004 21.5959 21.6965 21.4329 21.8335C21.2699 21.9704 21.0592 22.037 20.8471 22.0186C20.635 22.0001 20.4389 21.8982 20.302 21.7352C18.2847 19.333 15.5115 18.0105 12.4947 18.0105C9.47786 18.0105 6.70466 19.333 4.68742 21.7352C4.55047 21.8981 4.35444 21.9999 4.14244 22.0182C3.93044 22.0365 3.71985 21.9699 3.55698 21.833C3.39411 21.696 3.29231 21.5 3.27398 21.288C3.25565 21.076 3.32228 20.8654 3.45923 20.7025C4.95712 18.9199 6.81995 17.6536 8.89033 16.9758C7.63297 16.1927 6.66487 15.0214 6.1325 13.639C5.60013 12.2567 5.53246 10.7386 5.93972 9.31439C6.34698 7.89017 7.20701 6.63734 8.3897 5.74544C9.57239 4.85354 11.0134 4.37109 12.4947 4.37109C13.976 4.37109 15.417 4.85354 16.5997 5.74544C17.7824 6.63734 18.6424 7.89017 19.0497 9.31439C19.4569 10.7386 19.3893 12.2567 18.8569 13.639C18.3245 15.0214 17.3564 16.1927 16.0991 16.9758C18.1694 17.6536 20.0323 18.9199 21.5312 20.7025ZM12.4947 16.4064C13.5258 16.4064 14.5338 16.1006 15.3912 15.5277C16.2485 14.9548 16.9168 14.1406 17.3114 13.1879C17.706 12.2353 17.8092 11.187 17.6081 10.1757C17.4069 9.16437 16.9104 8.23541 16.1812 7.50628C15.4521 6.77715 14.5231 6.28061 13.5118 6.07945C12.5005 5.87828 11.4522 5.98153 10.4996 6.37613C9.54691 6.77073 8.73266 7.43896 8.15979 8.29632C7.58692 9.15369 7.28115 10.1617 7.28115 11.1928C7.28274 12.575 7.83254 13.9002 8.80992 14.8776C9.78731 15.855 11.1125 16.4048 12.4947 16.4064Z" fill="#4E6074"/>
</svg>
