<svg width="24" height="24" viewBox="0 0 24 24" fill="none" xmlns="http://www.w3.org/2000/svg">
<path d="M20.1334 15.1013L15.8935 13.2014L15.8818 13.196C15.6617 13.1018 15.4216 13.0641 15.1832 13.0861C14.9448 13.1081 14.7157 13.1892 14.5165 13.322C14.493 13.3375 14.4705 13.3543 14.449 13.3724L12.2584 15.2399C10.8706 14.5658 9.43775 13.1438 8.76365 11.774L10.6339 9.55006C10.6519 9.52756 10.669 9.50506 10.6852 9.48076C10.8151 9.28213 10.894 9.05445 10.9147 8.81798C10.9355 8.5815 10.8974 8.34357 10.804 8.12535V8.11455L8.89865 3.86742C8.77512 3.58236 8.5627 3.34489 8.29311 3.19047C8.02353 3.03605 7.71123 2.97296 7.40284 3.01062C6.1833 3.1711 5.06388 3.77001 4.25366 4.69552C3.44343 5.62102 2.9978 6.80981 3.00001 8.03985C3.00001 15.1859 8.81405 20.9999 15.9601 20.9999C17.1901 21.0021 18.3789 20.5565 19.3044 19.7463C20.2299 18.9361 20.8289 17.8166 20.9893 16.5971C21.0271 16.2888 20.9641 15.9766 20.8098 15.707C20.6556 15.4375 20.4183 15.225 20.1334 15.1013ZM15.9601 19.5599C12.9058 19.5566 9.97757 18.3418 7.81786 16.1821C5.65814 14.0224 4.44335 11.0941 4.44002 8.03985C4.43663 7.16099 4.75327 6.31094 5.33079 5.64845C5.90831 4.98597 6.70723 4.55635 7.57834 4.43983C7.57799 4.44342 7.57799 4.44704 7.57834 4.45063L9.46835 8.68066L7.60804 10.9073C7.58916 10.929 7.57201 10.9522 7.55674 10.9766C7.4213 11.1844 7.34185 11.4237 7.32608 11.6713C7.31031 11.9188 7.35876 12.1663 7.46674 12.3896C8.28215 14.0573 9.96246 15.725 11.6482 16.5395C11.8731 16.6465 12.122 16.6933 12.3705 16.6753C12.6189 16.6573 12.8585 16.5752 13.0657 16.4369C13.0888 16.4213 13.111 16.4045 13.1323 16.3865L15.3202 14.5199L19.5502 16.4144C19.5502 16.4144 19.5574 16.4144 19.5601 16.4144C19.445 17.2868 19.016 18.0873 18.3534 18.6662C17.6908 19.2452 16.84 19.5629 15.9601 19.5599Z" fill="white"/>
<path d="M12.7 8.90039H20.5" stroke="white" stroke-linecap="round"/>
<path d="M12.7 6.19922H20.5" stroke="white" stroke-linecap="round"/>
<path d="M12.7 3.5H20.5" stroke="white" stroke-linecap="round"/>
</svg>
