<svg width="24" height="25" viewBox="0 0 24 25" fill="none" xmlns="http://www.w3.org/2000/svg">
<path d="M12 19.5C10.9 19.5 10 20.4 10 21.5C10 22.6 10.9 23.5 12 23.5C13.1 23.5 14 22.6 14 21.5C14 20.4 13.1 19.5 12 19.5ZM6 1.5C4.9 1.5 4 2.4 4 3.5C4 4.6 4.9 5.5 6 5.5C7.1 5.5 8 4.6 8 3.5C8 2.4 7.1 1.5 6 1.5ZM6 7.5C4.9 7.5 4 8.4 4 9.5C4 10.6 4.9 11.5 6 11.5C7.1 11.5 8 10.6 8 9.5C8 8.4 7.1 7.5 6 7.5ZM6 13.5C4.9 13.5 4 14.4 4 15.5C4 16.6 4.9 17.5 6 17.5C7.1 17.5 8 16.6 8 15.5C8 14.4 7.1 13.5 6 13.5ZM18 5.5C19.1 5.5 20 4.6 20 3.5C20 2.4 19.1 1.5 18 1.5C16.9 1.5 16 2.4 16 3.5C16 4.6 16.9 5.5 18 5.5ZM12 13.5C10.9 13.5 10 14.4 10 15.5C10 16.6 10.9 17.5 12 17.5C13.1 17.5 14 16.6 14 15.5C14 14.4 13.1 13.5 12 13.5ZM18 13.5C16.9 13.5 16 14.4 16 15.5C16 16.6 16.9 17.5 18 17.5C19.1 17.5 20 16.6 20 15.5C20 14.4 19.1 13.5 18 13.5ZM18 7.5C16.9 7.5 16 8.4 16 9.5C16 10.6 16.9 11.5 18 11.5C19.1 11.5 20 10.6 20 9.5C20 8.4 19.1 7.5 18 7.5ZM12 7.5C10.9 7.5 10 8.4 10 9.5C10 10.6 10.9 11.5 12 11.5C13.1 11.5 14 10.6 14 9.5C14 8.4 13.1 7.5 12 7.5ZM12 1.5C10.9 1.5 10 2.4 10 3.5C10 4.6 10.9 5.5 12 5.5C13.1 5.5 14 4.6 14 3.5C14 2.4 13.1 1.5 12 1.5Z" fill="#4E6074"/>
</svg>
