<svg width="24" height="24" viewBox="0 0 24 24" fill="none" xmlns="http://www.w3.org/2000/svg">
<g id="Frame 2620">
<g id="Group 2624">
<rect id="Rectangle 2129" x="0.75" y="3.75" width="22.5" height="16.9615" rx="1.25" stroke="#4E6074" stroke-width="1.5"/>
<path id="Vector" d="M19.2985 13.1988C19.246 13.2382 19.1862 13.2668 19.1226 13.2831C19.059 13.2994 18.9928 13.303 18.9279 13.2938C18.8629 13.2845 18.8003 13.2625 18.7438 13.229C18.6873 13.1956 18.638 13.1513 18.5986 13.0988C18.2973 12.6938 17.905 12.3651 17.4535 12.1394C17.002 11.9136 16.5037 11.797 15.9989 11.7989C15.9006 11.7989 15.8045 11.7699 15.7225 11.7156C15.6406 11.6612 15.5765 11.5839 15.5383 11.4934C15.5124 11.4318 15.499 11.3658 15.499 11.299C15.499 11.2322 15.5124 11.1662 15.5383 11.1046C15.5765 11.0141 15.6406 10.9368 15.7225 10.8824C15.8045 10.8281 15.9006 10.7991 15.9989 10.7991C16.2794 10.799 16.5543 10.7203 16.7923 10.5719C17.0304 10.4235 17.222 10.2113 17.3455 9.95943C17.4689 9.70755 17.5193 9.4261 17.4909 9.14703C17.4624 8.86797 17.3562 8.60248 17.1844 8.38072C17.0127 8.15896 16.7821 7.98983 16.519 7.89252C16.2559 7.79522 15.9708 7.77365 15.6961 7.83026C15.4213 7.88687 15.168 8.0194 14.9648 8.21278C14.7616 8.40617 14.6167 8.65266 14.5466 8.92427C14.5301 8.98787 14.5014 9.04762 14.4619 9.1001C14.4224 9.15258 14.3729 9.19676 14.3163 9.23013C14.2597 9.2635 14.1971 9.28539 14.1321 9.29457C14.0671 9.30374 14.0009 9.30002 13.9372 9.2836C13.8736 9.26719 13.8139 9.23841 13.7614 9.19891C13.7089 9.1594 13.6648 9.10995 13.6314 9.05337C13.598 8.99679 13.5761 8.93419 13.567 8.86915C13.5578 8.80411 13.5615 8.7379 13.5779 8.6743C13.6753 8.29766 13.8591 7.94894 14.115 7.65588C14.3708 7.36282 14.6915 7.13352 15.0515 6.98621C15.4116 6.8389 15.801 6.77765 16.1889 6.80734C16.5768 6.83703 16.9524 6.95684 17.2858 7.15723C17.6192 7.35762 17.9013 7.63306 18.1095 7.96164C18.3178 8.29022 18.4464 8.66287 18.4853 9.04993C18.5242 9.43699 18.4722 9.82779 18.3335 10.1912C18.1947 10.5547 17.9731 10.8807 17.6862 11.1434C18.366 11.4377 18.957 11.9048 19.4004 12.4982C19.4398 12.5509 19.4684 12.6108 19.4846 12.6745C19.5008 12.7383 19.5043 12.8046 19.4948 12.8696C19.4853 12.9347 19.4631 12.9973 19.4294 13.0538C19.3958 13.1103 19.3513 13.1595 19.2985 13.1988ZM15.9314 17.0484C15.9676 17.1053 15.9919 17.1689 16.0028 17.2354C16.0137 17.302 16.0111 17.37 15.9951 17.4355C15.979 17.501 15.9499 17.5626 15.9095 17.6165C15.869 17.6705 15.8181 17.7157 15.7597 17.7494C15.7013 17.7831 15.6367 17.8047 15.5698 17.8129C15.5028 17.821 15.435 17.8155 15.3702 17.7967C15.3054 17.7779 15.2452 17.7462 15.193 17.7035C15.1408 17.6609 15.0978 17.608 15.0665 17.5483C14.7516 17.015 14.303 16.5731 13.7652 16.2661C13.2273 15.9591 12.6187 15.7976 11.9993 15.7976C11.38 15.7976 10.7714 15.9591 10.2335 16.2661C9.69566 16.5731 9.24713 17.015 8.93219 17.5483C8.90094 17.608 8.85792 17.6609 8.80573 17.7035C8.75354 17.7462 8.69325 17.7779 8.62849 17.7967C8.56374 17.8155 8.49585 17.821 8.42891 17.8129C8.36198 17.8047 8.29738 17.7831 8.239 17.7494C8.18063 17.7157 8.12968 17.6705 8.08923 17.6165C8.04877 17.5626 8.01965 17.501 8.00361 17.4355C7.98757 17.37 7.98494 17.302 7.99588 17.2354C8.00683 17.1689 8.03111 17.1053 8.06729 17.0484C8.55198 16.2156 9.29102 15.5602 10.1758 15.1786C9.67794 14.7974 9.31204 14.2698 9.12954 13.6699C8.94705 13.07 8.95712 12.428 9.15836 11.8341C9.3596 11.2403 9.74188 10.7244 10.2515 10.359C10.761 9.99366 11.3723 9.79717 11.9993 9.79717C12.6264 9.79717 13.2376 9.99366 13.7472 10.359C14.2568 10.7244 14.6391 11.2403 14.8403 11.8341C15.0416 12.428 15.0516 13.07 14.8691 13.6699C14.6866 14.2698 14.3208 14.7974 13.8229 15.1786C14.7077 15.5602 15.4467 16.2156 15.9314 17.0484ZM11.9993 14.7986C12.3949 14.7986 12.7815 14.6813 13.1104 14.4616C13.4392 14.2418 13.6955 13.9295 13.8469 13.5641C13.9983 13.1987 14.0379 12.7966 13.9607 12.4087C13.8835 12.0208 13.6931 11.6645 13.4134 11.3848C13.1337 11.1051 12.7774 10.9146 12.3895 10.8375C12.0016 10.7603 11.5995 10.7999 11.2341 10.9513C10.8687 11.1026 10.5563 11.359 10.3366 11.6878C10.1169 12.0167 9.99957 12.4033 9.99957 12.7988C9.99957 13.3292 10.2103 13.8379 10.5853 14.2129C10.9603 14.5879 11.469 14.7986 11.9993 14.7986ZM8.49974 11.299C8.49974 11.1664 8.44707 11.0392 8.35331 10.9455C8.25955 10.8517 8.13239 10.7991 7.99979 10.7991C7.71928 10.799 7.4444 10.7203 7.20636 10.5719C6.96833 10.4235 6.77669 10.2113 6.65322 9.95943C6.52974 9.70755 6.47937 9.4261 6.50784 9.14703C6.5363 8.86797 6.64246 8.60248 6.81425 8.38072C6.98603 8.15896 7.21657 7.98983 7.47967 7.89252C7.74276 7.79522 8.02787 7.77365 8.30261 7.83026C8.57736 7.88687 8.83071 8.0194 9.03391 8.21278C9.23711 8.40617 9.382 8.65266 9.45213 8.92427C9.48528 9.05272 9.5681 9.16274 9.68236 9.23013C9.79663 9.29752 9.93299 9.31675 10.0614 9.2836C10.1899 9.25046 10.2999 9.16764 10.3673 9.05337C10.4347 8.9391 10.4539 8.80275 10.4208 8.6743C10.3234 8.29766 10.1395 7.94894 9.88371 7.65588C9.62789 7.36282 9.3072 7.13352 8.94716 6.98621C8.58712 6.8389 8.19767 6.77765 7.80979 6.80734C7.42191 6.83703 7.04632 6.95684 6.71289 7.15723C6.37947 7.35762 6.09741 7.63306 5.88917 7.96164C5.68093 8.29022 5.55225 8.66287 5.51337 9.04993C5.47449 9.43699 5.52648 9.82779 5.66521 10.1912C5.80394 10.5547 6.02558 10.8807 6.31249 11.1434C5.63336 11.438 5.04307 11.9051 4.60018 12.4982C4.52054 12.6043 4.4863 12.7377 4.50499 12.869C4.52369 13.0003 4.59378 13.1188 4.69985 13.1985C4.80593 13.2781 4.9393 13.3124 5.07061 13.2937C5.20193 13.275 5.32045 13.2049 5.40009 13.0988C5.70142 12.6938 6.09364 12.3651 6.54518 12.1394C6.99672 11.9136 7.49496 11.797 7.99979 11.7989C8.13239 11.7989 8.25955 11.7463 8.35331 11.6525C8.44707 11.5588 8.49974 11.4316 8.49974 11.299Z" fill="#4E6074"/>
</g>
</g>
</svg>
