<svg width="24" height="24" viewBox="0 0 24 24" fill="none" xmlns="http://www.w3.org/2000/svg">
<path d="M22.6123 6.96504C22.4953 6.90235 22.3636 6.87258 22.231 6.87887C22.0985 6.88517 21.9701 6.9273 21.8597 7.00079L18.6 9.16962V6.87337C18.6 6.48439 18.4455 6.11133 18.1704 5.83628C17.8954 5.56123 17.5223 5.4067 17.1333 5.4067H9.89717C9.70267 5.4067 9.51615 5.48396 9.37862 5.62149C9.2411 5.75902 9.16383 5.94554 9.16383 6.14004C9.16383 6.33453 9.2411 6.52105 9.37862 6.65858C9.51615 6.79611 9.70267 6.87337 9.89717 6.87337H17.1333V14.9061C17.1333 15.1006 17.2106 15.2871 17.3481 15.4247C17.4856 15.5622 17.6722 15.6395 17.8667 15.6395C18.0612 15.6395 18.2477 15.5622 18.3852 15.4247C18.5227 15.2871 18.6 15.1006 18.6 14.9061V14.8484L21.8597 17.0218C21.9807 17.1004 22.1223 17.1415 22.2667 17.14C22.4612 17.14 22.6477 17.0628 22.7852 16.9252C22.9227 16.7877 23 16.6012 23 16.4067V7.6067C22.9991 7.47476 22.9626 7.3455 22.8943 7.23257C22.8261 7.11964 22.7286 7.02721 22.6123 6.96504ZM21.5333 15.0363L18.6 13.081V10.9324L21.5333 8.9817V15.0363ZM4.476 3.44687C4.4116 3.37427 4.33343 3.31518 4.24603 3.27302C4.15862 3.23086 4.06372 3.20647 3.96681 3.20125C3.86991 3.19604 3.77294 3.21011 3.68152 3.24265C3.59009 3.27519 3.50603 3.32556 3.43422 3.39082C3.3624 3.45609 3.30425 3.53496 3.26314 3.62286C3.22203 3.71077 3.19878 3.80596 3.19473 3.90292C3.19067 3.99987 3.20591 4.09667 3.23954 4.1877C3.27318 4.27873 3.32454 4.36217 3.39067 4.4332L4.27525 5.4067H2.46667C2.07768 5.4067 1.70463 5.56123 1.42958 5.83628C1.15452 6.11133 1 6.48439 1 6.87337V17.14C1 17.529 1.15452 17.9021 1.42958 18.1771C1.70463 18.4522 2.07768 18.6067 2.46667 18.6067H16.2753L18.0573 20.5665C18.1217 20.6391 18.1999 20.6982 18.2873 20.7404C18.3747 20.7825 18.4696 20.8069 18.5665 20.8122C18.6634 20.8174 18.7604 20.8033 18.8518 20.7708C18.9432 20.7382 19.0273 20.6878 19.0991 20.6226C19.1709 20.5573 19.2291 20.4784 19.2702 20.3905C19.3113 20.3026 19.3346 20.2074 19.3386 20.1105C19.3427 20.0135 19.3274 19.9167 19.2938 19.8257C19.2602 19.7347 19.2088 19.6512 19.1427 19.5802L4.476 3.44687ZM2.46667 17.14V6.87337H5.609L14.9425 17.14H2.46667Z" fill="#6C7A87"/>
</svg>
