<svg width="24" height="24" viewBox="0 0 24 24" fill="none" xmlns="http://www.w3.org/2000/svg">
<g id="Status=En cours d&#39;envoi">
<path id="Vector" d="M12.6923 3.69231V6.46154C12.6923 6.64515 12.6194 6.82124 12.4895 6.95107C12.3597 7.08091 12.1836 7.15385 12 7.15385C11.8164 7.15385 11.6403 7.08091 11.5105 6.95107C11.3806 6.82124 11.3077 6.64515 11.3077 6.46154V3.69231C11.3077 3.5087 11.3806 3.33261 11.5105 3.20277C11.6403 3.07294 11.8164 3 12 3C12.1836 3 12.3597 3.07294 12.4895 3.20277C12.6194 3.33261 12.6923 3.5087 12.6923 3.69231ZM15.9159 8.77644C16.0069 8.7764 16.097 8.75842 16.181 8.72352C16.2651 8.68863 16.3414 8.6375 16.4057 8.57308L18.364 6.61558C18.4939 6.48567 18.5669 6.30948 18.5669 6.12577C18.5669 5.94206 18.4939 5.76587 18.364 5.63596C18.2341 5.50606 18.0579 5.43308 17.8742 5.43308C17.6905 5.43308 17.5143 5.50606 17.3844 5.63596L15.4269 7.59433C15.33 7.6911 15.264 7.81442 15.2373 7.94871C15.2105 8.083 15.2241 8.22221 15.2764 8.34874C15.3288 8.47528 15.4175 8.58345 15.5313 8.65958C15.6451 8.73571 15.7789 8.77638 15.9159 8.77644ZM20.3077 11.3077H17.5385C17.3548 11.3077 17.1788 11.3806 17.0489 11.5105C16.9191 11.6403 16.8462 11.8164 16.8462 12C16.8462 12.1836 16.9191 12.3597 17.0489 12.4895C17.1788 12.6194 17.3548 12.6923 17.5385 12.6923H20.3077C20.4913 12.6923 20.6674 12.6194 20.7972 12.4895C20.9271 12.3597 21 12.1836 21 12C21 11.8164 20.9271 11.6403 20.7972 11.5105C20.6674 11.3806 20.4913 11.3077 20.3077 11.3077ZM16.4057 15.4269C16.2748 15.3026 16.1005 15.2343 15.92 15.2366C15.7394 15.2389 15.567 15.3116 15.4393 15.4393C15.3116 15.567 15.2389 15.7394 15.2366 15.92C15.2343 16.1005 15.3026 16.2748 15.4269 16.4057L17.3844 18.364C17.5143 18.4939 17.6905 18.5669 17.8742 18.5669C18.0579 18.5669 18.2341 18.4939 18.364 18.364C18.4939 18.2341 18.5669 18.0579 18.5669 17.8742C18.5669 17.6905 18.4939 17.5143 18.364 17.3844L16.4057 15.4269ZM12 16.8462C11.8164 16.8462 11.6403 16.9191 11.5105 17.0489C11.3806 17.1788 11.3077 17.3548 11.3077 17.5385V20.3077C11.3077 20.4913 11.3806 20.6674 11.5105 20.7972C11.6403 20.9271 11.8164 21 12 21C12.1836 21 12.3597 20.9271 12.4895 20.7972C12.6194 20.6674 12.6923 20.4913 12.6923 20.3077V17.5385C12.6923 17.3548 12.6194 17.1788 12.4895 17.0489C12.3597 16.9191 12.1836 16.8462 12 16.8462ZM7.59433 15.4269L5.63596 17.3844C5.50606 17.5143 5.43308 17.6905 5.43308 17.8742C5.43308 18.0579 5.50606 18.2341 5.63596 18.364C5.76587 18.4939 5.94206 18.5669 6.12577 18.5669C6.30948 18.5669 6.48567 18.4939 6.61558 18.364L8.57308 16.4057C8.69743 16.2748 8.76573 16.1005 8.76342 15.92C8.76111 15.7394 8.68837 15.567 8.5607 15.4393C8.43304 15.3116 8.26056 15.2389 8.08003 15.2366C7.8995 15.2343 7.72522 15.3026 7.59433 15.4269ZM7.15385 12C7.15385 11.8164 7.08091 11.6403 6.95107 11.5105C6.82124 11.3806 6.64515 11.3077 6.46154 11.3077H3.69231C3.5087 11.3077 3.33261 11.3806 3.20277 11.5105C3.07294 11.6403 3 11.8164 3 12C3 12.1836 3.07294 12.3597 3.20277 12.4895C3.33261 12.6194 3.5087 12.6923 3.69231 12.6923H6.46154C6.64515 12.6923 6.82124 12.6194 6.95107 12.4895C7.08091 12.3597 7.15385 12.1836 7.15385 12ZM6.61558 5.63596C6.48567 5.50606 6.30948 5.43308 6.12577 5.43308C5.94206 5.43308 5.76587 5.50606 5.63596 5.63596C5.50606 5.76587 5.43308 5.94206 5.43308 6.12577C5.43308 6.30948 5.50606 6.48567 5.63596 6.61558L7.59433 8.57308C7.72522 8.69743 7.8995 8.76573 8.08003 8.76342C8.26056 8.76111 8.43304 8.68837 8.5607 8.5607C8.68837 8.43304 8.76111 8.26056 8.76342 8.08003C8.76573 7.8995 8.69743 7.72522 8.57308 7.59433L6.61558 5.63596Z" fill="#FE5E00"/>
</g>
</svg>
