<svg width="359" height="314" viewBox="0 0 359 314" fill="none" xmlns="http://www.w3.org/2000/svg">
<g clip-path="url(#clip0_1304_2823)">
<path d="M242.244 6.54704C242.244 6.54704 183.047 -14.565 124.93 19.044C66.8197 52.653 37.4968 119.371 12.3202 172.815C-12.8563 226.26 1.6377 280.622 45.9981 305.407C90.3585 330.192 120.523 293.657 182.757 291.873C244.991 290.096 261.726 299.017 313.367 263.758C365.008 228.507 374.343 145.246 333.608 83.6342C292.858 22.0302 242.244 6.54704 242.244 6.54704Z" fill="#F9F9F9"/>
<path opacity="0.7" d="M242.244 6.54704C242.244 6.54704 183.047 -14.565 124.93 19.044C66.8197 52.653 37.4968 119.371 12.3202 172.815C-12.8563 226.26 1.6377 280.622 45.9981 305.407C90.3585 330.192 120.523 293.657 182.757 291.873C244.991 290.096 261.726 299.017 313.367 263.758C365.008 228.507 374.343 145.246 333.608 83.6342C292.858 22.0302 242.244 6.54704 242.244 6.54704Z" fill="#F9F9F9"/>
<g opacity="0.4">
<path d="M295.27 191.389C292.954 190.396 289.18 186.186 289.18 186.186C289.143 186.141 292.701 184.536 292.94 184.461C295.672 183.588 301.471 183.506 303.339 186.134C304.687 188.022 303.89 190.531 301.955 191.643C299.982 192.77 297.242 192.248 295.27 191.397V191.389Z" fill="#FE5E00"/>
<path d="M282.026 201.191C280.135 199.683 277.746 195.002 277.56 194.629C274.962 195.988 272.185 197.167 269.311 198.205C267.666 198.802 265.991 199.347 264.309 199.877C265.113 199.75 265.835 199.646 265.939 199.638C268.805 199.519 274.418 200.982 275.535 204.006C276.339 206.185 274.902 208.395 272.751 208.948C270.555 209.515 268.046 208.276 266.364 206.94C264.659 205.581 262.545 201.632 262.001 200.579C261.354 200.773 260.706 200.975 260.058 201.169C256.946 202.094 253.835 203.013 250.805 204.006C249.74 204.356 248.698 204.737 247.663 205.118C248.378 205.006 248.981 204.916 249.078 204.916C251.944 204.797 257.557 206.26 258.674 209.284C259.478 211.464 258.041 213.673 255.889 214.226C253.693 214.793 251.185 213.554 249.502 212.217C247.879 210.919 245.892 207.29 245.237 206.044C244.187 206.462 243.13 206.88 242.125 207.335C241.448 207.664 240.778 207.925 240.115 208.291C239.452 208.642 238.797 208.985 238.15 209.321C236.921 210.023 235.656 210.739 234.472 211.456C233.646 211.949 232.872 212.434 232.09 212.919C233.147 212.561 235.232 211.904 235.41 211.867C238.224 211.314 243.993 211.904 245.549 214.726C246.673 216.756 245.587 219.16 243.547 220.034C241.462 220.93 238.79 220.086 236.929 219.018C234.882 217.846 231.911 213.755 231.547 213.248C230.251 214.054 229.001 214.853 227.832 215.622C224.69 217.69 222.018 219.578 219.919 221.109L218.452 219.548C220.641 218.018 223.462 216.107 226.805 214.017C228.115 213.188 229.529 212.337 230.996 211.471C230.847 211.09 230.013 208.94 229.492 206.842C227.065 206.865 222.658 205.215 222.092 204.999C221.46 206.387 220.857 207.746 220.306 209.03C218.862 212.389 217.7 215.375 216.8 217.779L215.206 216.085C216.107 213.852 217.224 211.21 218.564 208.261C219.204 206.85 219.911 205.349 220.656 203.819C220.149 203.461 216.025 200.542 214.827 198.496C213.74 196.645 212.862 193.98 213.732 191.874C214.581 189.814 216.963 188.702 219.003 189.799C221.839 191.322 222.502 197.1 221.988 199.93C221.958 200.094 221.422 201.871 221.073 202.99C221.378 202.363 221.668 201.759 221.996 201.117C222.628 199.847 223.298 198.608 224.013 197.264C224.378 196.63 224.75 195.988 225.13 195.338C225.487 194.689 225.949 194.047 226.358 193.39C227.341 191.889 228.413 190.419 229.522 188.963C228.42 188.403 224.527 186.365 223.164 184.693C221.81 183.028 220.544 180.527 221.08 178.317C221.609 176.152 223.79 174.689 225.971 175.466C229.001 176.541 230.534 182.147 230.452 185.029C230.452 185.208 230.155 187.268 229.976 188.396C230.653 187.522 231.316 186.649 232.031 185.79C234.078 183.312 236.237 180.863 238.373 178.414C239.028 177.668 239.668 176.906 240.316 176.16C239.921 175.966 235.239 173.644 233.713 171.77C232.358 170.105 231.093 167.605 231.629 165.395C232.157 163.23 234.338 161.767 236.519 162.543C239.549 163.618 241.083 169.225 241.001 172.106C241.001 172.323 240.577 175.286 240.428 176.033C241.85 174.376 243.256 172.703 244.574 171.009C246.398 168.665 248.058 166.268 249.487 163.82C249.301 163.73 244.41 161.326 242.847 159.408C241.492 157.743 240.227 155.242 240.763 153.032C241.291 150.867 243.472 149.404 245.654 150.18C248.683 151.255 250.217 156.862 250.135 159.744C250.135 159.968 249.673 163.155 249.547 163.73C249.629 163.581 249.733 163.446 249.822 163.297C251.319 160.669 252.443 157.929 253.373 155.324C253.917 153.809 254.348 152.323 254.736 150.875C253.775 150.524 249.42 148.859 247.827 147.284C246.294 145.776 244.768 143.432 245.058 141.177C245.341 138.968 247.358 137.273 249.606 137.803C252.74 138.535 254.87 143.947 255.108 146.814C255.123 146.97 255.078 148.568 255.026 149.733C255.19 149.076 255.376 148.404 255.517 147.769C256.068 145.395 256.433 143.185 256.738 141.23C256.902 140.117 257.028 139.102 257.14 138.154C256.381 137.318 253.366 133.899 252.681 131.801C252.018 129.755 251.736 126.971 253.031 125.097C254.296 123.268 256.865 122.693 258.621 124.201C261.063 126.299 260.475 132.084 259.358 134.742C259.262 134.974 257.348 138.385 257.311 138.34C257.311 138.34 257.274 138.303 257.267 138.288C257.177 139.199 257.08 140.184 256.947 141.244C256.686 143.215 256.366 145.432 255.867 147.829C255.368 150.225 254.758 152.816 253.872 155.481C252.986 158.153 251.922 160.923 250.455 163.633C250.44 163.663 250.418 163.693 250.403 163.723C251.08 163.066 253.023 161.281 253.187 161.162C255.517 159.475 260.996 157.586 263.587 159.497C265.455 160.871 265.478 163.506 263.989 165.163C262.47 166.851 259.693 167.209 257.557 167.022C255.145 166.813 250.582 164.223 250.217 164.021C248.795 166.589 247.127 169.113 245.304 171.569C244.261 172.972 243.167 174.361 242.051 175.734C242.653 175.182 243.197 174.697 243.279 174.637C245.609 172.95 251.088 171.061 253.678 172.972C255.547 174.346 255.569 176.981 254.08 178.638C252.562 180.326 249.785 180.684 247.649 180.497C245.482 180.311 241.544 178.183 240.51 177.608C240.078 178.131 239.653 178.653 239.214 179.176C237.13 181.677 235.038 184.155 233.058 186.656C232.358 187.537 231.703 188.433 231.048 189.321C231.584 188.836 232.038 188.425 232.112 188.373C234.442 186.686 239.921 184.797 242.512 186.708C244.381 188.082 244.403 190.717 242.914 192.375C241.395 194.062 238.619 194.42 236.482 194.233C234.413 194.054 230.765 192.121 229.529 191.441C228.882 192.375 228.234 193.308 227.646 194.241C227.259 194.89 226.849 195.48 226.492 196.152C226.127 196.809 225.77 197.458 225.42 198.101C224.787 199.362 224.117 200.669 223.529 201.915C223.112 202.781 222.733 203.617 222.346 204.454C223.03 203.573 224.408 201.863 224.534 201.736C225.896 200.392 228.614 198.757 231.13 198.25C231.331 198.048 231.547 197.869 231.777 197.712C233.616 196.466 236.214 196.846 237.316 198.892C238.842 201.729 236.222 206.917 234.234 208.992C234.115 209.112 232.693 210.299 231.785 211.038C232.388 210.687 232.961 210.344 233.586 209.985C234.807 209.276 236.05 208.612 237.39 207.888C238.046 207.559 238.708 207.231 239.378 206.895C240.033 206.551 240.77 206.268 241.477 205.947C243.122 205.245 244.82 204.61 246.554 204.006C245.944 202.931 243.815 199.078 243.599 196.928C243.383 194.786 243.703 192.001 245.371 190.456C247.001 188.941 249.629 188.926 251.021 190.784C252.956 193.36 251.147 198.884 249.495 201.236C249.391 201.385 248.021 202.938 247.247 203.782C248.289 203.431 249.324 203.072 250.388 202.744C253.463 201.811 256.604 200.96 259.731 200.101C260.691 199.84 261.644 199.564 262.597 199.295C262.373 198.914 259.746 194.39 259.507 191.979C259.291 189.836 259.612 187.052 261.279 185.506C262.909 183.991 265.537 183.976 266.929 185.835C268.865 188.41 267.056 193.935 265.403 196.286C265.277 196.466 263.296 198.698 262.768 199.243C264.867 198.646 266.959 198.033 268.991 197.347C271.798 196.398 274.5 195.316 277.046 194.069C276.942 193.89 274.18 189.179 273.934 186.716C273.718 184.573 274.039 181.789 275.706 180.243C277.336 178.728 279.964 178.713 281.356 180.572C283.292 183.147 281.483 188.672 279.83 191.023C279.704 191.21 277.567 193.614 277.15 194.024C277.299 193.95 277.463 193.89 277.619 193.815C280.314 192.449 282.756 190.792 284.967 189.127C286.255 188.164 287.431 187.164 288.547 186.171C287.944 185.35 285.227 181.55 284.758 179.355C284.312 177.25 284.327 174.45 285.808 172.726C287.26 171.039 289.873 170.74 291.466 172.427C293.669 174.771 292.478 180.46 291.093 182.983C291.019 183.118 290.103 184.431 289.418 185.372C289.917 184.917 290.438 184.454 290.915 184.006C292.686 182.334 294.198 180.691 295.53 179.228C296.282 178.392 296.945 177.616 297.555 176.884C297.384 175.764 296.751 171.248 297.332 169.12C297.905 167.045 299.2 164.566 301.307 163.723C303.369 162.901 305.826 163.835 306.466 166.074C307.344 169.172 303.674 173.674 301.285 175.271C301.076 175.406 297.607 177.198 297.592 177.145C297.592 177.145 297.585 177.093 297.585 177.078C297.012 177.795 296.386 178.549 295.687 179.37C294.384 180.871 292.902 182.543 291.16 184.267C289.426 185.992 287.498 187.813 285.287 189.545C283.076 191.285 280.664 193.009 277.947 194.457C277.917 194.472 277.88 194.487 277.85 194.502C278.773 194.323 281.379 193.92 281.58 193.912C284.446 193.793 290.059 195.256 291.175 198.28C291.979 200.46 290.542 202.669 288.391 203.222C286.195 203.789 283.686 202.55 282.004 201.214L282.026 201.191Z" fill="#FE5E00"/>
<path d="M255.264 150.539C255.205 150.524 257.296 147.209 257.445 147.015C259.247 144.776 264.041 141.498 267.041 142.655C269.207 143.484 269.922 146.022 268.917 148.016C267.897 150.046 265.314 151.129 263.207 151.509C260.728 151.965 255.264 150.539 255.264 150.539Z" fill="#FE5E00"/>
</g>
<path d="M231.614 65.1948H127.23C122.354 65.1948 118.401 69.1589 118.401 74.0487V287.304C118.401 292.194 122.354 296.158 127.23 296.158H231.614C236.49 296.158 240.443 292.194 240.443 287.304V74.0487C240.443 69.1589 236.49 65.1948 231.614 65.1948Z" fill="#22334D"/>
<path opacity="0.95" d="M236.222 285.759V75.6015C236.222 72.5959 233.792 70.1593 230.795 70.1593H128.049C125.052 70.1593 122.622 72.5959 122.622 75.6015L122.622 285.759C122.622 288.764 125.052 291.201 128.049 291.201H230.795C233.792 291.201 236.222 288.764 236.222 285.759Z" fill="white"/>
<path d="M179.124 282.758C182.516 282.758 185.266 280 185.266 276.599C185.266 273.197 182.516 270.44 179.124 270.44C175.732 270.44 172.983 273.197 172.983 276.599C172.983 280 175.732 282.758 179.124 282.758Z" fill="#22334D"/>
<path opacity="0.7" d="M212.646 121.461H146.354C140.749 121.461 136.156 126.067 136.156 131.689V138.505C136.156 144.126 140.749 148.732 146.354 148.732H212.646L222.844 154.794V131.689C222.844 126.067 218.259 121.461 212.646 121.461Z" fill="#C0D1D9"/>
<path opacity="0.15" d="M146.354 159.408H212.646C218.251 159.408 222.844 164.006 222.844 169.635V176.451C222.844 182.072 218.251 186.679 212.646 186.679H146.354L136.156 192.74V169.635C136.156 164.006 140.741 159.408 146.354 159.408Z" fill="#407BFF"/>
<path opacity="0.7" d="M212.646 197.354H146.354C140.749 197.354 136.156 201.96 136.156 207.581V214.397C136.156 220.019 140.749 224.625 146.354 224.625H212.646L222.844 230.687V207.581C222.844 201.96 218.259 197.354 212.646 197.354Z" fill="#C0D1D9"/>
<path d="M190.067 75.1238H168.784C166.535 75.1238 164.712 76.952 164.712 79.2073C164.712 81.4626 166.535 83.2909 168.784 83.2909H190.067C192.316 83.2909 194.139 81.4626 194.139 79.2073C194.139 76.952 192.316 75.1238 190.067 75.1238Z" fill="#22334D"/>
<path d="M107.689 100.402C104.063 91.9433 123.873 83.0894 129.463 96.2582C138.97 100.402 126.821 118.02 129.568 121.006C132.322 123.992 134.384 120.371 134.384 120.371C134.384 120.371 137.161 127.784 130.089 133.734C123.739 139.072 104.666 140.52 104.622 130.009C104.562 116.37 112.461 111.525 107.689 100.409V100.402Z" fill="#263238"/>
<path d="M125.905 278.002L120.575 281.115L107.778 266.446L114.418 260.436L125.905 278.002Z" fill="#FF8B7B"/>
<path d="M119.972 279.771L125.466 275.539C125.667 275.382 125.927 275.389 126.091 275.554L129.776 279.152C130.156 279.525 130.074 280.227 129.605 280.57C127.662 282.011 126.664 282.616 124.245 284.482C122.756 285.624 119.793 288.14 117.739 289.723C115.729 291.268 114.15 289.484 114.872 288.648C118.126 284.923 118.833 282.698 119.361 280.682C119.458 280.316 119.674 279.995 119.964 279.771H119.972Z" fill="#263238"/>
<path d="M118.736 281.989C118.252 282.362 117.746 282.638 117.337 282.616C117.076 282.601 116.875 282.481 116.734 282.25C116.652 282.108 116.644 281.959 116.711 281.809C117.076 281.04 119.734 280.473 120.031 280.413C120.091 280.398 120.15 280.428 120.173 280.481C120.203 280.533 120.188 280.6 120.15 280.645C119.793 281.04 119.272 281.578 118.736 281.996V281.989ZM117.15 281.712C117.061 281.78 116.994 281.847 116.964 281.921C116.935 281.981 116.942 282.041 116.979 282.101C117.076 282.257 117.203 282.339 117.374 282.347C117.858 282.369 118.699 281.794 119.652 280.787C118.751 281.003 117.619 281.361 117.15 281.712Z" fill="#407BFF"/>
<path d="M120.128 280.652C120.128 280.652 120.091 280.675 120.076 280.682C119.309 280.884 117.411 280.779 117.113 280.189C117.046 280.048 117.024 279.824 117.322 279.547C117.545 279.346 117.806 279.241 118.103 279.241C119.079 279.249 120.113 280.398 120.158 280.443C120.188 280.481 120.203 280.533 120.18 280.578C120.173 280.607 120.151 280.63 120.128 280.652ZM117.567 279.689C117.567 279.689 117.523 279.727 117.5 279.749C117.307 279.936 117.352 280.025 117.366 280.055C117.545 280.406 118.915 280.585 119.756 280.466C119.428 280.152 118.714 279.532 118.074 279.532C117.88 279.532 117.716 279.585 117.567 279.697V279.689Z" fill="#407BFF"/>
<path d="M106.535 131.099C106.185 132.704 105.783 134.152 105.336 135.653C104.897 137.138 104.428 138.617 103.9 140.072C102.85 142.991 101.689 145.88 100.282 148.687L99.1874 150.778C98.7929 151.464 98.4058 152.151 97.9964 152.831L97.3561 153.838C97.1328 154.182 96.9616 154.488 96.6564 154.891C96.5075 155.085 96.3586 155.279 96.1576 155.511C95.9492 155.742 95.7556 155.966 95.309 156.317C95.0186 156.504 94.8102 156.713 94.036 156.922C93.8946 156.959 93.6117 156.996 93.3809 156.996C93.1576 156.996 92.8673 156.966 92.5844 156.884C92.0484 156.742 91.5571 156.384 91.3114 156.108C90.7829 155.526 90.6786 155.1 90.5893 154.839C90.5 154.548 90.4776 154.346 90.4479 154.152C90.3809 153.443 90.4255 152.995 90.4702 152.532C90.5223 152.084 90.5893 151.666 90.6712 151.263C90.8201 150.457 91.0211 149.688 91.2221 148.934C91.6389 147.418 92.1303 145.97 92.7184 144.514L95.6589 145.171L95.4653 149.613C95.4281 150.337 95.4132 151.061 95.4057 151.748C95.4057 152.092 95.4132 152.428 95.4355 152.726C95.4579 153.017 95.4951 153.323 95.5323 153.361C95.5323 153.361 95.5472 153.338 95.5174 153.226C95.4802 153.152 95.4579 152.898 95.0559 152.45C94.8698 152.241 94.4603 151.942 94.0137 151.823C93.7829 151.756 93.5372 151.733 93.3586 151.726C93.1725 151.726 92.9342 151.763 92.8375 151.785C92.2494 151.95 92.1973 152.047 92.0558 152.129C91.8995 152.241 91.959 152.181 91.9888 152.129L92.16 151.838L93.1576 150.046C93.4926 149.419 93.7978 148.777 94.1253 148.142L95.041 146.194C96.2023 143.559 97.2519 140.856 98.1676 138.087C98.6291 136.705 99.0534 135.309 99.4778 133.913C99.8872 132.532 100.282 131.077 100.617 129.755L106.542 131.099H106.535Z" fill="#FF8B7B"/>
<path d="M103.989 123.327C101.823 123.678 98.4059 137.437 98.4059 137.437L103.386 141.282C103.386 141.282 108.389 131.338 108.597 126.866C108.746 123.626 105.619 123.066 103.997 123.327H103.989Z" fill="#FF8B7B"/>
<path d="M96.18 145.873L95.3388 139.027L91.4305 144.776C91.4305 144.776 91.9293 147.142 94.3413 147.53L96.18 145.865V145.873Z" fill="#FF8B7B"/>
<path d="M123.493 289.611L117.538 289.82L116.391 268.969L124.662 269.088L123.493 289.611Z" fill="#FF8B7B"/>
<path d="M117.128 287.916L123.806 287.871C124.051 287.871 124.237 288.036 124.252 288.274L124.654 293.567C124.699 294.12 124.193 294.642 123.627 294.635C121.304 294.613 120.188 294.486 117.255 294.501C115.446 294.516 112.796 294.717 110.302 294.739C107.86 294.754 107.838 292.283 108.895 292.052C113.622 291.014 114.448 289.626 116.108 288.289C116.406 288.051 116.771 287.916 117.128 287.916Z" fill="#263238"/>
<path d="M103.624 123.29C103.624 123.29 100.661 124.037 100.617 159.363C110.093 160.206 119.89 161.072 124.498 161.483C125.689 151.636 126.664 145.582 134.578 125.858C134.578 125.858 129.754 124.313 124.654 123.611C120.664 123.059 117.396 122.641 113.808 122.648C109.081 122.663 103.624 123.29 103.624 123.29Z" fill="#364860"/>
<path opacity="0.2" d="M129.873 130.367L131.146 134.72C130.148 137.415 129.322 139.796 128.63 141.939C127.907 137.915 128.912 132.667 129.88 130.367H129.873Z" fill="black"/>
<path d="M95.3313 139.027L91.4305 144.776L96.1725 144.499L98.711 139.244L95.3313 139.027Z" fill="#FF8B7B"/>
<path d="M97.8103 152.248L102.314 152.181C102.939 152.174 103.416 151.614 103.327 151.002L101.934 140.961C101.86 140.438 101.413 140.057 100.892 140.065L96.3884 140.132C95.7631 140.139 95.2867 140.699 95.376 141.312L96.7681 151.352C96.8426 151.875 97.2892 152.256 97.8103 152.248Z" fill="#263238"/>
<path d="M125.577 111.189C124.319 114.653 122.592 121.043 124.654 123.611C124.654 123.611 120.203 127.65 112.818 130.815C110.332 124.977 113.815 122.648 113.815 122.648C117.858 122.058 118.23 119.132 117.999 116.332L125.585 111.181L125.577 111.189Z" fill="#FF8B7B"/>
<path d="M109.222 107.217C108.597 117.587 102.381 120.558 103.84 125.858C105.902 133.331 114.314 127.478 114.314 127.478C114.314 127.478 109.736 128.964 109.446 125.343C109.207 122.379 119.771 122.82 116.838 115.795C114.962 111.293 109.222 107.217 109.222 107.217Z" fill="#263238"/>
<path opacity="0.2" d="M123.411 113.809L117.992 116.332C118.051 116.997 118.066 117.661 118.014 118.303C119.146 118.4 122.071 117.542 123.18 115.72C123.605 115.026 123.478 114.19 123.411 113.809Z" fill="black"/>
<path d="M126.515 101.439C127.059 107.329 127.416 109.808 124.945 113.257C121.223 118.445 113.89 117.833 111.605 112.227C109.543 107.18 108.999 98.4007 114.337 95.1906C119.592 92.0328 125.979 95.549 126.523 101.439H126.515Z" fill="#FF8B7B"/>
<path d="M125.22 95.5415C120.59 92.3538 116.741 98.4679 124.96 104.425C133.178 110.383 130.468 99.1622 125.22 95.5415Z" fill="#263238"/>
<path d="M122.756 93.8245C124.669 95.549 113.279 101.909 107.086 99.8042C100.9 97.7065 105.858 92.951 108.121 92.3687C106.185 94.2425 109.572 97.0868 111.217 95.3101C112.863 93.5333 118.922 90.3606 122.756 93.8245Z" fill="#263238"/>
<path d="M100.617 159.363C100.617 159.363 88.0136 212.882 89.1154 226.394C90.4032 242.191 107.629 267.655 107.629 267.655L115.543 260.459C115.543 260.459 107.681 239.593 101.875 226.013C103.736 212.426 120.188 174.04 120.188 161.11L100.609 159.37L100.617 159.363Z" fill="#407BFF"/>
<path opacity="0.6" d="M100.617 159.363C100.617 159.363 88.0136 212.882 89.1154 226.394C90.4032 242.191 107.629 267.655 107.629 267.655L115.543 260.459C115.543 260.459 107.681 239.593 101.875 226.013C103.736 212.426 120.188 174.04 120.188 161.11L100.609 159.37L100.617 159.363Z" fill="#22334D"/>
<path d="M117.002 261.526L107.659 268.521L105.255 266.692L115.513 258.57L117.002 261.526Z" fill="#407BFF"/>
<path opacity="0.2" d="M109.937 182.901C102.999 192.546 102.657 210.284 103.088 220.243C105.471 211.09 110.466 197.414 114.448 185.103C114.359 180.37 113.19 178.385 109.937 182.901Z" fill="black"/>
<path d="M105.098 159.408C105.098 159.408 109.706 205.633 111.255 221.228C113.086 239.75 115.773 269.454 115.773 269.454L124.662 269.081C124.662 269.081 126.612 243.9 125.161 227.305C125.429 205.275 128.667 175.339 124.498 161.483L105.098 159.408Z" fill="#407BFF"/>
<path opacity="0.6" d="M105.098 159.408C105.098 159.408 109.706 205.633 111.255 221.228C113.086 239.75 115.773 269.454 115.773 269.454L124.662 269.081C124.662 269.081 126.612 243.9 125.161 227.305C125.429 205.275 128.667 175.339 124.498 161.483L105.098 159.408Z" fill="#22334D"/>
<path d="M125.332 270.716L115.133 270.425L114.418 267.207L125.957 266.886L125.332 270.716Z" fill="#407BFF"/>
<path d="M117.389 110.636C117.151 110.719 116.89 110.786 116.607 110.831C116.533 110.845 116.458 110.793 116.443 110.711C116.428 110.636 116.481 110.562 116.562 110.547C118.639 110.226 119.384 108.613 119.391 108.598C119.421 108.524 119.51 108.494 119.577 108.531C119.652 108.561 119.682 108.651 119.652 108.718C119.622 108.778 119.026 110.077 117.389 110.636Z" fill="#263238"/>
<path d="M128.146 105.456C128.079 106.68 127.446 107.755 126.687 108.412C125.54 109.405 124.327 108.531 124.111 107.113C123.917 105.836 124.275 103.783 125.682 103.335C127.066 102.902 128.228 104.052 128.146 105.456Z" fill="#FF8B7B"/>
<path d="M136.178 133.025C136.29 134.108 136.349 135.048 136.387 136.056C136.424 137.049 136.439 138.034 136.431 139.027C136.401 141.013 136.275 142.991 136.044 144.985C135.821 146.978 135.456 148.971 134.927 150.964C134.667 151.957 134.339 152.95 133.967 153.936C133.781 154.428 133.573 154.921 133.349 155.406C133.349 155.421 133.238 155.638 133.163 155.779C133.081 155.936 132.992 156.078 132.895 156.212C132.694 156.496 132.478 156.72 132.255 156.929C131.808 157.317 131.362 157.571 130.952 157.75C130.141 158.094 129.471 158.213 128.838 158.288C128.213 158.355 127.639 158.37 127.081 158.362C125.972 158.34 124.952 158.228 123.947 158.086C121.945 157.773 120.039 157.347 118.163 156.84C116.287 156.324 114.448 155.757 112.624 155.152C110.808 154.51 109.014 153.876 107.227 153.122L108.158 150.248C109.967 150.643 111.806 151.061 113.637 151.412C115.461 151.793 117.292 152.144 119.116 152.428C120.932 152.711 122.749 152.972 124.505 153.084C125.376 153.144 126.24 153.174 127.029 153.129C127.416 153.107 127.788 153.07 128.101 153.002C128.406 152.943 128.659 152.853 128.719 152.808C128.734 152.793 128.697 152.793 128.607 152.868C128.54 152.913 128.496 152.965 128.429 153.055L128.339 153.189C128.339 153.189 128.272 153.338 128.309 153.241C128.451 152.853 128.592 152.465 128.711 152.062C128.957 151.255 129.173 150.434 129.352 149.583C129.716 147.889 129.94 146.134 130.104 144.357C130.26 142.581 130.319 140.774 130.312 138.967C130.312 138.064 130.312 137.161 130.275 136.258C130.238 135.369 130.193 134.421 130.141 133.615L136.186 133.003L136.178 133.025Z" fill="#FF8B7B"/>
<path d="M134.548 125.858C137.116 127.538 136.245 142.185 136.245 142.185L130.2 143.402C130.2 143.402 130.148 135.974 129.501 131.099C129.061 127.807 132.716 124.671 134.548 125.866V125.858Z" fill="#FF8B7B"/>
<path d="M113.853 288.603C113.711 288.431 113.667 288.2 113.726 287.916C113.778 287.677 113.92 287.565 114.031 287.52C114.746 287.199 116.473 288.356 116.667 288.491C116.711 288.521 116.734 288.58 116.719 288.633C116.704 288.685 116.659 288.73 116.607 288.745C115.825 288.931 114.433 289.17 113.912 288.67C113.89 288.648 113.875 288.625 113.853 288.61V288.603ZM116.22 288.543C115.513 288.103 114.508 287.603 114.136 287.774C114.091 287.797 114.031 287.834 114.009 287.953C113.964 288.177 114.002 288.342 114.121 288.454C114.404 288.73 115.178 288.76 116.227 288.543H116.22Z" fill="#407BFF"/>
<path d="M115.811 288.073C115.394 287.558 115.036 286.886 115.148 286.46C115.185 286.333 115.289 286.109 115.647 286.065C115.87 286.035 116.071 286.095 116.227 286.251C116.83 286.819 116.726 288.536 116.719 288.61C116.719 288.663 116.689 288.707 116.644 288.73C116.6 288.752 116.548 288.752 116.503 288.73C116.302 288.61 116.041 288.371 115.803 288.073H115.811ZM116.093 286.528C116.093 286.528 116.056 286.483 116.034 286.46C115.93 286.363 115.811 286.326 115.669 286.341C115.49 286.363 115.446 286.445 115.423 286.513C115.312 286.923 115.922 287.886 116.458 288.334C116.458 287.797 116.406 286.908 116.093 286.528Z" fill="#407BFF"/>
<path d="M125.086 160.102L125.347 162.312C125.406 162.483 125.175 162.64 124.9 162.618L100.319 160.438C100.103 160.415 99.9394 160.296 99.9543 160.162L100.088 157.982C100.096 157.832 100.304 157.72 100.542 157.743L124.729 159.885C124.908 159.9 125.049 159.99 125.086 160.102Z" fill="white"/>
<path d="M121.394 162.543L122.041 162.603C122.168 162.618 122.28 162.558 122.287 162.476L122.436 159.646C122.436 159.564 122.339 159.49 122.213 159.475L121.565 159.415C121.438 159.4 121.327 159.46 121.319 159.542L121.17 162.371C121.17 162.453 121.267 162.528 121.394 162.543Z" fill="#407BFF"/>
<path opacity="0.6" d="M121.394 162.543L122.041 162.603C122.168 162.618 122.28 162.558 122.287 162.476L122.436 159.646C122.436 159.564 122.339 159.49 122.213 159.475L121.565 159.415C121.438 159.4 121.327 159.46 121.319 159.542L121.17 162.371C121.17 162.453 121.267 162.528 121.394 162.543Z" fill="black"/>
<path d="M102.106 160.826L102.753 160.886C102.88 160.901 102.992 160.841 102.999 160.759L103.148 157.929C103.148 157.847 103.051 157.773 102.925 157.758L102.277 157.698C102.15 157.683 102.039 157.743 102.031 157.825L101.882 160.654C101.882 160.736 101.979 160.811 102.106 160.826Z" fill="#407BFF"/>
<path opacity="0.6" d="M102.106 160.826L102.753 160.886C102.88 160.901 102.992 160.841 102.999 160.759L103.148 157.929C103.148 157.847 103.051 157.773 102.925 157.758L102.277 157.698C102.15 157.683 102.039 157.743 102.031 157.825L101.882 160.654C101.882 160.736 101.979 160.811 102.106 160.826Z" fill="black"/>
<path d="M111.746 161.684L112.394 161.744C112.52 161.759 112.632 161.699 112.639 161.617L112.788 158.788C112.788 158.706 112.691 158.631 112.565 158.616L111.917 158.556C111.791 158.542 111.679 158.601 111.672 158.683L111.523 161.513C111.523 161.595 111.619 161.67 111.746 161.684Z" fill="#407BFF"/>
<path opacity="0.6" d="M111.746 161.684L112.394 161.744C112.52 161.759 112.632 161.699 112.639 161.617L112.788 158.788C112.788 158.706 112.691 158.631 112.565 158.616L111.917 158.556C111.791 158.542 111.679 158.601 111.672 158.683L111.523 161.513C111.523 161.595 111.619 161.67 111.746 161.684Z" fill="black"/>
<path d="M109.081 150.531L105.381 145.552L103.833 151.509C103.833 151.509 106.602 153.935 108.954 152.987L109.081 150.531Z" fill="#FF8B7B"/>
<path d="M100.594 144.454L99.5597 149.494L104.585 152.069L105.389 145.552L100.594 144.454Z" fill="#FF8B7B"/>
</g>
<defs>
<clipPath id="clip0_1304_2823">
<rect width="359" height="314" fill="white"/>
</clipPath>
</defs>
</svg>
