<svg xmlns="http://www.w3.org/2000/svg" width="96" height="96" fill="#4e6074" viewBox="0 0 256 256"><path d="M223.51,48h-191A16.51,16.51,0,0,0,16,64.49v127A16.51,16.51,0,0,0,32.49,208h191A16.51,16.51,0,0,0,240,191.51v-127A16.51,16.51,0,0,0,223.51,48ZM224,191.51a.49.49,0,0,1-.49.49h-191a.49.49,0,0,1-.49-.49v-127a.49.49,0,0,1,.49-.49h191a.49.49,0,0,1,.49.49ZM208,128a8,8,0,0,1-8,8H56a8,8,0,0,1,0-16H200A8,8,0,0,1,208,128Zm0-32a8,8,0,0,1-8,8H56a8,8,0,0,1,0-16H200A8,8,0,0,1,208,96ZM72,160a8,8,0,0,1-8,8H56a8,8,0,0,1,0-16h8A8,8,0,0,1,72,160Zm96,0a8,8,0,0,1-8,8H96a8,8,0,0,1,0-16h64A8,8,0,0,1,168,160Zm40,0a8,8,0,0,1-8,8h-8a8,8,0,0,1,0-16h8A8,8,0,0,1,208,160Z"></path></svg>