<svg
    xmlns="http://www.w3.org/2000/svg"
    viewBox="0 0 24 24"
    id="vector">
    <defs>
        <clipPath id="clip_path_1">
            <path d="M 0 0 L 10 0 L 10 10 L 0 10 Z"/>
        </clipPath>
        <clipPath id="clip_path_2">
            <path
                d="M 0 0 L 10 0 L 10 10 L 0 10 Z"
                clip-path="url(#clip_path_2_1)"/>
        </clipPath>
        <clipPath id="clip_path_2_1">
            <path d="M 0 0 L 10 0 L 10 10 L 0 10 Z"/>
        </clipPath>
        <clipPath id="clip_path_3">
            <path
                d="M 0 0 L 10 0 L 10 10 L 0 10 Z"
                clip-path="url(#clip_path_3_1)"/>
        </clipPath>
        <clipPath id="clip_path_3_1">
            <path
                d="M 0 0 L 10 0 L 10 10 L 0 10 Z"
                clip-path="url(#clip_path_3_2)"/>
        </clipPath>
        <clipPath id="clip_path_3_2">
            <path d="M 0 0 L 10 0 L 10 10 L 0 10 Z"/>
        </clipPath>
    </defs>
    <g
        id="wrapper"
        transform="scale(2.4 2.4)">
        <path
            id="path"
            d="M 0.769 5 C 0.769 6.122 1.215 7.199 2.008 7.992 C 2.801 8.785 3.878 9.231 5 9.231 C 6.122 9.231 7.199 8.785 7.992 7.992 C 8.785 7.199 9.231 6.122 9.231 5 C 9.231 4.107 8.948 3.236 8.423 2.513 C 7.898 1.79 7.157 1.252 6.307 0.976 C 5.458 0.7 4.542 0.7 3.693 0.976 C 2.843 1.252 2.102 1.79 1.577 2.513 C 1.052 3.236 0.769 4.107 0.769 5 Z"
            fill="#dd5f5f"
            stroke-width="1"/>
        <path
            id="path_1"
            clip-path="url(#clip_path_1)"
            d="M 5 2.917 C 5.23 2.917 5.417 3.103 5.417 3.333 L 5.417 5 C 5.417 5.23 5.23 5.417 5 5.417 C 4.77 5.417 4.583 5.23 4.583 5 L 4.583 3.333 C 4.583 3.103 4.77 2.917 5 2.917 Z"
            fill="#364860"
            stroke-width="1"/>
        <path
            id="path_2"
            clip-path="url(#clip_path_2)"
            d="M 5 6.25 C 4.77 6.25 4.583 6.437 4.583 6.667 C 4.583 6.897 4.77 7.083 5 7.083 L 5.004 7.083 C 5.234 7.083 5.421 6.897 5.421 6.667 C 5.421 6.437 5.234 6.25 5.004 6.25 L 5 6.25 Z"
            fill="#364860"
            stroke-width="1"/>
        <path
            id="path_3"
            clip-path="url(#clip_path_3)"
            d="M 2.98 0.539 C 3.058 0.461 3.164 0.417 3.275 0.417 L 6.725 0.417 C 6.835 0.417 6.941 0.461 7.02 0.539 L 9.461 2.98 C 9.539 3.059 9.583 3.164 9.583 3.275 L 9.583 6.725 C 9.583 6.835 9.539 6.941 9.461 7.02 L 7.02 9.461 C 6.941 9.539 6.835 9.583 6.725 9.583 L 3.275 9.583 C 3.164 9.583 3.058 9.539 2.98 9.461 L 0.539 7.02 C 0.461 6.941 0.417 6.835 0.417 6.725 L 0.417 3.275 C 0.417 3.164 0.461 3.059 0.539 2.98 L 2.98 0.539 Z M 3.448 1.25 L 1.25 3.448 L 1.25 6.552 L 3.448 8.75 L 6.552 8.75 L 8.75 6.552 L 8.75 3.448 L 6.552 1.25 L 3.448 1.25 Z"
            fill="#364860"
            stroke-width="1"
            fill-rule="evenodd"/>
    </g>
</svg>
