<svg width="11" height="10" viewBox="0 0 11 10" fill="none" xmlns="http://www.w3.org/2000/svg">
<ellipse cx="5.24993" cy="5.00006" rx="4.23077" ry="4.23077" fill="#DD5F5F"/>
<g clip-path="url(#clip0_2386_24363)">
<path d="M5.24996 2.91666C5.48008 2.91666 5.66663 3.1032 5.66663 3.33332V4.99999C5.66663 5.23011 5.48008 5.41666 5.24996 5.41666C5.01984 5.41666 4.83329 5.23011 4.83329 4.99999V3.33332C4.83329 3.1032 5.01984 2.91666 5.24996 2.91666Z" fill="#364860"/>
<path d="M5.24996 6.24999C5.01984 6.24999 4.83329 6.43654 4.83329 6.66666C4.83329 6.89677 5.01984 7.08332 5.24996 7.08332H5.25413C5.48424 7.08332 5.67079 6.89677 5.67079 6.66666C5.67079 6.43654 5.48424 6.24999 5.25413 6.24999H5.24996Z" fill="#364860"/>
<path fill-rule="evenodd" clip-rule="evenodd" d="M3.23033 0.538695C3.30847 0.460555 3.41445 0.416656 3.52496 0.416656H6.97496C7.08547 0.416656 7.19145 0.460555 7.26959 0.538695L9.71125 2.98036C9.78939 3.0585 9.83329 3.16448 9.83329 3.27499V6.72499C9.83329 6.8355 9.78939 6.94148 9.71125 7.01962L7.26959 9.46128C7.19145 9.53942 7.08547 9.58332 6.97496 9.58332H3.52496C3.41445 9.58332 3.30847 9.53942 3.23033 9.46128L0.788665 7.01962C0.710525 6.94148 0.666626 6.8355 0.666626 6.72499V3.27499C0.666626 3.16448 0.710525 3.0585 0.788665 2.98036L3.23033 0.538695ZM3.69755 1.24999L1.49996 3.44758V6.5524L3.69755 8.74999H6.80237L8.99996 6.5524V3.44758L6.80237 1.24999H3.69755Z" fill="#364860"/>
</g>
<defs>
<clipPath id="clip0_2386_24363">
<rect width="10" height="10" fill="white" transform="translate(0.25)"/>
</clipPath>
</defs>
</svg>
