<svg width="256" height="256" viewBox="0 0 256 256" fill="none" xmlns="http://www.w3.org/2000/svg">
<g filter="url(#filter0_d_3627_17791)">
<rect x="0" y="0" width="256" height="256" rx="128" fill="#DFECF2"/>
<path d="M128,24A104,104,0,1,0,232,128,104.11,104.11,0,0,0,128,24ZM74.08,197.5a64,64,0,0,1,107.84,0,87.83,87.83,0,0,1-107.84,0ZM96,120a32,32,0,1,1,32,32A32,32,0,0,1,96,120Zm97.76,66.41a79.66,79.66,0,0,0-36.06-28.75,48,48,0,1,0-59.4,0,79.66,79.66,0,0,0-36.06,28.75,88,88,0,1,1,131.52,0Z" fill="#4E6074"/>
</g>
<defs>
<filter id="filter0_d_3627_17791" x="0" y="0" width="256" height="256" filterUnits="userSpaceOnUse" color-interpolation-filters="sRGB">
<feFlood flood-opacity="0" result="BackgroundImageFix"/>
<feColorMatrix in="SourceAlpha" type="matrix" values="0 0 0 0 0 0 0 0 0 0 0 0 0 0 0 0 0 0 127 0" result="hardAlpha"/>
<feOffset/>
<feGaussianBlur stdDeviation="5"/>
<feComposite in2="hardAlpha" operator="out"/>
<feColorMatrix type="matrix" values="0 0 0 0 0 0 0 0 0 0 0 0 0 0 0 0 0 0 0.1 0"/>
<feBlend mode="normal" in2="BackgroundImageFix" result="effect1_dropShadow_3627_17791"/>
<feBlend mode="normal" in="SourceGraphic" in2="effect1_dropShadow_3627_17791" result="shape"/>
</filter>
</defs>
</svg>
