<svg width="120" height="120" viewBox="0 0 120 120" fill="none" xmlns="http://www.w3.org/2000/svg">
<g filter="url(#filter0_d_3627_17791)">
<rect x="0" y="0" width="120" height="120" rx="60" fill="#DFECF2"/>
<path d="M59.9666 26.667C41.5666 26.667 26.6666 41.6003 26.6666 60.0003C26.6666 78.4003 41.5666 93.3337 59.9666 93.3337C78.4 93.3337 93.3333 78.4003 93.3333 60.0003C93.3333 41.6003 78.4 26.667 59.9666 26.667ZM60 86.667C45.2666 86.667 33.3333 74.7337 33.3333 60.0003C33.3333 45.267 45.2666 33.3337 60 33.3337C74.7333 33.3337 86.6666 45.267 86.6666 60.0003C86.6666 74.7337 74.7333 86.667 60 86.667ZM71.6666 56.667C74.4333 56.667 76.6666 54.4337 76.6666 51.667C76.6666 48.9003 74.4333 46.667 71.6666 46.667C68.9 46.667 66.6666 48.9003 66.6666 51.667C66.6666 54.4337 68.9 56.667 71.6666 56.667ZM48.3333 56.667C51.1 56.667 53.3333 54.4337 53.3333 51.667C53.3333 48.9003 51.1 46.667 48.3333 46.667C45.5666 46.667 43.3333 48.9003 43.3333 51.667C43.3333 54.4337 45.5666 56.667 48.3333 56.667ZM60 78.3337C67.7666 78.3337 74.3666 73.467 77.0333 66.667H42.9666C45.6333 73.467 52.2333 78.3337 60 78.3337Z" fill="#4E6074"/>
</g>
<defs>
<filter id="filter0_d_3627_17791" x="0" y="0" width="120" height="120" filterUnits="userSpaceOnUse" color-interpolation-filters="sRGB">
<feFlood flood-opacity="0" result="BackgroundImageFix"/>
<feColorMatrix in="SourceAlpha" type="matrix" values="0 0 0 0 0 0 0 0 0 0 0 0 0 0 0 0 0 0 127 0" result="hardAlpha"/>
<feOffset/>
<feGaussianBlur stdDeviation="5"/>
<feComposite in2="hardAlpha" operator="out"/>
<feColorMatrix type="matrix" values="0 0 0 0 0 0 0 0 0 0 0 0 0 0 0 0 0 0 0.1 0"/>
<feBlend mode="normal" in2="BackgroundImageFix" result="effect1_dropShadow_3627_17791"/>
<feBlend mode="normal" in="SourceGraphic" in2="effect1_dropShadow_3627_17791" result="shape"/>
</filter>
</defs>
</svg>
