<svg width="25" height="24" viewBox="0 0 25 24" fill="none" xmlns="http://www.w3.org/2000/svg">
<path d="M12.5 2C10.5222 2 8.58879 2.58649 6.9443 3.6853C5.29981 4.78412 4.01809 6.3459 3.26121 8.17316C2.50433 10.0004 2.3063 12.0111 2.69215 13.9509C3.078 15.8907 4.03041 17.6725 5.42894 19.0711C6.82746 20.4696 8.60929 21.422 10.5491 21.8078C12.4889 22.1937 14.4996 21.9957 16.3268 21.2388C18.1541 20.4819 19.7159 19.2002 20.8147 17.5557C21.9135 15.9112 22.5 13.9778 22.5 12C22.4972 9.34869 21.4427 6.80678 19.568 4.93202C17.6932 3.05727 15.1513 2.0028 12.5 2ZM11.7308 7.38461C11.7308 7.1806 11.8118 6.98494 11.9561 6.84069C12.1003 6.69643 12.296 6.61538 12.5 6.61538C12.704 6.61538 12.8997 6.69643 13.0439 6.84069C13.1882 6.98494 13.2692 7.1806 13.2692 7.38461V12.7692C13.2692 12.9732 13.1882 13.1689 13.0439 13.3132C12.8997 13.4574 12.704 13.5385 12.5 13.5385C12.296 13.5385 12.1003 13.4574 11.9561 13.3132C11.8118 13.1689 11.7308 12.9732 11.7308 12.7692V7.38461ZM12.5 17.3846C12.2718 17.3846 12.0487 17.3169 11.859 17.1902C11.6692 17.0634 11.5213 16.8832 11.434 16.6723C11.3467 16.4615 11.3238 16.2295 11.3683 16.0057C11.4128 15.7818 11.5227 15.5762 11.6841 15.4149C11.8455 15.2535 12.0511 15.1436 12.2749 15.0991C12.4987 15.0546 12.7307 15.0774 12.9416 15.1648C13.1524 15.2521 13.3326 15.4 13.4594 15.5897C13.5862 15.7795 13.6538 16.0026 13.6538 16.2308C13.6538 16.5368 13.5323 16.8303 13.3159 17.0467C13.0995 17.263 12.806 17.3846 12.5 17.3846Z" fill="#DD5F5F"/>
</svg>
