<svg width="12" height="7" viewBox="0 0 12 7" fill="none" xmlns="http://www.w3.org/2000/svg">
<path id="Vector" d="M11.1102 0.519256C11.3313 0.762455 11.3313 1.1338 11.1102 1.377L6.59399 6.3464C6.27552 6.69683 5.72448 6.69683 5.40601 6.3464L1.72222 2.29299V4.76833C1.72222 5.10584 1.44862 5.37944 1.11111 5.37944C0.773604 5.37944 0.5 5.10584 0.5 4.76833V0.444444C0.5 0.198985 0.698984 0 0.944445 0L4.71646 0C5.08783 0 5.38889 0.301057 5.38889 0.67243C5.38889 1.0438 5.08783 1.34486 4.71646 1.34486L2.58389 1.34486L6 5.10375L10.1664 0.519256C10.4194 0.240856 10.8572 0.240856 11.1102 0.519256Z" fill="#DD5F5F"/>
</svg>
