<svg width="12" height="7" viewBox="0 0 12 7" fill="none" xmlns="http://www.w3.org/2000/svg">
<path id="Vector" d="M0.889762 6.48074C0.66874 6.23754 0.66874 5.8662 0.889762 5.623L5.40601 0.653595C5.72448 0.303169 6.27552 0.303169 6.59399 0.653595L10.2778 4.70701L10.2778 2.23167C10.2778 1.89416 10.5514 1.62056 10.8889 1.62056C11.2264 1.62056 11.5 1.89416 11.5 2.23167L11.5 6.55555C11.5 6.80101 11.301 7 11.0556 7L7.28354 7C6.91217 7 6.61111 6.69894 6.61111 6.32757C6.61111 5.9562 6.91217 5.65514 7.28354 5.65514L9.41611 5.65514L6 1.89625L1.83357 6.48074C1.58056 6.75914 1.14277 6.75914 0.889762 6.48074Z" fill="#DD5F5F"/>
</svg>
